<?xml version="1.0" encoding="utf-8"?>
<!-- Generator: Adobe Illustrator 19.0.0, SVG Export Plug-In . SVG Version: 6.00 Build 0)  -->
<svg version="1.1" id="Layer_1" xmlns="http://www.w3.org/2000/svg" xmlns:xlink="http://www.w3.org/1999/xlink" x="0px" y="0px"
	 viewBox="-430 487 138 27" style="enable-background:new -430 487 138 27;" xml:space="preserve">
<style type="text/css">
	.st0{fill:#FCFCFC;}
	.st1{fill:#FFFFFF;}
</style>
<g>
	<path class="st0" d="M-404.4,498v10.9l-0.6-0.7c0-0.1-0.1-0.2-0.1-0.3c-0.1-0.1-0.2-0.3-0.3-0.6c-0.2-0.3-0.4-0.6-0.7-1
		c-0.3-0.4-0.5-0.6-0.8-0.9c-0.9-0.8-2.1-1.3-3.5-1.4l-1.4-1.9c2.1-1.4,4.2-2.5,6.4-3.3V498h-7.1l-1-1h10.3l1,1H-404.4L-404.4,498z
		 M-405.4,500.4c-0.7,0.2-1.3,0.5-2,0.9c-0.7,0.4-1.4,0.8-2.2,1.3c1.9,0.8,3.3,2,4.2,3.6V500.4z"/>
	<path class="st0" d="M-400.5,498v10.8l-1-1v-7.7c0-0.3-0.1-0.6-0.2-0.9s-0.3-0.5-0.5-0.7c-0.2-0.2-0.5-0.3-0.7-0.4
		c-0.3-0.1-0.6-0.2-0.9-0.2l-1-1h1.2c0.6,0,1.1,0.1,1.5,0.4c0.3,0.3,0.6,0.7,0.8,1.4c0-0.2,0-0.5,0-0.8c0-0.3,0-0.7-0.1-1.1
		c0-0.4,0-0.8-0.1-1.1c0-0.3,0-0.6,0-0.8l0.4,0.3c0.1,0.7,0.3,1.3,0.6,1.6h0.7l1,1h-1.7V498z"/>
	<path class="st0" d="M-393.6,499.7c0,0.6-0.2,1.2-0.6,1.7s-0.9,0.7-1.6,0.7s-1.2-0.2-1.7-0.7s-0.7-1.1-0.7-1.7
		c0-0.3,0.1-0.6,0.2-0.9s0.3-0.5,0.5-0.8c0.5-0.5,1-0.8,1.6-0.8c0.7,0,1.2,0.3,1.7,0.8C-393.8,498.4-393.6,499-393.6,499.7z
		 M-392.8,508.9c-0.4-0.4-0.8-0.8-1.2-1.2c-0.4-0.4-0.9-0.7-1.4-1.1c-0.5-0.3-0.9-0.7-1.4-1c-0.4-0.3-0.9-0.6-1.2-0.8v-2.3
		c0.8,0.6,1.7,1.5,2.7,2.6c1,1.1,1.8,2.1,2.4,2.9v0.9H-392.8z M-394.6,499.1c0-0.6-0.2-0.9-0.7-0.9s-0.9,0.2-1.3,0.6
		c-0.2,0.2-0.3,0.4-0.4,0.7c-0.1,0.2-0.1,0.5-0.1,0.7c0,0.5,0.2,0.8,0.6,0.8c0.5,0,1-0.2,1.4-0.6
		C-394.8,500.1-394.6,499.6-394.6,499.1z"/>
	<path class="st0" d="M-383.2,498v11l-1.1-1v-5.9c0-0.4-0.1-0.7-0.4-1c-0.3-0.3-0.6-0.4-1-0.4c-0.6,0-0.9,0.4-0.9,1.1
		c0,0.2,0,0.4,0.1,0.6l-0.4,0.2c-0.1-0.6-0.4-1-0.8-1.4s-1-0.5-1.6-0.5c-0.3,0-0.5,0.1-0.7,0.2c-0.2,0.1-0.4,0.2-0.6,0.4
		c-0.2,0.2-0.3,0.4-0.4,0.6s-0.2,0.5-0.2,0.8c0,0.8,0.5,1.3,1.5,1.5c-0.2-0.3-0.3-0.6-0.3-0.9s0.1-0.6,0.4-0.8
		c0.2-0.2,0.5-0.3,0.8-0.3c1,0.1,1.4,0.6,1.4,1.5c0,0.4-0.2,0.7-0.4,1c-0.3,0.3-0.7,0.4-1.2,0.4c-0.4,0-0.9-0.1-1.2-0.2
		c-0.3-0.1-0.7-0.3-1-0.6c-0.3-0.3-0.5-0.6-0.6-0.9c-0.1-0.4-0.2-0.8-0.2-1.2c0-0.7,0.2-1.4,0.6-2c0.4-0.7,1-1,1.7-1
		c0.9,0,1.7,0.5,2.4,1.4c0-0.3,0.1-0.6,0.4-0.9c0.3-0.3,0.6-0.4,0.9-0.4c0.9,0,1.5,0.6,1.9,1.7v-2.9h-8.5l-1.1-1h11.5l1.1,1h-2.1
		V498z"/>
	<path class="st0" d="M-379.4,498v10.8l-1-1v-7.7c0-0.3-0.1-0.6-0.2-0.9s-0.3-0.5-0.5-0.7c-0.2-0.2-0.5-0.3-0.7-0.4
		c-0.3-0.1-0.6-0.2-0.9-0.2l-1-1h1.2c0.6,0,1.1,0.1,1.5,0.4c0.3,0.3,0.6,0.7,0.8,1.4c0-0.2,0-0.5,0-0.8c0-0.3,0-0.7-0.1-1.1
		c0-0.4,0-0.8-0.1-1.1c0-0.3,0-0.6,0-0.8l0.4,0.3c0.1,0.7,0.3,1.3,0.6,1.6h0.7l1,1h-1.7V498z"/>
	<path class="st0" d="M-371.4,498c-0.8,0.2-1.5,0.5-2,0.9c-0.6,0.4-1.1,0.9-1.4,1.5c-0.4,0.6-0.6,1.2-0.8,1.9
		c-0.2,0.7-0.3,1.4-0.3,2.3c0,0.7,0.2,1.4,0.6,2c0.7,0.9,1.3,1.3,1.9,1.1c-0.2-0.1-0.4-0.3-0.5-0.5s-0.2-0.4-0.2-0.6
		c0-0.3,0.1-0.6,0.4-0.8s0.6-0.3,0.9-0.3s0.6,0.1,0.9,0.4c0.2,0.3,0.4,0.6,0.4,1.1c0,0.2,0,0.5-0.1,0.7s-0.2,0.4-0.4,0.5
		c-0.2,0.2-0.4,0.3-0.6,0.4c-0.2,0.1-0.5,0.1-0.7,0.1c-1.2,0-2.1-0.6-2.8-1.8c-0.5-1-0.8-2.1-0.8-3.4c0-1.8,0.7-3.6,2.2-5.3h-3.4
		l-1-1h6.9L-371.4,498z"/>
	<path class="st0" d="M-369.6,498v4.8c0.4-0.4,0.8-0.8,1.2-1.1c0.4-0.4,0.9-0.7,1.3-1c0.4-0.3,0.9-0.5,1.3-0.8
		c0.4-0.2,0.8-0.4,1.1-0.5l1.7,1.3c-0.5,0.9-0.8,1.8-1.1,2.6c-0.3,0.8-0.4,1.6-0.4,2.4s0.1,1.8,0.4,3.2l-0.7-0.4
		c-0.2-1-0.4-1.8-0.5-2.6c-0.1-0.8-0.2-1.4-0.2-1.9c0-0.9,0.1-1.8,0.4-2.7c-0.9,0.4-1.8,0.9-2.5,1.6c-0.8,0.7-1.4,1.6-1.8,2.5
		l-1.4-1.5v-6.1h-1.1l-1.1-1h10.2l1,1h-7.8V498z"/>
	<path class="st0" d="M-352.4,498v10.9l-1.1-1.1l0.1-6.7c0-0.4-0.2-1-0.7-1.6s-0.9-0.9-1.3-0.9c-0.3,0-0.5,0.1-0.8,0.3
		c-0.3,0.2-0.4,0.4-0.4,0.6c1.1,0.8,1.6,1.4,1.6,1.9c0,0.4-0.1,0.8-0.4,1.1c-0.2,0.3-0.6,0.5-1,0.6c-0.3,0-0.7-0.1-1-0.3
		s-0.5-0.5-0.6-0.9c-0.3,0.9-0.9,1.3-1.7,1.3c-0.4,0-0.7-0.2-0.9-0.5c-0.2-0.3-0.4-0.6-0.4-1c0-0.2,0-0.5,0.1-0.7s0.2-0.5,0.4-0.7
		c0.2-0.2,0.4-0.4,0.6-0.6c0.2-0.2,0.5-0.3,0.7-0.4c-0.5-0.9-1.1-1.3-1.7-1.3c-0.7,0-1.1,0-1.2,0l-1-1h2.2c0.5,0,1.1,0.2,1.5,0.6
		c0.5,0.4,0.8,0.9,0.9,1.5c0.6-1.4,1.5-2.1,2.6-2.1c0.4,0,0.9,0.4,1.5,1.1s0.9,1.2,1.1,1.7h0.1l-0.2-4.6l0.6,0.6
		c0.1,0.8,0.5,1.2,1.1,1.3l1,1h-1.7V498z"/>
	<path class="st0" d="M-339.7,498c-0.8,0.2-1.5,0.5-2,0.9c-0.6,0.4-1.1,0.9-1.4,1.5c-0.4,0.6-0.6,1.2-0.8,1.9
		c-0.2,0.7-0.3,1.4-0.3,2.3c0,0.7,0.2,1.4,0.6,2c0.5,0.8,1,1.2,1.7,1.2h0.1c0.1,0,0.2,0,0.2-0.1c-0.2-0.1-0.4-0.3-0.5-0.5
		s-0.2-0.4-0.2-0.6c0-0.2,0-0.3,0.1-0.4c0.1-0.1,0.2-0.3,0.3-0.4c0.1-0.1,0.3-0.2,0.4-0.3c0.2-0.1,0.3-0.1,0.5-0.1
		c0.3,0,0.6,0.1,0.9,0.4c0.2,0.3,0.4,0.6,0.4,1.1c0,0.2,0,0.5-0.1,0.7s-0.2,0.4-0.4,0.5c-0.2,0.2-0.4,0.3-0.6,0.4
		c-0.2,0.1-0.5,0.1-0.7,0.1c-1.2,0-2.1-0.6-2.8-1.8c-0.5-1-0.8-2.1-0.8-3.4c0-1.1,0.2-2,0.6-2.9s0.9-1.7,1.6-2.4
		c0.3-0.3,0.7-0.5,1.1-0.7c0.4-0.2,0.8-0.3,1.3-0.4L-339.7,498z"/>
	<path class="st0" d="M-330.3,498v10.8l-1.1-1.1l0.1-5.5c0-0.2,0-0.3-0.1-0.5c-0.1-0.2-0.2-0.4-0.3-0.6c-0.1-0.2-0.3-0.4-0.4-0.5
		c-0.1-0.1-0.3-0.3-0.4-0.4l-3.7,3.7l-1.5-0.5c0.7-0.7,1.1-1.2,1.1-1.6c0-0.7-0.2-1.1-0.6-1.1c-0.1,0-0.2,0-0.3,0.1
		c-0.1,0-0.3,0.1-0.4,0.1c-0.3,0.1-0.6,0.2-0.7,0.2c-0.2,0-0.4-0.1-0.6-0.3s-0.3-0.4-0.3-0.6c0-0.4,0.1-0.7,0.4-1.1
		c0.3-0.4,0.6-0.7,1.1-1c0.4-0.3,0.9-0.5,1.3-0.6s0.9-0.2,1.3-0.2c1.5,0,2.9,1.1,4.2,3.4l0,0c0-0.9-0.1-1.8-0.1-2.7
		s-0.1-1.8-0.1-2.7l0.5,0.4c0.1,0.6,0.1,0.9,0.2,1.1c0.1,0.3,0.4,0.5,0.8,0.5c0.1,0,0.2,0,0.3,0l1,1h-1.7V498z M-333.3,499.1
		c-0.5-0.5-1-0.8-1.6-0.8c-1.1,0-2,0.5-2.4,1.4c0.6,0,1,0.2,1.2,0.6c0.2,0.4,0.3,0.8,0.3,1.4L-333.3,499.1z"/>
	<path class="st0" d="M-326.5,498v10.8l-1-1v-7.7c0-0.3-0.1-0.6-0.2-0.9s-0.3-0.5-0.5-0.7c-0.2-0.2-0.5-0.3-0.7-0.4
		c-0.3-0.1-0.6-0.2-0.9-0.2l-1-1h1.2c0.6,0,1.1,0.1,1.5,0.4c0.3,0.3,0.6,0.7,0.8,1.4c0-0.2,0-0.5,0-0.8c0-0.3,0-0.7-0.1-1.1
		c0-0.4,0-0.8-0.1-1.1c0-0.3,0-0.6,0-0.8l0.4,0.3c0.1,0.7,0.3,1.3,0.6,1.6h0.7l1,1h-1.7V498z"/>
	<path class="st0" d="M-311.8,500.2c0.3,0,0.6,0.1,0.8,0.2c0.2,0.1,0.4,0.3,0.6,0.5s0.3,0.4,0.4,0.7c0.1,0.3,0.1,0.5,0.1,0.8
		c0,0.6-0.1,1.1-0.3,1.6c-0.2,0.5-0.5,1-0.9,1.4c-0.2,0.2-0.5,0.5-0.7,0.7c-0.2,0.2-0.5,0.4-0.8,0.6c-0.3,0.2-0.5,0.3-0.8,0.5
		c-0.3,0.1-0.6,0.2-0.9,0.2c-0.2,0-0.5,0-0.7-0.1c-0.2-0.1-0.5-0.2-0.7-0.3s-0.4-0.3-0.6-0.5s-0.3-0.4-0.3-0.6v-2.6
		c0-0.2-0.1-0.4-0.2-0.6s-0.2-0.4-0.3-0.6c-0.1-0.2-0.3-0.3-0.4-0.4c-0.2-0.1-0.4-0.2-0.6-0.2c-0.4,0-0.8,0.3-1.1,0.8
		c-0.6,0.9-1,1.5-1.4,1.9c-0.3,0.4-0.6,0.7-0.8,0.8c0,0-0.1,0-0.2,0.1c-0.1,0-0.2,0-0.3,0c-0.3,0-0.5-0.1-0.8-0.2
		c-0.2-0.2-0.5-0.4-0.7-0.6c-0.2-0.2-0.4-0.5-0.5-0.8c-0.2-0.3-0.3-0.5-0.4-0.8l0.7-0.6v0.1c0,0.1,0.1,0.3,0.1,0.4
		c0.1,0.1,0.1,0.3,0.2,0.4c0.1,0.1,0.2,0.2,0.3,0.3c0.1,0.1,0.2,0.1,0.3,0.1c0.1,0,0.3-0.1,0.5-0.3c0.2-0.2,0.4-0.4,0.6-0.7l0.8-1.1
		c0-0.5-0.1-0.9-0.2-1.1c-0.3-0.9-0.9-1.3-1.8-1.4c-0.1,0-0.2,0-0.3,0c-0.1,0-0.2,0-0.3,0c-0.2,0-0.3,0-0.4,0s-0.2,0-0.3,0
		c-0.4-0.1-0.8-0.2-1.1-0.4l-1.4-1.4h15.1c0.1-0.2,0.1-0.3,0.1-0.4c0-0.2-0.1-0.4-0.2-0.6c-0.1-0.1-0.3-0.3-0.5-0.4
		c-0.1,0-0.3-0.1-0.4-0.1s-0.3,0-0.5,0c-0.1,0-0.3,0-0.5,0s-0.3,0-0.5,0c-0.3,0-0.6,0-1,0s-0.8,0-1.2,0c-0.5,0-0.9-0.1-1.3-0.2
		c-0.3-0.1-0.7-0.4-1-0.6c-0.2-0.2-0.4-0.5-0.5-0.7c-0.1-0.3-0.2-0.5-0.2-0.8c0-0.4,0.1-0.8,0.3-1c0,0,0.1-0.1,0.2-0.1
		s0.1-0.1,0.2-0.1l0.1,0.4c-0.1,0.1-0.1,0.2-0.2,0.3s-0.1,0.2-0.1,0.3c0,0.2,0.1,0.5,0.3,0.7c0.2,0.2,0.4,0.3,0.8,0.5
		c0.3,0.1,0.6,0.1,0.9,0.1c0.4,0,0.9,0,1.4-0.1s1-0.1,1.4-0.1s0.8,0,1.1,0.1c0.3,0.1,0.6,0.2,0.9,0.3c0.5,0.3,0.8,0.7,1,1.1
		c0.2,0.4,0.3,0.9,0.3,1.5h0.8l1.2,1h-7.3v7.2c0,0.5,0.3,0.8,0.9,0.8c0.2,0,0.5-0.1,0.8-0.3s0.7-0.4,1-0.7c0.3-0.3,0.6-0.6,0.9-1
		c0.3-0.4,0.4-0.8,0.4-1.1h-0.3c-0.3,0-0.7-0.1-0.9-0.3c-0.3-0.2-0.4-0.5-0.4-0.9s0.1-0.7,0.4-1
		C-312.5,500.3-312.2,500.2-311.8,500.2z M-316.6,498h-4.9l0.7,0.5c0.2,0.2,0.4,0.5,0.6,0.8c0.1,0.3,0.2,0.7,0.2,1.1v0.5
		c0,0,0,0,0.1-0.1l0.1-0.1c0.1-0.1,0.3-0.3,0.5-0.4c0.2-0.1,0.4-0.2,0.6-0.3c0.3,0,0.5,0.1,0.7,0.2c0.2,0.1,0.4,0.3,0.6,0.5
		c0.2,0.2,0.3,0.4,0.5,0.6c0.1,0.2,0.3,0.4,0.4,0.6V498H-316.6z"/>
</g>
<g>
	<path id="XMLID_64_" class="st1" d="M-361.6,488.4h1.2c1.7,0.1,3.2,0.6,4.6,1.5c2.7,1.6,4.5,4.3,5,7.4c0.3,2.4,0,4.5-1.1,6.5
		c0,0,0,0-0.1,0l0,0v-0.1c0.5-0.9,0.8-1.8,0.9-2.7c0.1-0.7,0.2-1.4,0.2-2.4c0-0.7-0.1-1.4-0.2-2c-1-3.9-4-6.9-7.9-7.7
		c-1.4-0.3-2.8-0.3-4.2,0c-4.2,0.9-7.4,4.3-8.1,8.5c-0.3,2.3,0,4.4,1.1,6.5v0.1l0,0c0,0,0,0-0.1,0c-0.2-0.2-0.3-0.4-0.4-0.7
		c-0.5-1.3-0.8-2.4-0.9-3.3c-0.1-1.2,0-2.6,0.3-3.8c0.4-1.4,1-2.7,2-3.9c0.9-1,1.8-1.9,3-2.5c0.9-0.5,1.8-0.8,2.8-1.1
		C-362.8,488.5-362.2,488.5-361.6,488.4L-361.6,488.4z"/>
	<path id="XMLID_63_" class="st1" d="M-370.2,495.8c-0.7,2.1-0.7,4.2,0.1,6.4c0.2,0.5,0.4,0.9,0.6,1.4v0.1c0,0.1-0.1,0.1-0.1,0.1
		h-0.1c-0.1-0.2-0.2-0.4-0.3-0.6c-0.3-0.7-0.6-1.5-0.7-2.3c-0.2-0.9-0.2-1.8-0.1-2.7c0-0.6,0.1-1.1,0.2-1.6c1.1-4,4.1-6.8,8.2-7.4
		c1-0.2,2-0.2,2.9,0c2.8,0.5,5.1,1.9,6.6,4.1c0.9,1.3,1.5,2.7,1.7,4.3c0.3,2.1,0,4.1-1,6c0,0.1-0.1,0.1-0.2,0.1l0,0
		c-0.1,0-0.1-0.1-0.1-0.2c0.9-1.6,1.2-3.4,1-5.3c-0.2-1.9-0.8-3.6-2-5.1c-2.9-3.7-7.9-4.8-12.1-2.5
		C-367.8,491.6-369.4,493.5-370.2,495.8L-370.2,495.8z"/>
	<path id="XMLID_203_" class="st1" d="M-362.5,490.3c-0.2,0-0.4,0-0.6,0.1c-0.2,0-0.4-0.1-0.4-0.2c0-0.1,0-0.1,0.1-0.1h0.1h0.1
		c0.5,0,0.8-0.2,1.2,0.3v0.1h-0.3c-0.1,0-0.1,0,0,0.1c0.3,0.2,0.2,0.4,0,0.6v0.1l0.4,0.3c0,0,0,0,0,0.1l0,0l0,0
		c-0.3-0.2-0.6-0.3-0.9-0.3c-0.1,0-0.1,0-0.2-0.1l-0.1-0.1c-0.1-0.1,0-0.1,0-0.1c0.2,0,0.5-0.1,0.7-0.2c0,0,0,0,0-0.1l0,0
		c0-0.1-0.1-0.1-0.1,0c-0.2,0.1-0.3,0.2-0.5,0.1c0,0-0.1-0.1,0-0.1l0.1-0.2c0.1-0.1,0-0.1,0-0.1l-0.5,0.1c-0.1,0-0.1,0.1-0.1,0.2
		c0.1,0.3,0.1,0.5,0.2,0.8c0,0.2,0,0.2-0.1,0c-0.1-0.2-0.2-0.4-0.3-0.6c0-0.1-0.1-0.2-0.3-0.2l0,0c-0.1,0-0.2,0.1-0.2,0.2l0.2,0.6
		c0,0.2,0,0.2-0.1,0.1c-0.2-0.2-0.5-0.1-0.8-0.1c-0.2,0-0.2-0.1-0.1-0.2c0.1-0.1,0.2-0.2,0.2-0.3c0-0.1,0-0.1,0-0.1
		c-0.2,0.1-0.4,0.2-0.6,0.3v0.1l0.4,0.8l0,0l0,0h-0.1l-0.2-0.3c-0.1-0.1-0.3-0.1-0.3,0.1c-0.1,0.2-0.1,0.5-0.4,0.4
		c-0.2,0-0.2-0.1,0-0.2c0.1,0,0.1-0.1,0.1-0.2s0-0.2-0.1-0.1c-0.2,0.1-0.4,0.2-0.6,0.3c-0.2,0.3-0.2,0.5,0.2,0.7
		c0.1,0,0.1,0,0.1-0.1v-0.1c0,0,0-0.1,0.1-0.1c0.1,0,0.1,0,0.2,0c0,0,0.1,0,0.1,0.1c-0.1,0.4-0.5,0.4-0.8,0.2
		c-0.1-0.1-0.2-0.2-0.2-0.4c0-0.3,0.1-0.5,0.4-0.6c0.7-0.5,1.5-0.9,2.2-1.2c0.2-0.1,0.4-0.1,0.6-0.2c0,0,0.1,0,0.1-0.1l0,0
		c0-0.1,0-0.1,0.1-0.1h0.1h0.1H-362.5C-362.4,490.3-362.4,490.3-362.5,490.3 M-364.3,491.3c-0.1,0-0.1,0.1-0.2,0.1v0.1
		c0.1,0,0.2,0,0.3,0c0,0,0.1,0,0-0.1L-364.3,491.3C-364.2,491.3-364.3,491.3-364.3,491.3 M-365.5,491.7L-365.5,491.7
		C-365.5,491.6-365.5,491.6-365.5,491.7c-0.2-0.1-0.3,0-0.4,0.1c0,0,0,0,0,0.1l0,0c0,0,0,0,0.1,0
		C-365.7,491.8-365.6,491.8-365.5,491.7L-365.5,491.7L-365.5,491.7z"/>
	<path id="XMLID_198_" class="st1" d="M-356.4,491.9c0,0,0-0.1-0.1-0.1h-0.1c0,0.2-0.1,0.3-0.3,0.2c-0.1-0.1-0.2-0.1-0.4-0.2
		c0,0-0.1-0.1,0-0.1c0-0.1,0.1-0.1,0.2-0.2c0.1,0,0.1-0.1,0-0.1l-1-0.4h-0.1c-0.1,0-0.2,0.1-0.1,0.2l0.1,0.1c0.2,0,0.4,0,0.5,0
		c0.1,0,0.1,0.2,0,0.2c-0.2,0.1-0.3,0.3-0.3,0.5c0,0,0,0.1-0.1,0c0,0,0,0,0-0.1c0-0.2,0-0.3,0.1-0.5c0,0,0-0.1-0.1-0.1l-0.4,0.1
		c-0.1,0-0.2-0.1-0.2-0.2l0.1-0.4v-0.1l-0.1-0.1h-0.1c-0.2,0.2-0.2,0.6-0.3,0.9c0,0,0,0.1-0.1,0c0,0,0,0-0.1-0.1c0-0.1,0-0.1,0-0.2
		c0-0.2,0.1-0.3,0.1-0.5c0-0.2,0-0.3-0.2-0.3c-0.1,0-0.2,0-0.2,0.1l-0.1,0.7c0,0.1,0,0.1-0.1,0l0,0c0,0,0,0,0-0.1
		c0-0.2-0.1-0.2-0.3-0.2c-0.5,0.1-0.8-0.4-1-0.8V490c0.1,0,0.3,0,0.4,0c0.5,0,1.1,0.1,1.6,0.2h0.1c0,0,0.1,0,0.1-0.1h0.1
		c0.1,0.1,0.2,0.2,0.3,0.2c0.7,0.2,1.3,0.4,1.8,0.8c0.1,0.1,0.3,0.1,0.5,0h0.1l0.7,0.1c0,0,0.1,0,0.1,0.1l0,0l0,0
		c-0.1,0-0.2,0-0.4,0s-0.2,0.1-0.2,0.2v0.1c-0.1,0-0.2,0.1-0.3,0.2c-0.1,0.2-0.2,0.4-0.3,0.5h-0.1c-0.1,0-0.1-0.1,0-0.1
		C-356.6,492.3-356.5,492.1-356.4,491.9C-356.3,491.9-356.3,491.9-356.4,491.9 M-360.5,490.6c0-0.2-0.1-0.2-0.2-0.2
		c-0.1,0-0.1,0-0.1,0.1c0.2,0.4,0.4,0.5,0.7,0.4c0,0,0,0,0-0.1l0,0c0-0.1-0.1-0.1-0.1-0.1h-0.2
		C-360.5,490.7-360.5,490.7-360.5,490.6 M-360,490.5l0.2,0.4l0,0l0,0c0.1-0.1,0.1-0.2,0.1-0.3l0,0
		C-359.8,490.5-359.9,490.4-360,490.5L-360,490.5L-360,490.5 M-356.2,491.7c0,0,0.1-0.1,0-0.2c0-0.1-0.1-0.1-0.1-0.1s-0.1,0.1,0,0.2
		C-356.3,491.7-356.2,491.7-356.2,491.7L-356.2,491.7z"/>
	<path id="XMLID_50_" class="st1" d="M-362.8,494.9c-0.3,0-0.8,0.1-0.9-0.3v-0.1c0.1-0.1,0.1-0.2,0.2-0.3c0.1-0.3,0.3-0.4,0.5-0.7
		c0.1-0.1,0.2-0.3,0.3-0.4c0.5-0.3,1,0.1,1.3,0.4c0.1,0.1,0.3,0.1,0.4,0.1c0,0,0.1,0,0.1,0.1c0,0.1-0.1,0.2-0.2,0.3
		c-0.1,0-0.1,0.1,0,0.1c0,0,0.1,0.1,0,0.1c0,0.1-0.1,0.1-0.2,0.1c-0.2,0-0.3,0-0.4,0c-0.1,0-0.1,0,0,0.1l0,0v0.1
		c-0.2,0.1-0.2,0.3-0.4,0.4c-0.2,0.1-0.4,0.3-0.6,0.4h-0.1c-0.1-0.1-0.1-0.2,0-0.3C-362.6,494.9-362.7,494.9-362.8,494.9
		L-362.8,494.9z"/>
	<path id="XMLID_49_" class="st1" d="M-360.3,495.6L-360.3,495.6L-360.3,495.6C-360.3,495.5-360.3,495.5-360.3,495.6
		c-0.5-0.1-0.7-0.4-0.7-0.8c0,0,0-0.1,0.1-0.1c0.8,0,1.5,0,2.1,0c0.1,0,0.2,0,0.2,0.1c0.4,0.6,0.6,1.4,0.5,2.3
		c0,0.4-0.2,0.6-0.5,0.8c-0.4,0.2-0.7,0.3-1.2,0.3c-0.1,0-0.1,0-0.1-0.1c-0.1-0.3-0.1-0.5-0.1-0.8c-0.1-0.5-0.4-0.8-0.7-1.1
		c-0.1,0-0.1,0-0.1,0.1v0.7c0,0.1-0.1,0.1-0.1,0.1h-0.6c-0.1,0-0.1,0-0.1-0.1c0-0.3,0-0.9,0.2-1.1c0.2-0.1,0.3-0.3,0.4-0.5h0.1
		C-360.9,495.5-360.6,495.6-360.3,495.6L-360.3,495.6z"/>
	<path id="XMLID_48_" class="st1" d="M-361.6,495.5c0-0.2,0.1-0.4,0.1-0.6c0-0.1,0.1-0.1,0.2-0.1c0.1,0,0.1,0.1,0.1,0.3
		c0,0.1,0,0.1-0.1,0.2C-361.3,495.4-361.4,495.5-361.6,495.5C-361.5,495.6-361.6,495.5-361.6,495.5L-361.6,495.5z"/>
	<path id="XMLID_47_" class="st1" d="M-361.8,495.5l-0.9,0.6c-0.1,0-0.1,0-0.2,0l-0.2-0.2v-0.1c0.4-0.3,0.8-0.5,1.2-0.6h0.1
		C-361.6,495.2-361.7,495.3-361.8,495.5L-361.8,495.5L-361.8,495.5z"/>
	<path id="XMLID_46_" class="st1" d="M-362.2,497c-0.2-0.1-0.4-0.1-0.5-0.4c-0.1-0.2,0-0.3,0.1-0.4c0.2-0.2,0.5-0.4,0.7-0.6h0.1
		c0,0,0,0,0,0.1c-0.1,0.4-0.1,0.8-0.1,1.1v0.1C-362,497-362.1,497-362.2,497L-362.2,497z"/>
	<path id="XMLID_45_" class="st1" d="M-362.6,496.9c0.3,0.1,0.6,0.2,0.9,0.3c0.2,0,0.4,0,0.5,0.1c0.1,0,0.2,0.1,0.2,0.2
		c0,0.2,0,0.4,0,0.7c0,0.1-0.1,0.2-0.2,0.1c-0.7-0.3-1.4-0.6-1.9-1.1c-0.1-0.1-0.1-0.1-0.2-0.2c0-0.3-0.2-0.4-0.5-0.5
		c-0.1,0-0.1-0.2-0.1-0.2c0.3-0.3,0.5-0.3,0.7,0C-362.8,496.4-362.9,496.8-362.6,496.9L-362.6,496.9z"/>
	<path id="XMLID_44_" class="st1" d="M-364.1,497.3l-0.2,0.1h-0.1c-0.1-0.1-0.2-0.3-0.1-0.4c0.2-0.2,0.4-0.4,0.7-0.4
		c0.4-0.1,0.5,0.5,0.5,0.8c0,0.1,0,0.1-0.1,0.2c-0.2,0-0.5,0-0.7-0.1c0,0-0.1,0-0.1-0.1L-364.1,497.3
		C-364,497.2-364.1,497.2-364.1,497.3L-364.1,497.3z"/>
	<path id="XMLID_43_" class="st1" d="M-360.2,498.4l-0.3,0.1c-0.1,0.1-0.2,0-0.2-0.1c0-0.6,0-1.2,0-1.8c0,0,0.1-0.1,0.1,0
		c0.4,0.2,0.5,1,0.6,1.5C-360.1,498.2-360.1,498.3-360.2,498.4L-360.2,498.4z"/>
	<path id="XMLID_42_" class="st1" d="M-362.3,497.9l1.1,0.6c0.1,0,0.1,0.1,0,0.2c-0.1,0.2-0.3,0.3-0.4,0.4h-0.1
		C-362,498.7-362.2,498.3-362.3,497.9C-362.4,497.9-362.3,497.9-362.3,497.9L-362.3,497.9z"/>
	<path id="XMLID_41_" class="st1" d="M-367.4,499.1c0.1,0.1,0.1,0.2,0,0.4c0,0,0,0.1,0,0.2c0,0.2,0.1,0.3,0.2,0.5
		c0,0.1,0,0.1-0.1,0.2l-0.3,0.1h-0.1c-0.1-0.1-0.1-0.3,0-0.4c0.2-0.3,0.1-0.6-0.1-0.9c0-0.1-0.1-0.1-0.2,0c-0.3,0.2-0.6,0.3-1,0.2
		c-0.4-0.1-0.8-0.2-1.2-0.2c-0.2,0-0.2-0.1,0-0.1c0.5-0.2,1-0.3,1.5-0.4c0.3-0.1,0.5,0.1,0.8,0.3h0.1c0.1-0.2,0.1-0.5,0.3-0.5
		c0.1,0,0.2,0,0.2,0.1c0,0.2,0.1,0.4,0.3,0.5c0.1,0.1,0,0.2-0.1,0.3c-0.1,0-0.1,0-0.2,0C-367.4,499-367.5,499-367.4,499.1
		L-367.4,499.1z"/>
	<path id="XMLID_40_" class="st1" d="M-362.3,498.6c-0.7,0-1.3,0-2,0c-0.1,0-0.2,0.1-0.3,0.1c-0.1,0-0.1,0-0.2-0.1
		c-0.1-0.3,0.1-0.4,0.3-0.4c0.7-0.1,1.3-0.1,1.8-0.1h0.1L-362.3,498.6C-362.2,498.6-362.3,498.6-362.3,498.6L-362.3,498.6z"/>
	<path id="XMLID_39_" class="st1" d="M-361,499.4L-361,499.4C-361,499.5-361,499.5-361,499.4c0.7-0.1,1.3-0.3,1.8-0.6
		c0.1,0,0.2,0,0.2,0l0.7,0.3v0.1c-0.4,0.3-0.9,0.7-1.3,0.9c-0.1,0.1-0.2,0.1-0.3,0c-0.3-0.2-0.3,0.3-0.6,0.3
		c-0.5-0.1-1.1-0.2-1.6-0.3c-0.1,0-0.1-0.1,0-0.1c0.2-0.3,0.5-0.5,0.8-0.7c0.1-0.1,0.2-0.2,0.2-0.3c0,0,0-0.1,0.1-0.1l1-0.4l0,0
		c0.2-0.1,0.4,0,0.5,0.1c0.1,0.1,0.1,0.2-0.1,0.3C-360.1,499.1-360.5,499.2-361,499.4L-361,499.4L-361,499.4z"/>
	<path id="XMLID_38_" class="st1" d="M-358.2,499c-0.2,0-0.6-0.2-0.7-0.4c-0.1,0-0.1-0.1,0-0.1c1.8,0,3.6-0.1,5.3-0.1
		c0.6,0,1.2,0,1.7,0c0,0,0.1,0,0.1,0.1v0.4c0,0,0,0.1-0.1,0.1C-354,499-356.1,499-358.2,499L-358.2,499z"/>
	<path id="XMLID_175_" class="st1" d="M-365.5,499C-365.4,499-365.4,499-365.5,499h-1.4c0,0-0.1,0-0.1-0.1v-0.3c0,0,0-0.1,0.1-0.1
		h1.8c0.1,0,0.1,0,0.1,0.1c-0.1,0.3,0.3,0.6,0.5,0.3c0.1-0.1,0.1-0.1,0.2-0.2h0.1l1.9,0.1c0.1,0,0.2,0,0.2,0.1l0.1,0.1
		c0.1,0.1,0,0.1,0,0.1c-0.6,0-1.3-0.1-2-0.1c-0.2,0-0.2,0.1-0.1,0.2c0.4,0.3,0.4,1.4,0.2,1.8c0,0.2-0.1,0.3-0.1,0.5
		c0,0.5,0.1,0.9,0.1,1.4c0,0.4-0.3,0.8-0.7,0.8c-0.3,0-0.6,0-0.9,0c-0.1,0-0.1,0-0.1-0.1c-0.1-0.2-0.3-0.4-0.3-0.7
		c0-0.6,0.1-1.1,0.2-1.6c0-0.1,0-0.3,0-0.4c-0.1-0.4-0.1-0.7-0.1-1.1C-365.8,499.5-365.6,499.3-365.5,499 M-364.4,500.2l0.1,0.7
		c0,0.1,0.1,0.2,0.2,0.1c0.1,0,0.1-0.1,0.2-0.2c0.1-0.5,0.1-1.3-0.3-1.6h-0.1c-0.2,0-0.5,0-0.7,0c-0.1,0-0.2,0-0.3,0.1
		c-0.3,0.4-0.3,0.9-0.3,1.4c0,0.2,0.1,0.3,0.2,0.4c0.1,0.1,0.2,0,0.2-0.1v-0.3c0-0.1,0.1-0.2,0.2-0.2h0.6l0,0l0,0l0,0h-0.6l0,0l0,0
		c0,0,0-0.1,0.1-0.1L-364.4,500.2C-364.4,500.1-364.4,500.1-364.4,500.2 M-364.8,502.4c0.1-0.1,0.2-0.1,0.2,0l0.4,0.5
		c0.2,0.2,0.2,0.2,0.2-0.1c0-0.5,0-1-0.2-1.5c0-0.1-0.1-0.2-0.2-0.2c-0.3,0-0.6-0.1-0.9,0c-0.2,0-0.3,0.1-0.3,0.3
		c-0.1,0.5-0.1,1.1-0.1,1.6c0,0.1,0.1,0.2,0.2,0.1C-365.2,502.9-365,502.7-364.8,502.4 M-364.9,503.1c0.1,0,0.2,0.1,0.3,0
		c0.1,0,0.1-0.1,0.1-0.2C-364.7,502.7-364.9,502.8-364.9,503.1C-365,503-365,503.1-364.9,503.1L-364.9,503.1z"/>
	<path id="XMLID_33_" class="st1" d="M-363,502.3L-363,502.3C-362.9,502.3-362.9,502.3-363,502.3c0.2-0.1,0.3-0.1,0.5-0.1
		c0.1,0,0.1,0,0.1,0.1c0.3,0.5,0.1,1.4-0.1,2c-0.1,0.4-0.2,0.9-0.2,1.3c0,0.3,0,0.7,0,1c0,0.1-0.1,0.2-0.2,0.2c-0.2,0-0.4-0.1-0.6,0
		c-0.4,0.1-0.6,0.2-1,0c-0.1,0,0-0.1,0-0.1l0.9-0.5l0.1-0.1l-0.1-3.8v-0.1c0.4-0.6,0.8-1.1,1.2-1.5c0.1-0.1,0.2-0.1,0.4-0.1
		c0.3,0.1,0.7,0.2,1,0.2c0.2,0,0.3,0,0.4,0c0.2-0.1,0.3-0.2,0.5-0.2c0.3,0,0.8-0.4,1.1-0.6c0.1-0.1,0.1,0,0.1,0.1
		c-0.1,0.4-0.4,0.6-0.7,0.8c-0.9,0.4-1.7,0.7-2.6,1C-362.2,501.8-362.6,502-363,502.3C-363,502.2-363,502.3-363,502.3L-363,502.3z"
		/>
	<path id="XMLID_32_" class="st1" d="M-359.2,502.4c0.1-0.1,0.2-0.2,0.3-0.3l0.1-0.1c0.2,0,0.5,0,0.7,0c0.9,0.1,1.8,0.2,2.6,0.3
		c0.2,0,0.4,0,0.5,0c0,0,0.1,0,0.1,0.1c0.1,0.2,0.1,0.3,0.1,0.5c-0.1,0.3-0.1,0.6-0.1,0.9c0,0.2-0.1,0.3-0.2,0.4c0,0-0.1,0-0.1,0.1
		c-0.1,0.1-0.2,0-0.2-0.1c0-0.3-0.1-0.6-0.2-0.9c-0.2-0.4-0.5-0.4-0.9-0.4c-0.9,0.1-1.9,0.2-2.9,0.4c-0.1,0-0.2,0-0.2-0.1
		c-0.3-0.6-0.6-1.1-0.8-1.6c0-0.1,0-0.2,0.1-0.2c0.4-0.3,0.9-0.5,1.3-0.7h0.1v0.1C-359,501.3-359.1,501.9-359.2,502.4
		C-359.3,502.4-359.3,502.4-359.2,502.4L-359.2,502.4z"/>
	<path id="XMLID_31_" class="st1" d="M-365.2,501.4c0.2-0.1,0.5-0.1,0.8-0.1h0.1c0.3,0.3-0.2,0.6-0.4,0.8h-0.1
		c-0.1-0.1-0.3-0.2-0.4-0.3C-365.4,501.7-365.4,501.4-365.2,501.4L-365.2,501.4z"/>
	<path id="XMLID_30_" class="st1" d="M-364.2,502l0.2,0.8c0,0.1-0.1,0.1-0.1,0.1l-0.5-0.6v-0.1l0.3-0.3
		C-364.3,501.9-364.2,501.9-364.2,502L-364.2,502z"/>
	<path id="XMLID_29_" class="st1" d="M-365.4,502.1l0.1-0.1c0,0,0.1-0.1,0.1,0l0.3,0.3v0.1l-0.4,0.5c0,0.1-0.1,0-0.1-0.1V502.1
		C-365.5,502.1-365.5,502.1-365.4,502.1L-365.4,502.1z"/>
	<path id="XMLID_165_" class="st1" d="M-361,512.6h-0.6c-3.2-0.3-5.9-1.5-8.3-3.5c-0.9-0.8-1.8-1.8-2.6-2.8
		c-0.1-0.1-0.1-0.2-0.2-0.3v-0.1c0.5-0.2,0.9-0.6,1.2-1v-0.1c-0.1-0.1-0.2-0.2-0.3-0.3c-0.3-0.4-0.2-1,0.4-1.1
		c0.6-0.1,0.6,0.6,0.6,1c0,0.1,0,0.2,0.1,0.1c0.5-0.1,0.9-0.3,1.3-0.6c0.1-0.1,0.1,0,0.2,0c0.5,0.8,1.1,1.5,1.7,2.1
		c1.7,1.6,3.8,2.4,6.1,2.5c0.7,0,1.4,0,2.1-0.2c1.7-0.3,3.2-1.1,4.5-2.2c0.8-0.7,1.5-1.5,2-2.4c0,0,0.1-0.1,0.1,0
		c0.4,0.3,0.9,0.6,1.4,0.7c0.2,0,0.2,0,0.2-0.2c-0.1-0.4,0.1-0.8,0.5-0.9c0.2-0.1,0.4,0,0.5,0.1c0.4,0.5,0,1.1-0.5,1.3
		c-0.1,0-0.1,0.1,0,0.1l1.2,1.2v0.1c-0.5,0.7-1.1,1.4-1.6,2c-2.1,2.4-4.8,3.8-7.9,4.2c-0.2,0-0.6,0.1-1,0.1
		C-360.4,512.5-360.7,512.5-361,512.6 M-350.3,503.9c0-0.1,0-0.2-0.1-0.3c0,0-0.1,0-0.2,0c-0.1,0-0.1,0-0.1,0.1
		c-0.1,0.2-0.2,0.4-0.1,0.6c0,0.1,0.1,0.1,0.2,0.1C-350.4,504.3-350.3,504.1-350.3,503.9 M-371.3,504.4c0.1,0,0.2-0.2,0.2-0.4
		c-0.1-0.2-0.2-0.3-0.4-0.3c-0.1,0-0.2,0.2-0.2,0.4C-371.6,504.3-371.5,504.4-371.3,504.4 M-367,510.7c1.1,0.6,2.4,1,3.9,1.3
		c0.6,0.1,1.3,0.2,2,0.2c0.8,0,1.5-0.1,2-0.1c2-0.2,3.7-0.9,5.3-2c1.5-1,2.8-2.4,3.9-3.9v-0.1c-0.4-0.4-0.8-0.8-1.1-1.2
		c-0.1-0.1-0.1-0.1-0.2-0.1c-0.5-0.1-0.9-0.3-1.4-0.5c-0.1,0-0.1,0-0.2,0c-2,2.9-5.1,4.6-8.6,4.6c-2.3,0-4.5-0.9-6.3-2.4
		c-0.7-0.6-1.2-1.3-1.8-2c0,0-0.1-0.1-0.1,0c-0.4,0.3-0.9,0.4-1.4,0.4c-0.1,0-0.3,0-0.4,0.1c-0.3,0.4-0.6,0.7-1,0.9
		c0,0-0.1,0.1,0,0.1C-370.8,508.1-369.1,509.6-367,510.7L-367,510.7z"/>
	<path id="XMLID_22_" class="st1" d="M-365.6,503.8C-365.6,503.8-365.5,503.8-365.6,503.8h1.1c0.3,0,0.6,0,0.6,0.1l0,0
		c0,0-0.3,0.1-0.6,0.1h-1l0,0v-0.2H-365.6z"/>
	<path id="XMLID_21_" class="st1" d="M-352.9,506.8c0.1,0,0.1,0,0.2-0.1h0.1c0.2,0.1,0.3,0.3,0.3,0.5c0,0.1,0,0.1-0.1,0.1h-0.1
		c-0.1,0-0.1,0-0.1-0.1v-0.3l0,0l0,0l0,0c0,0.1-0.1,0.2-0.2,0.2h-0.1c-0.4-0.3-0.1-0.8,0.3-0.9c0.1,0,0.1-0.1,0-0.1
		c-0.1,0-0.1-0.1-0.2-0.1c-0.1-0.1-0.1-0.1,0-0.1h0.4c0,0,0.1,0,0,0.1v0.1v0.1l1,0.8c0,0,0,0,0,0.1h-0.1c-0.1,0-0.1,0-0.2-0.1
		c-0.3-0.2-0.5-0.4-0.8-0.5C-352.7,506.5-352.9,506.5-352.9,506.8C-353,506.8-353,506.8-352.9,506.8L-352.9,506.8z"/>
	<path id="XMLID_158_" class="st1" d="M-369.2,506.6c-0.1-0.1-0.2-0.3-0.3-0.4c0-0.1-0.1-0.1-0.1-0.2c0,0,0,0,0.1-0.1h0.1l1,1h0.1
		l0,0c0.1,0,0.1,0,0.1,0.1v0.4c0,0,0,0.1,0,0c-0.1-0.1-0.2,0-0.3,0c-0.3,0.3-0.5,0.6-0.8,0.9c0,0-0.1,0.1-0.1,0l0,0c0,0,0,0,0-0.1
		c0.2-0.3,0.5-0.7,0.8-0.9c0.1-0.1,0.1-0.2,0-0.3c0-0.1-0.1-0.1-0.1-0.1c-0.1-0.1-0.1-0.1-0.2,0c-0.3,0.3-0.6,0.6-0.9,1
		c-0.1,0.1-0.1,0.1-0.1,0c0.1-0.3,0.1-0.7,0-1.1c-0.1-0.2,0-0.3,0.3-0.3L-369.2,506.6C-369.2,506.7-369.2,506.7-369.2,506.6
		 M-369.7,506.9C-369.7,506.9-369.8,506.9-369.7,506.9c-0.1,0.2-0.1,0.3-0.1,0.4s0.1,0.1,0.1,0c0.1-0.1,0.2-0.2,0.2-0.3v-0.1H-369.7
		L-369.7,506.9z"/>
	<path id="XMLID_154_" class="st1" d="M-355.6,508.8C-355.6,508.7-355.6,508.7-355.6,508.8c-0.3,0-0.5,0.2-0.8,0.3c0,0,0,0,0,0.1
		l0.5,1.2c0.1,0.1,0,0.1-0.1,0.1c-0.1,0-0.1-0.1-0.2-0.2c-0.2-0.3-0.3-0.7-0.5-1c0,0,0-0.1-0.1-0.1l-0.2-0.1c0,0-0.1-0.1,0-0.1
		l0.1-0.1v-0.1c-0.1-0.4,0-0.7,0.4-0.8c0.2,0,0.4,0,0.8,0l0,0l0,0l0,0c-0.3,0-0.9,0-0.9,0.5c0,0.1,0.1,0.1,0.2,0.1
		c0.9-0.4,1.7-1,2.6-1.7c0,0,0,0,0-0.1v-0.1v-0.1h0.3h0.1v0.1c0,0.1,0,0.1,0,0.2l0.9,0.9c0.1,0.1,0.1,0.1-0.1,0.1
		c-0.1,0-0.1,0-0.2-0.1c-0.2-0.2-0.5-0.5-0.7-0.7c-0.1-0.1-0.3-0.1-0.4,0l-1.3,0.9c-0.1,0.1-0.1,0.1,0,0.2c0.2,0.3,0.4,0.7,0.6,1
		c0.2,0.2,0.1,0.3-0.1,0.1c-0.2-0.1-0.4-0.2-0.7-0.1c-0.2,0-0.3,0-0.4-0.1V509L-355.6,508.8 M-355.1,509.3l-0.2-0.3
		c0-0.1-0.1-0.1-0.2,0l-0.1,0.2c0,0.1,0,0.1,0.1,0.2C-355.3,509.3-355.2,509.4-355.1,509.3C-355,509.3-355,509.3-355.1,509.3
		L-355.1,509.3z"/>
	<path id="XMLID_151_" class="st1" d="M-368.4,508.2c-0.1,0-0.1,0-0.1,0.1c0.1,0.3,0.1,0.7,0.1,0.9c0,0.3,0,0.3-0.1,0
		c-0.1-0.3-0.2-0.5-0.2-0.8c0-0.1,0-0.1,0-0.2c0.1-0.1,0.2-0.3,0.3-0.4c0-0.1,0.1-0.2,0.2-0.2c0.3-0.2,0.6,0.2,0.4,0.5
		c-0.1,0.1-0.2,0.2-0.4,0.1C-368.3,508.3-368.3,508.3-368.4,508.2C-368.3,508.2-368.4,508.2-368.4,508.2 M-368,507.9
		c0,0-0.1-0.1-0.1,0c-0.1,0-0.1,0.1-0.1,0.1s0.1,0.1,0.1,0C-368,508-368,508-368,507.9L-368,507.9z"/>
	<path id="XMLID_13_" class="st1" d="M-353.8,508.1c0,0.2-0.2,0.4-0.4,0.4c-0.1,0-0.2,0-0.2-0.1c-0.1-0.1-0.1-0.2,0-0.3
		c0-0.1,0.2-0.2,0.3-0.1c0,0,0,0,0.1,0c0,0,0.1,0,0.1-0.1s0-0.1,0.1-0.1c0,0,0.1-0.1,0.1,0c0.5,0,0.8,0.5,0.5,0.9
		c-0.4,0.6-1.2,0.1-1.5-0.2c-0.1-0.1-0.1-0.1,0-0.1c0.1,0,0.2,0.1,0.3,0.1c0.4,0.2,0.8,0.2,1-0.2c0-0.1,0-0.2,0-0.2l-0.1-0.1
		C-353.8,508-353.8,508-353.8,508.1L-353.8,508.1z"/>
	<path id="XMLID_147_" class="st1" d="M-362.8,510.2l0.1,0.1v0.1c0,0.1-0.1,0.2-0.2,0.2h-0.1c-0.1-0.1-0.2-0.1-0.4-0.1h-0.1
		c-0.1-0.1-0.1-0.1-0.1-0.2s0.1-0.2,0.2-0.2c0.1-0.1,0-0.2,0-0.2l-1-0.3c-0.1,0-0.1,0-0.2,0.1l-0.1,0.2c0,0.1,0,0.1,0.1,0.1
		c0.2-0.1,0.6-0.2,0.7,0.1v0.1c-0.2,0.3-0.3,0.6-0.4,1l0,0l0,0c0,0-0.1,0-0.1-0.1c0-0.3,0.1-0.6,0.1-0.9c0-0.1,0-0.1-0.1-0.1
		l-0.5,0.3h-0.1c-0.1-0.1-0.1-0.2-0.1-0.3c0.1-0.2,0.1-0.4,0.2-0.6c0-0.1,0-0.1-0.1-0.1c-0.6,0.1-0.8,0.4-0.9,0.9
		c0,0.1,0,0.1,0.1,0.1c0.1,0,0.1-0.1,0.1-0.1c0-0.1,0.1-0.1,0.2,0c0.3,0.4-0.5,0.6-0.5,0c-0.1-0.4,0.1-0.8,0.4-1.1v-0.1l-0.3-0.2
		h-0.1l-0.6,1.3c0,0.1-0.1,0.1-0.1,0c0,0,0,0,0-0.1s0-0.1,0-0.2c0.1-0.3,0.3-0.6,0.4-0.9c0.1-0.1,0-0.3-0.1-0.3
		c-0.1-0.1-0.2,0-0.2,0.1l-0.6,1.1c0,0,0,0-0.1,0l0,0c0-0.1,0-0.1,0-0.2c0.1-0.2,0.2-0.4,0.3-0.6V509c0-0.1,0-0.2-0.1-0.1
		c-0.1,0-0.2,0.1-0.3,0.2h-0.1c-0.5,0-0.6-0.5-0.2-0.8c0.1-0.1,0.4-0.1,0.5,0c0.1,0.1,0.3,0.2,0.5,0.2c0,0,0,0,0.1,0l0,0l0,0
		c-0.3-0.2-0.6-0.4-0.9-0.6c0,0,0,0,0-0.1v-0.1l0,0c0.4,0.3,0.9,0.5,1.3,0.8c0,0,0.1,0.1,0.2,0.1h0.1c0,0,0-0.1,0.1-0.1
		c0,0,0-0.1,0.1-0.1l0,0c0,0,0,0,0,0.1s0.1,0.2,0.2,0.3c0.7,0.3,1.5,0.5,2.2,0.7c0.1,0,0.2,0.1,0.2,0.1c0,0.1,0.1,0.1,0.2,0
		c0.1-0.1,0.2-0.1,0.3,0.1c0.1,0.1,0.1,0.1,0.2,0c0-0.1,0-0.1,0-0.2c0,0,0-0.1,0.1,0c0.1,0.1,0.2,0.2,0.3,0.4v0.1
		c-0.1,0-0.2,0.1-0.2,0.2c0,0.4-0.1,0.8-0.2,1.2c0,0,0,0.1-0.1,0.1l0,0l0,0c0-0.4,0-0.7,0-1.1C-362.5,510.2-362.6,510.1-362.8,510.2
		C-362.8,510.1-362.8,510.1-362.8,510.2 M-367.6,508.8c0.1,0,0.2,0,0.3,0.1h0.1c0,0,0,0,0-0.1c-0.1-0.2-0.2-0.2-0.3-0.2
		C-367.6,508.6-367.7,508.7-367.6,508.8C-367.7,508.7-367.7,508.8-367.6,508.8L-367.6,508.8z"/>
	<path id="XMLID_139_" class="st1" d="M-358.5,509.8l-0.7,0.1c-0.1,0-0.1,0.1-0.1,0.2l0.2,1.3l0,0l0,0c0,0-0.1,0-0.1-0.1
		c-0.2-0.4-0.2-0.8-0.3-1.2c0-0.1-0.1-0.2-0.2-0.2c-0.2,0-0.4,0-0.7,0.1c0,0-0.1,0-0.1,0.1v0.3c0,0.1,0,0.1,0.1,0
		c0.1,0,0.1-0.1,0.2-0.2c0-0.1,0.1-0.1,0.2,0c0.3,0.3,0.4,0.9-0.1,1c-0.4,0.1-0.7,0-0.8-0.4c-0.1-0.3-0.2-0.5-0.2-0.8
		c0,0,0-0.1-0.1-0.1c-0.1,0-0.1-0.1-0.1-0.1s0-0.1,0.1-0.1l1.6-0.1c0.1,0,0.1-0.1,0.1-0.1v-0.1c0,0,0-0.1,0.1-0.1l0,0l0.1,0.1h0.1
		c0.5-0.1,1-0.2,1.5-0.3c0.1,0,0.1,0,0.2,0l0,0c0.1,0,0,0.1,0,0.1c-0.1,0-0.1,0-0.2,0c-0.2,0-0.2,0.1,0,0.2s0.3,0.2,0.4,0.4
		c0.1,0.2-0.1,0.4-0.3,0.3c-0.2,0-0.2,0-0.1,0.2c0,0.1,0.1,0.2,0.1,0.2c0,0.2,0,0.2-0.1,0.1c-0.1-0.1-0.3-0.3-0.5-0.3
		c-0.1,0-0.3-0.1-0.4-0.2C-358.7,510-358.7,509.9-358.5,509.8C-358.7,510.1-358.6,510-358.5,509.8
		C-358.4,509.8-358.4,509.8-358.5,509.8 M-358,510.3C-358,510.3-357.9,510.3-358,510.3c0.1,0,0.2-0.1,0.3-0.1c0,0,0,0,0-0.1
		c-0.1-0.1-0.2-0.1-0.3-0.1c0,0-0.1,0,0,0.1V510.3 M-358.2,510.6C-358.2,510.6-358.1,510.5-358.2,510.6v-0.4c0-0.1-0.1-0.1-0.1,0
		l-0.2,0.2v0.1L-358.2,510.6 M-360.6,511.1c0.2,0.2,0.5,0,0.6-0.2c0-0.1,0-0.1-0.1-0.1c-0.1,0-0.2,0-0.2,0.1
		c-0.1,0.1-0.3,0.1-0.3-0.1c-0.1-0.2-0.1-0.4-0.1-0.6c0,0,0-0.1-0.1-0.1h-0.1c-0.1,0-0.1,0-0.1,0.1
		C-361,510.6-360.9,510.9-360.6,511.1L-360.6,511.1z"/>
</g>
</svg>
