<?xml version="1.0" encoding="utf-8"?>
<!-- Generator: Adobe Illustrator 19.0.0, SVG Export Plug-In . SVG Version: 6.00 Build 0)  -->
<svg version="1.1" id="Layer_1" xmlns="http://www.w3.org/2000/svg" xmlns:xlink="http://www.w3.org/1999/xlink" x="0px" y="0px"
	 viewBox="-430 487 138 27" style="enable-background:new -430 487 138 27;" xml:space="preserve">
<style type="text/css">
	.st0{fill:#D00C09;}
</style>
<g>
	<g>
		<path d="M-390.5,496.7v10.9l-0.6-0.7c0-0.1-0.1-0.2-0.1-0.3c-0.1-0.1-0.2-0.3-0.3-0.6c-0.2-0.3-0.4-0.6-0.7-1
			c-0.3-0.4-0.5-0.6-0.8-0.9c-0.9-0.8-2.1-1.3-3.5-1.4l-1.4-1.9c2.1-1.4,4.2-2.5,6.4-3.3v-0.8h-7.1l-1-1h10.3l1,1H-390.5
			L-390.5,496.7z M-391.5,499.1c-0.7,0.2-1.3,0.5-2,0.9s-1.4,0.8-2.2,1.3c1.9,0.8,3.3,2,4.2,3.6V499.1z"/>
		<path d="M-386.6,496.7v10.8l-1-1v-7.7c0-0.3-0.1-0.6-0.2-0.9c-0.1-0.3-0.3-0.5-0.5-0.7s-0.5-0.3-0.7-0.4c-0.3-0.1-0.6-0.2-0.9-0.2
			l-1-1h1.2c0.6,0,1.1,0.1,1.5,0.4c0.3,0.3,0.6,0.7,0.8,1.4c0-0.2,0-0.5,0-0.8s0-0.7-0.1-1.1c0-0.4,0-0.8-0.1-1.1c0-0.3,0-0.6,0-0.8
			l0.4,0.3c0.1,0.7,0.3,1.3,0.6,1.6h0.7l1,1h-1.7V496.7z"/>
		<path d="M-379.7,498.4c0,0.6-0.2,1.2-0.6,1.7s-0.9,0.7-1.6,0.7s-1.2-0.2-1.7-0.7s-0.7-1.1-0.7-1.7c0-0.3,0.1-0.6,0.2-0.9
			s0.3-0.5,0.5-0.8c0.5-0.5,1-0.8,1.6-0.8c0.7,0,1.2,0.3,1.7,0.8C-379.9,497.1-379.7,497.7-379.7,498.4z M-378.9,507.6
			c-0.4-0.4-0.8-0.8-1.2-1.2c-0.4-0.4-0.9-0.7-1.4-1.1c-0.5-0.3-0.9-0.7-1.4-1c-0.4-0.3-0.9-0.6-1.2-0.8v-2.3
			c0.8,0.6,1.7,1.5,2.7,2.6s1.8,2.1,2.4,2.9v0.9H-378.9z M-380.7,497.8c0-0.6-0.2-0.9-0.7-0.9s-0.9,0.2-1.3,0.6
			c-0.2,0.2-0.3,0.4-0.4,0.7c-0.1,0.2-0.1,0.5-0.1,0.7c0,0.5,0.2,0.8,0.6,0.8c0.5,0,1-0.2,1.4-0.6
			C-380.9,498.8-380.7,498.3-380.7,497.8z"/>
		<path d="M-369.3,496.7v11l-1.1-1v-5.9c0-0.4-0.1-0.7-0.4-1s-0.6-0.4-1-0.4c-0.6,0-0.9,0.4-0.9,1.1c0,0.2,0,0.4,0.1,0.6l-0.4,0.2
			c-0.1-0.6-0.4-1-0.8-1.4c-0.4-0.4-1-0.5-1.6-0.5c-0.3,0-0.5,0.1-0.7,0.2c-0.2,0.1-0.4,0.2-0.6,0.4s-0.3,0.4-0.4,0.6
			s-0.2,0.5-0.2,0.8c0,0.8,0.5,1.3,1.5,1.5c-0.2-0.3-0.3-0.6-0.3-0.9c0-0.3,0.1-0.6,0.4-0.8c0.2-0.2,0.5-0.3,0.8-0.3
			c1,0.1,1.4,0.6,1.4,1.5c0,0.4-0.2,0.7-0.4,1c-0.3,0.3-0.7,0.4-1.2,0.4c-0.4,0-0.9-0.1-1.2-0.2s-0.7-0.3-1-0.6s-0.5-0.6-0.6-0.9
			c-0.1-0.4-0.2-0.8-0.2-1.2c0-0.7,0.2-1.4,0.6-2c0.4-0.7,1-1,1.7-1c0.9,0,1.7,0.5,2.4,1.4c0-0.3,0.1-0.6,0.4-0.9s0.6-0.4,0.9-0.4
			c0.9,0,1.5,0.6,1.9,1.7v-2.9h-8.5l-1.1-1h11.5l1.1,1h-2.1V496.7z"/>
		<path d="M-365.5,496.7v10.8l-1-1v-7.7c0-0.3-0.1-0.6-0.2-0.9c-0.1-0.3-0.3-0.5-0.5-0.7s-0.5-0.3-0.7-0.4c-0.3-0.1-0.6-0.2-0.9-0.2
			l-1-1h1.2c0.6,0,1.1,0.1,1.5,0.4c0.3,0.3,0.6,0.7,0.8,1.4c0-0.2,0-0.5,0-0.8s0-0.7-0.1-1.1c0-0.4,0-0.8-0.1-1.1c0-0.3,0-0.6,0-0.8
			l0.4,0.3c0.1,0.7,0.3,1.3,0.6,1.6h0.7l1,1h-1.7V496.7z"/>
		<path d="M-357.5,496.7c-0.8,0.2-1.5,0.5-2,0.9c-0.6,0.4-1.1,0.9-1.4,1.5c-0.4,0.6-0.6,1.2-0.8,1.9c-0.2,0.7-0.3,1.4-0.3,2.3
			c0,0.7,0.2,1.4,0.6,2c0.7,0.9,1.3,1.3,1.9,1.1c-0.2-0.1-0.4-0.3-0.5-0.5c-0.1-0.2-0.2-0.4-0.2-0.6c0-0.3,0.1-0.6,0.4-0.8
			c0.3-0.2,0.6-0.3,0.9-0.3s0.6,0.1,0.9,0.4c0.2,0.3,0.4,0.6,0.4,1.1c0,0.2,0,0.5-0.1,0.7s-0.2,0.4-0.4,0.5
			c-0.2,0.2-0.4,0.3-0.6,0.4s-0.5,0.1-0.7,0.1c-1.2,0-2.1-0.6-2.8-1.8c-0.5-1-0.8-2.1-0.8-3.4c0-1.8,0.7-3.6,2.2-5.3h-3.4l-1-1h6.9
			L-357.5,496.7z"/>
		<path d="M-355.7,496.7v4.8c0.4-0.4,0.8-0.8,1.2-1.1c0.4-0.4,0.9-0.7,1.3-1s0.9-0.5,1.3-0.8c0.4-0.2,0.8-0.4,1.1-0.5l1.7,1.3
			c-0.5,0.9-0.8,1.8-1.1,2.6s-0.4,1.6-0.4,2.4c0,0.8,0.1,1.8,0.4,3.2l-0.7-0.4c-0.2-1-0.4-1.8-0.5-2.6s-0.2-1.4-0.2-1.9
			c0-0.9,0.1-1.8,0.4-2.7c-0.9,0.4-1.8,0.9-2.5,1.6c-0.8,0.7-1.4,1.6-1.8,2.5l-1.4-1.5v-6.1h-1.1l-1.1-1h10.2l1,1h-7.8V496.7z"/>
		<path d="M-338.5,496.7v10.9l-1.1-1.1l0.1-6.7c0-0.4-0.2-1-0.7-1.6c-0.5-0.6-0.9-0.9-1.3-0.9c-0.3,0-0.5,0.1-0.8,0.3
			s-0.4,0.4-0.4,0.6c1.1,0.8,1.6,1.4,1.6,1.9c0,0.4-0.1,0.8-0.4,1.1c-0.2,0.3-0.6,0.5-1,0.6c-0.3,0-0.7-0.1-1-0.3
			c-0.3-0.2-0.5-0.5-0.6-0.9c-0.3,0.9-0.9,1.3-1.7,1.3c-0.4,0-0.7-0.2-0.9-0.5c-0.2-0.3-0.4-0.6-0.4-1c0-0.2,0-0.5,0.1-0.7
			c0.1-0.2,0.2-0.5,0.4-0.7c0.2-0.2,0.4-0.4,0.6-0.6s0.5-0.3,0.7-0.4c-0.5-0.9-1.1-1.3-1.7-1.3c-0.7,0-1.1,0-1.2,0l-1-1h2.2
			c0.5,0,1.1,0.2,1.5,0.6c0.5,0.4,0.8,0.9,0.9,1.5c0.6-1.4,1.5-2.1,2.6-2.1c0.4,0,0.9,0.4,1.5,1.1c0.6,0.7,0.9,1.2,1.1,1.7h0.1
			l-0.2-4.6l0.6,0.6c0.1,0.8,0.5,1.2,1.1,1.3l1,1h-1.7V496.7z"/>
		<path d="M-325.8,496.7c-0.8,0.2-1.5,0.5-2,0.9c-0.6,0.4-1.1,0.9-1.4,1.5c-0.4,0.6-0.6,1.2-0.8,1.9c-0.2,0.7-0.3,1.4-0.3,2.3
			c0,0.7,0.2,1.4,0.6,2c0.5,0.8,1,1.2,1.7,1.2h0.1c0.1,0,0.2,0,0.2-0.1c-0.2-0.1-0.4-0.3-0.5-0.5c-0.1-0.2-0.2-0.4-0.2-0.6
			s0-0.3,0.1-0.4s0.2-0.3,0.3-0.4c0.1-0.1,0.3-0.2,0.4-0.3c0.2-0.1,0.3-0.1,0.5-0.1c0.3,0,0.6,0.1,0.9,0.4c0.2,0.3,0.4,0.6,0.4,1.1
			c0,0.2,0,0.5-0.1,0.7s-0.2,0.4-0.4,0.5c-0.2,0.2-0.4,0.3-0.6,0.4s-0.5,0.1-0.7,0.1c-1.2,0-2.1-0.6-2.8-1.8c-0.5-1-0.8-2.1-0.8-3.4
			c0-1.1,0.2-2,0.6-2.9c0.4-0.9,0.9-1.7,1.6-2.4c0.3-0.3,0.7-0.5,1.1-0.7s0.8-0.3,1.3-0.4L-325.8,496.7z"/>
		<path d="M-316.4,496.7v10.8l-1.1-1.1l0.1-5.5c0-0.2,0-0.3-0.1-0.5s-0.2-0.4-0.3-0.6c-0.1-0.2-0.3-0.4-0.4-0.5s-0.3-0.3-0.4-0.4
			l-3.7,3.7l-1.5-0.5c0.7-0.7,1.1-1.2,1.1-1.6c0-0.7-0.2-1.1-0.6-1.1c-0.1,0-0.2,0-0.3,0.1c-0.1,0-0.3,0.1-0.4,0.1
			c-0.3,0.1-0.6,0.2-0.7,0.2c-0.2,0-0.4-0.1-0.6-0.3c-0.2-0.2-0.3-0.4-0.3-0.6c0-0.4,0.1-0.7,0.4-1.1c0.3-0.4,0.6-0.7,1.1-1
			c0.4-0.3,0.9-0.5,1.3-0.6c0.4-0.1,0.9-0.2,1.3-0.2c1.5,0,2.9,1.1,4.2,3.4l0,0c0-0.9-0.1-1.8-0.1-2.7c0-0.9-0.1-1.8-0.1-2.7
			l0.5,0.4c0.1,0.6,0.1,0.9,0.2,1.1c0.1,0.3,0.4,0.5,0.8,0.5c0.1,0,0.2,0,0.3,0l1,1h-1.7V496.7z M-319.4,497.8
			c-0.5-0.5-1-0.8-1.6-0.8c-1.1,0-2,0.5-2.4,1.4c0.6,0,1,0.2,1.2,0.6s0.3,0.8,0.3,1.4L-319.4,497.8z"/>
		<path d="M-312.6,496.7v10.8l-1-1v-7.7c0-0.3-0.1-0.6-0.2-0.9c-0.1-0.3-0.3-0.5-0.5-0.7s-0.5-0.3-0.7-0.4c-0.3-0.1-0.6-0.2-0.9-0.2
			l-1-1h1.2c0.6,0,1.1,0.1,1.5,0.4c0.3,0.3,0.6,0.7,0.8,1.4c0-0.2,0-0.5,0-0.8s0-0.7-0.1-1.1c0-0.4,0-0.8-0.1-1.1c0-0.3,0-0.6,0-0.8
			l0.4,0.3c0.1,0.7,0.3,1.3,0.6,1.6h0.7l1,1h-1.7V496.7z"/>
		<path d="M-297.9,498.9c0.3,0,0.6,0.1,0.8,0.2c0.2,0.1,0.4,0.3,0.6,0.5c0.2,0.2,0.3,0.4,0.4,0.7s0.1,0.5,0.1,0.8
			c0,0.6-0.1,1.1-0.3,1.6c-0.2,0.5-0.5,1-0.9,1.4c-0.2,0.2-0.5,0.5-0.7,0.7s-0.5,0.4-0.8,0.6c-0.3,0.2-0.5,0.3-0.8,0.5
			c-0.3,0.1-0.6,0.2-0.9,0.2c-0.2,0-0.5,0-0.7-0.1s-0.5-0.2-0.7-0.3c-0.2-0.1-0.4-0.3-0.6-0.5c-0.2-0.2-0.3-0.4-0.3-0.6V502
			c0-0.2-0.1-0.4-0.2-0.6c-0.1-0.2-0.2-0.4-0.3-0.6c-0.1-0.2-0.3-0.3-0.4-0.4c-0.2-0.1-0.4-0.2-0.6-0.2c-0.4,0-0.8,0.3-1.1,0.8
			c-0.6,0.9-1,1.5-1.4,1.9c-0.3,0.4-0.6,0.7-0.8,0.8c0,0-0.1,0-0.2,0.1c-0.1,0-0.2,0-0.3,0c-0.3,0-0.5-0.1-0.8-0.2
			c-0.2-0.2-0.5-0.4-0.7-0.6s-0.4-0.5-0.5-0.8c-0.2-0.3-0.3-0.5-0.4-0.8l0.7-0.6v0.1c0,0.1,0.1,0.3,0.1,0.4c0.1,0.1,0.1,0.3,0.2,0.4
			s0.2,0.2,0.3,0.3c0.1,0.1,0.2,0.1,0.3,0.1c0.1,0,0.3-0.1,0.5-0.3s0.4-0.4,0.6-0.7l0.8-1.1c0-0.5-0.1-0.9-0.2-1.1
			c-0.3-0.9-0.9-1.3-1.8-1.4c-0.1,0-0.2,0-0.3,0c-0.1,0-0.2,0-0.3,0c-0.2,0-0.3,0-0.4,0s-0.2,0-0.3,0c-0.4-0.1-0.8-0.2-1.1-0.4
			l-1.4-1.4h15.1c0.1-0.2,0.1-0.3,0.1-0.4c0-0.2-0.1-0.4-0.2-0.6c-0.1-0.1-0.3-0.3-0.5-0.4c-0.1,0-0.3-0.1-0.4-0.1s-0.3,0-0.5,0
			c-0.1,0-0.3,0-0.5,0s-0.3,0-0.5,0c-0.3,0-0.6,0-1,0s-0.8,0-1.2,0c-0.5,0-0.9-0.1-1.3-0.2c-0.3-0.1-0.7-0.4-1-0.6
			c-0.2-0.2-0.4-0.5-0.5-0.7c-0.1-0.3-0.2-0.5-0.2-0.8c0-0.4,0.1-0.8,0.3-1c0,0,0.1-0.1,0.2-0.1s0.1-0.1,0.2-0.1l0.1,0.4
			c-0.1,0.1-0.1,0.2-0.2,0.3c-0.1,0.1-0.1,0.2-0.1,0.3c0,0.2,0.1,0.5,0.3,0.7c0.2,0.2,0.4,0.3,0.8,0.5c0.3,0.1,0.6,0.1,0.9,0.1
			c0.4,0,0.9,0,1.4-0.1c0.5-0.1,1-0.1,1.4-0.1s0.8,0,1.1,0.1c0.3,0.1,0.6,0.2,0.9,0.3c0.5,0.3,0.8,0.7,1,1.1
			c0.2,0.4,0.3,0.9,0.3,1.5h0.8l1.2,1h-7.3v7.2c0,0.5,0.3,0.8,0.9,0.8c0.2,0,0.5-0.1,0.8-0.3c0.3-0.2,0.7-0.4,1-0.7s0.6-0.6,0.9-1
			s0.4-0.8,0.4-1.1h-0.3c-0.3,0-0.7-0.1-0.9-0.3c-0.3-0.2-0.4-0.5-0.4-0.9c0-0.4,0.1-0.7,0.4-1C-298.6,499-298.3,498.9-297.9,498.9z
			 M-302.7,496.7h-4.9l0.7,0.5c0.2,0.2,0.4,0.5,0.6,0.8c0.1,0.3,0.2,0.7,0.2,1.1v0.5c0,0,0,0,0.1-0.1l0.1-0.1
			c0.1-0.1,0.3-0.3,0.5-0.4c0.2-0.1,0.4-0.2,0.6-0.3c0.3,0,0.5,0.1,0.7,0.2s0.4,0.3,0.6,0.5s0.3,0.4,0.5,0.6
			c0.1,0.2,0.3,0.4,0.4,0.6v-3.9H-302.7z"/>
	</g>
	<g>
		<path id="XMLID_64_" class="st0" d="M-416.2,488.4h1.2c1.7,0.1,3.2,0.6,4.6,1.5c2.7,1.6,4.5,4.3,5,7.4c0.3,2.4,0,4.5-1.1,6.5
			c0,0,0,0-0.1,0l0,0v-0.1c0.5-0.9,0.8-1.8,0.9-2.7c0.1-0.7,0.2-1.4,0.2-2.4c0-0.7-0.1-1.4-0.2-2c-1-3.9-4-6.9-7.9-7.7
			c-1.4-0.3-2.8-0.3-4.2,0c-4.2,0.9-7.4,4.3-8.1,8.5c-0.3,2.3,0,4.4,1.1,6.5v0.1l0,0c0,0,0,0-0.1,0c-0.2-0.2-0.3-0.4-0.4-0.7
			c-0.5-1.3-0.8-2.4-0.9-3.3c-0.1-1.2,0-2.6,0.3-3.8c0.4-1.4,1-2.7,2-3.9c0.9-1,1.8-1.9,3-2.5c0.9-0.5,1.8-0.8,2.8-1.1
			C-417.4,488.5-416.8,488.5-416.2,488.4L-416.2,488.4z"/>
		<path id="XMLID_63_" class="st0" d="M-424.8,495.8c-0.7,2.1-0.7,4.2,0.1,6.4c0.2,0.5,0.4,0.9,0.6,1.4v0.1c0,0.1-0.1,0.1-0.1,0.1
			h-0.1c-0.1-0.2-0.2-0.4-0.3-0.6c-0.3-0.7-0.6-1.5-0.7-2.3c-0.2-0.9-0.2-1.8-0.1-2.7c0-0.6,0.1-1.1,0.2-1.6c1.1-4,4.1-6.8,8.2-7.4
			c1-0.2,2-0.2,2.9,0c2.8,0.5,5.1,1.9,6.6,4.1c0.9,1.3,1.5,2.7,1.7,4.3c0.3,2.1,0,4.1-1,6c0,0.1-0.1,0.1-0.2,0.1l0,0
			c-0.1,0-0.1-0.1-0.1-0.2c0.9-1.6,1.2-3.4,1-5.3c-0.2-1.9-0.8-3.6-2-5.1c-2.9-3.7-7.9-4.8-12.1-2.5
			C-422.4,491.6-424,493.5-424.8,495.8L-424.8,495.8z"/>
		<path id="XMLID_203_" class="st0" d="M-417.1,490.3c-0.2,0-0.4,0-0.6,0.1c-0.2,0-0.4-0.1-0.4-0.2c0-0.1,0-0.1,0.1-0.1h0.1h0.1
			c0.5,0,0.8-0.2,1.2,0.3v0.1h-0.3c-0.1,0-0.1,0,0,0.1c0.3,0.2,0.2,0.4,0,0.6v0.1l0.4,0.3c0,0,0,0,0,0.1l0,0l0,0
			c-0.3-0.2-0.6-0.3-0.9-0.3c-0.1,0-0.1,0-0.2-0.1l-0.1-0.1c-0.1-0.1,0-0.1,0-0.1c0.2,0,0.5-0.1,0.7-0.2c0,0,0,0,0-0.1l0,0
			c0-0.1-0.1-0.1-0.1,0c-0.2,0.1-0.3,0.2-0.5,0.1c0,0-0.1-0.1,0-0.1l0.1-0.2c0.1-0.1,0-0.1,0-0.1l-0.5,0.1c-0.1,0-0.1,0.1-0.1,0.2
			c0.1,0.3,0.1,0.5,0.2,0.8c0,0.2,0,0.2-0.1,0c-0.1-0.2-0.2-0.4-0.3-0.6c0-0.1-0.1-0.2-0.3-0.2l0,0c-0.1,0-0.2,0.1-0.2,0.2l0.2,0.6
			c0,0.2,0,0.2-0.1,0.1c-0.2-0.2-0.5-0.1-0.8-0.1c-0.2,0-0.2-0.1-0.1-0.2c0.1-0.1,0.2-0.2,0.2-0.3c0-0.1,0-0.1,0-0.1
			c-0.2,0.1-0.4,0.2-0.6,0.3v0.1l0.4,0.8l0,0l0,0h-0.1l-0.2-0.3c-0.1-0.1-0.3-0.1-0.3,0.1c-0.1,0.2-0.1,0.5-0.4,0.4
			c-0.2,0-0.2-0.1,0-0.2c0.1,0,0.1-0.1,0.1-0.2s0-0.2-0.1-0.1c-0.2,0.1-0.4,0.2-0.6,0.3c-0.2,0.3-0.2,0.5,0.2,0.7
			c0.1,0,0.1,0,0.1-0.1v-0.1c0,0,0-0.1,0.1-0.1s0.1,0,0.2,0c0,0,0.1,0,0.1,0.1c-0.1,0.4-0.5,0.4-0.8,0.2c-0.1-0.1-0.2-0.2-0.2-0.4
			c0-0.3,0.1-0.5,0.4-0.6c0.7-0.5,1.5-0.9,2.2-1.2c0.2-0.1,0.4-0.1,0.6-0.2c0,0,0.1,0,0.1-0.1l0,0c0-0.1,0-0.1,0.1-0.1h0.1h0.1
			H-417.1C-417,490.3-417,490.3-417.1,490.3 M-418.9,491.3c-0.1,0-0.1,0.1-0.2,0.1v0.1c0.1,0,0.2,0,0.3,0c0,0,0.1,0,0-0.1
			L-418.9,491.3C-418.8,491.3-418.9,491.3-418.9,491.3 M-420.1,491.7L-420.1,491.7C-420.1,491.6-420.1,491.6-420.1,491.7
			c-0.2-0.1-0.3,0-0.4,0.1c0,0,0,0,0,0.1l0,0c0,0,0,0,0.1,0C-420.3,491.8-420.2,491.8-420.1,491.7L-420.1,491.7L-420.1,491.7z"/>
		<path id="XMLID_198_" class="st0" d="M-411,491.9c0,0,0-0.1-0.1-0.1h-0.1c0,0.2-0.1,0.3-0.3,0.2c-0.1-0.1-0.2-0.1-0.4-0.2
			c0,0-0.1-0.1,0-0.1c0-0.1,0.1-0.1,0.2-0.2c0.1,0,0.1-0.1,0-0.1l-1-0.4h-0.1c-0.1,0-0.2,0.1-0.1,0.2l0.1,0.1c0.2,0,0.4,0,0.5,0
			s0.1,0.2,0,0.2c-0.2,0.1-0.3,0.3-0.3,0.5c0,0,0,0.1-0.1,0c0,0,0,0,0-0.1c0-0.2,0-0.3,0.1-0.5c0,0,0-0.1-0.1-0.1l-0.4,0.1
			c-0.1,0-0.2-0.1-0.2-0.2l0.1-0.4v-0.1l-0.1-0.1h-0.1c-0.2,0.2-0.2,0.6-0.3,0.9c0,0,0,0.1-0.1,0c0,0,0,0-0.1-0.1c0-0.1,0-0.1,0-0.2
			c0-0.2,0.1-0.3,0.1-0.5c0-0.2,0-0.3-0.2-0.3c-0.1,0-0.2,0-0.2,0.1l-0.1,0.7c0,0.1,0,0.1-0.1,0l0,0c0,0,0,0,0-0.1
			c0-0.2-0.1-0.2-0.3-0.2c-0.5,0.1-0.8-0.4-1-0.8V490c0.1,0,0.3,0,0.4,0c0.5,0,1.1,0.1,1.6,0.2h0.1c0,0,0.1,0,0.1-0.1h0.1
			c0.1,0.1,0.2,0.2,0.3,0.2c0.7,0.2,1.3,0.4,1.8,0.8c0.1,0.1,0.3,0.1,0.5,0h0.1l0.7,0.1c0,0,0.1,0,0.1,0.1l0,0l0,0
			c-0.1,0-0.2,0-0.4,0c-0.2,0-0.2,0.1-0.2,0.2v0.1c-0.1,0-0.2,0.1-0.3,0.2c-0.1,0.2-0.2,0.4-0.3,0.5h-0.1c-0.1,0-0.1-0.1,0-0.1
			C-411.2,492.3-411.1,492.1-411,491.9C-410.9,491.9-410.9,491.9-411,491.9 M-415.1,490.6c0-0.2-0.1-0.2-0.2-0.2s-0.1,0-0.1,0.1
			c0.2,0.4,0.4,0.5,0.7,0.4c0,0,0,0,0-0.1l0,0c0-0.1-0.1-0.1-0.1-0.1h-0.2C-415.1,490.7-415.1,490.7-415.1,490.6 M-414.6,490.5
			l0.2,0.4l0,0l0,0c0.1-0.1,0.1-0.2,0.1-0.3l0,0C-414.4,490.5-414.5,490.4-414.6,490.5L-414.6,490.5L-414.6,490.5 M-410.8,491.7
			c0,0,0.1-0.1,0-0.2c0-0.1-0.1-0.1-0.1-0.1s-0.1,0.1,0,0.2C-410.9,491.7-410.8,491.7-410.8,491.7L-410.8,491.7z"/>
		<path id="XMLID_50_" class="st0" d="M-417.4,494.9c-0.3,0-0.8,0.1-0.9-0.3v-0.1c0.1-0.1,0.1-0.2,0.2-0.3c0.1-0.3,0.3-0.4,0.5-0.7
			c0.1-0.1,0.2-0.3,0.3-0.4c0.5-0.3,1,0.1,1.3,0.4c0.1,0.1,0.3,0.1,0.4,0.1c0,0,0.1,0,0.1,0.1c0,0.1-0.1,0.2-0.2,0.3
			c-0.1,0-0.1,0.1,0,0.1c0,0,0.1,0.1,0,0.1c0,0.1-0.1,0.1-0.2,0.1c-0.2,0-0.3,0-0.4,0s-0.1,0,0,0.1l0,0v0.1
			c-0.2,0.1-0.2,0.3-0.4,0.4c-0.2,0.1-0.4,0.3-0.6,0.4h-0.1c-0.1-0.1-0.1-0.2,0-0.3C-417.2,494.9-417.3,494.9-417.4,494.9
			L-417.4,494.9z"/>
		<path id="XMLID_49_" class="st0" d="M-414.9,495.6L-414.9,495.6L-414.9,495.6C-414.9,495.5-414.9,495.5-414.9,495.6
			c-0.5-0.1-0.7-0.4-0.7-0.8c0,0,0-0.1,0.1-0.1c0.8,0,1.5,0,2.1,0c0.1,0,0.2,0,0.2,0.1c0.4,0.6,0.6,1.4,0.5,2.3
			c0,0.4-0.2,0.6-0.5,0.8c-0.4,0.2-0.7,0.3-1.2,0.3c-0.1,0-0.1,0-0.1-0.1c-0.1-0.3-0.1-0.5-0.1-0.8c-0.1-0.5-0.4-0.8-0.7-1.1
			c-0.1,0-0.1,0-0.1,0.1v0.7c0,0.1-0.1,0.1-0.1,0.1h-0.6c-0.1,0-0.1,0-0.1-0.1c0-0.3,0-0.9,0.2-1.1c0.2-0.1,0.3-0.3,0.4-0.5h0.1
			C-415.5,495.5-415.2,495.6-414.9,495.6L-414.9,495.6z"/>
		<path id="XMLID_48_" class="st0" d="M-416.2,495.5c0-0.2,0.1-0.4,0.1-0.6c0-0.1,0.1-0.1,0.2-0.1s0.1,0.1,0.1,0.3
			c0,0.1,0,0.1-0.1,0.2C-415.9,495.4-416,495.5-416.2,495.5C-416.1,495.6-416.2,495.5-416.2,495.5L-416.2,495.5z"/>
		<path id="XMLID_47_" class="st0" d="M-416.4,495.5l-0.9,0.6c-0.1,0-0.1,0-0.2,0l-0.2-0.2v-0.1c0.4-0.3,0.8-0.5,1.2-0.6h0.1
			C-416.2,495.2-416.3,495.3-416.4,495.5L-416.4,495.5L-416.4,495.5z"/>
		<path id="XMLID_46_" class="st0" d="M-416.8,497c-0.2-0.1-0.4-0.1-0.5-0.4c-0.1-0.2,0-0.3,0.1-0.4c0.2-0.2,0.5-0.4,0.7-0.6h0.1
			c0,0,0,0,0,0.1c-0.1,0.4-0.1,0.8-0.1,1.1v0.1C-416.6,497-416.7,497-416.8,497L-416.8,497z"/>
		<path id="XMLID_45_" class="st0" d="M-417.2,496.9c0.3,0.1,0.6,0.2,0.9,0.3c0.2,0,0.4,0,0.5,0.1c0.1,0,0.2,0.1,0.2,0.2
			c0,0.2,0,0.4,0,0.7c0,0.1-0.1,0.2-0.2,0.1c-0.7-0.3-1.4-0.6-1.9-1.1c-0.1-0.1-0.1-0.1-0.2-0.2c0-0.3-0.2-0.4-0.5-0.5
			c-0.1,0-0.1-0.2-0.1-0.2c0.3-0.3,0.5-0.3,0.7,0C-417.4,496.4-417.5,496.8-417.2,496.9L-417.2,496.9z"/>
		<path id="XMLID_44_" class="st0" d="M-418.7,497.3l-0.2,0.1h-0.1c-0.1-0.1-0.2-0.3-0.1-0.4c0.2-0.2,0.4-0.4,0.7-0.4
			c0.4-0.1,0.5,0.5,0.5,0.8c0,0.1,0,0.1-0.1,0.2c-0.2,0-0.5,0-0.7-0.1c0,0-0.1,0-0.1-0.1L-418.7,497.3
			C-418.6,497.2-418.7,497.2-418.7,497.3L-418.7,497.3z"/>
		<path id="XMLID_43_" class="st0" d="M-414.8,498.4l-0.3,0.1c-0.1,0.1-0.2,0-0.2-0.1c0-0.6,0-1.2,0-1.8c0,0,0.1-0.1,0.1,0
			c0.4,0.2,0.5,1,0.6,1.5C-414.7,498.2-414.7,498.3-414.8,498.4L-414.8,498.4z"/>
		<path id="XMLID_42_" class="st0" d="M-416.9,497.9l1.1,0.6c0.1,0,0.1,0.1,0,0.2c-0.1,0.2-0.3,0.3-0.4,0.4h-0.1
			C-416.6,498.7-416.8,498.3-416.9,497.9C-417,497.9-416.9,497.9-416.9,497.9L-416.9,497.9z"/>
		<path id="XMLID_41_" class="st0" d="M-422,499.1c0.1,0.1,0.1,0.2,0,0.4c0,0,0,0.1,0,0.2c0,0.2,0.1,0.3,0.2,0.5
			c0,0.1,0,0.1-0.1,0.2l-0.3,0.1h-0.1c-0.1-0.1-0.1-0.3,0-0.4c0.2-0.3,0.1-0.6-0.1-0.9c0-0.1-0.1-0.1-0.2,0c-0.3,0.2-0.6,0.3-1,0.2
			c-0.4-0.1-0.8-0.2-1.2-0.2c-0.2,0-0.2-0.1,0-0.1c0.5-0.2,1-0.3,1.5-0.4c0.3-0.1,0.5,0.1,0.8,0.3h0.1c0.1-0.2,0.1-0.5,0.3-0.5
			c0.1,0,0.2,0,0.2,0.1c0,0.2,0.1,0.4,0.3,0.5c0.1,0.1,0,0.2-0.1,0.3c-0.1,0-0.1,0-0.2,0C-422,499-422.1,499-422,499.1L-422,499.1z"
			/>
		<path id="XMLID_40_" class="st0" d="M-416.9,498.6c-0.7,0-1.3,0-2,0c-0.1,0-0.2,0.1-0.3,0.1c-0.1,0-0.1,0-0.2-0.1
			c-0.1-0.3,0.1-0.4,0.3-0.4c0.7-0.1,1.3-0.1,1.8-0.1h0.1L-416.9,498.6C-416.8,498.6-416.9,498.6-416.9,498.6L-416.9,498.6z"/>
		<path id="XMLID_39_" class="st0" d="M-415.6,499.4L-415.6,499.4C-415.6,499.5-415.6,499.5-415.6,499.4c0.7-0.1,1.3-0.3,1.8-0.6
			c0.1,0,0.2,0,0.2,0l0.7,0.3v0.1c-0.4,0.3-0.9,0.7-1.3,0.9c-0.1,0.1-0.2,0.1-0.3,0c-0.3-0.2-0.3,0.3-0.6,0.3
			c-0.5-0.1-1.1-0.2-1.6-0.3c-0.1,0-0.1-0.1,0-0.1c0.2-0.3,0.5-0.5,0.8-0.7c0.1-0.1,0.2-0.2,0.2-0.3c0,0,0-0.1,0.1-0.1l1-0.4l0,0
			c0.2-0.1,0.4,0,0.5,0.1c0.1,0.1,0.1,0.2-0.1,0.3C-414.7,499.1-415.1,499.2-415.6,499.4L-415.6,499.4L-415.6,499.4z"/>
		<path id="XMLID_38_" class="st0" d="M-412.8,499c-0.2,0-0.6-0.2-0.7-0.4c-0.1,0-0.1-0.1,0-0.1c1.8,0,3.6-0.1,5.3-0.1
			c0.6,0,1.2,0,1.7,0c0,0,0.1,0,0.1,0.1v0.4c0,0,0,0.1-0.1,0.1C-408.6,499-410.7,499-412.8,499L-412.8,499z"/>
		<path id="XMLID_175_" class="st0" d="M-420.1,499C-420,499-420,499-420.1,499h-1.4c0,0-0.1,0-0.1-0.1v-0.3c0,0,0-0.1,0.1-0.1h1.8
			c0.1,0,0.1,0,0.1,0.1c-0.1,0.3,0.3,0.6,0.5,0.3c0.1-0.1,0.1-0.1,0.2-0.2h0.1l1.9,0.1c0.1,0,0.2,0,0.2,0.1l0.1,0.1
			c0.1,0.1,0,0.1,0,0.1c-0.6,0-1.3-0.1-2-0.1c-0.2,0-0.2,0.1-0.1,0.2c0.4,0.3,0.4,1.4,0.2,1.8c0,0.2-0.1,0.3-0.1,0.5
			c0,0.5,0.1,0.9,0.1,1.4c0,0.4-0.3,0.8-0.7,0.8c-0.3,0-0.6,0-0.9,0c-0.1,0-0.1,0-0.1-0.1c-0.1-0.2-0.3-0.4-0.3-0.7
			c0-0.6,0.1-1.1,0.2-1.6c0-0.1,0-0.3,0-0.4c-0.1-0.4-0.1-0.7-0.1-1.1C-420.4,499.5-420.2,499.3-420.1,499 M-419,500.2l0.1,0.7
			c0,0.1,0.1,0.2,0.2,0.1c0.1,0,0.1-0.1,0.2-0.2c0.1-0.5,0.1-1.3-0.3-1.6h-0.1c-0.2,0-0.5,0-0.7,0c-0.1,0-0.2,0-0.3,0.1
			c-0.3,0.4-0.3,0.9-0.3,1.4c0,0.2,0.1,0.3,0.2,0.4c0.1,0.1,0.2,0,0.2-0.1v-0.3c0-0.1,0.1-0.2,0.2-0.2h0.6l0,0l0,0l0,0h-0.6l0,0l0,0
			c0,0,0-0.1,0.1-0.1L-419,500.2C-419,500.1-419,500.1-419,500.2 M-419.4,502.4c0.1-0.1,0.2-0.1,0.2,0l0.4,0.5
			c0.2,0.2,0.2,0.2,0.2-0.1c0-0.5,0-1-0.2-1.5c0-0.1-0.1-0.2-0.2-0.2c-0.3,0-0.6-0.1-0.9,0c-0.2,0-0.3,0.1-0.3,0.3
			c-0.1,0.5-0.1,1.1-0.1,1.6c0,0.1,0.1,0.2,0.2,0.1C-419.8,502.9-419.6,502.7-419.4,502.4 M-419.5,503.1c0.1,0,0.2,0.1,0.3,0
			c0.1,0,0.1-0.1,0.1-0.2C-419.3,502.7-419.5,502.8-419.5,503.1C-419.6,503-419.6,503.1-419.5,503.1L-419.5,503.1z"/>
		<path id="XMLID_33_" class="st0" d="M-417.6,502.3L-417.6,502.3C-417.5,502.3-417.5,502.3-417.6,502.3c0.2-0.1,0.3-0.1,0.5-0.1
			c0.1,0,0.1,0,0.1,0.1c0.3,0.5,0.1,1.4-0.1,2c-0.1,0.4-0.2,0.9-0.2,1.3c0,0.3,0,0.7,0,1c0,0.1-0.1,0.2-0.2,0.2
			c-0.2,0-0.4-0.1-0.6,0c-0.4,0.1-0.6,0.2-1,0c-0.1,0,0-0.1,0-0.1l0.9-0.5l0.1-0.1l-0.1-3.8v-0.1c0.4-0.6,0.8-1.1,1.2-1.5
			c0.1-0.1,0.2-0.1,0.4-0.1c0.3,0.1,0.7,0.2,1,0.2c0.2,0,0.3,0,0.4,0c0.2-0.1,0.3-0.2,0.5-0.2c0.3,0,0.8-0.4,1.1-0.6
			c0.1-0.1,0.1,0,0.1,0.1c-0.1,0.4-0.4,0.6-0.7,0.8c-0.9,0.4-1.7,0.7-2.6,1C-416.8,501.8-417.2,502-417.6,502.3
			C-417.6,502.2-417.6,502.3-417.6,502.3L-417.6,502.3z"/>
		<path id="XMLID_32_" class="st0" d="M-413.8,502.4c0.1-0.1,0.2-0.2,0.3-0.3l0.1-0.1c0.2,0,0.5,0,0.7,0c0.9,0.1,1.8,0.2,2.6,0.3
			c0.2,0,0.4,0,0.5,0c0,0,0.1,0,0.1,0.1c0.1,0.2,0.1,0.3,0.1,0.5c-0.1,0.3-0.1,0.6-0.1,0.9c0,0.2-0.1,0.3-0.2,0.4c0,0-0.1,0-0.1,0.1
			c-0.1,0.1-0.2,0-0.2-0.1c0-0.3-0.1-0.6-0.2-0.9c-0.2-0.4-0.5-0.4-0.9-0.4c-0.9,0.1-1.9,0.2-2.9,0.4c-0.1,0-0.2,0-0.2-0.1
			c-0.3-0.6-0.6-1.1-0.8-1.6c0-0.1,0-0.2,0.1-0.2c0.4-0.3,0.9-0.5,1.3-0.7h0.1v0.1C-413.6,501.3-413.7,501.9-413.8,502.4
			C-413.9,502.4-413.9,502.4-413.8,502.4L-413.8,502.4z"/>
		<path id="XMLID_31_" class="st0" d="M-419.8,501.4c0.2-0.1,0.5-0.1,0.8-0.1h0.1c0.3,0.3-0.2,0.6-0.4,0.8h-0.1
			c-0.1-0.1-0.3-0.2-0.4-0.3C-420,501.7-420,501.4-419.8,501.4L-419.8,501.4z"/>
		<path id="XMLID_30_" class="st0" d="M-418.8,502l0.2,0.8c0,0.1-0.1,0.1-0.1,0.1l-0.5-0.6v-0.1l0.3-0.3
			C-418.9,501.9-418.8,501.9-418.8,502L-418.8,502z"/>
		<path id="XMLID_29_" class="st0" d="M-420,502.1l0.1-0.1c0,0,0.1-0.1,0.1,0l0.3,0.3v0.1l-0.4,0.5c0,0.1-0.1,0-0.1-0.1V502.1
			C-420.1,502.1-420.1,502.1-420,502.1L-420,502.1z"/>
		<path id="XMLID_165_" class="st0" d="M-415.6,512.6h-0.6c-3.2-0.3-5.9-1.5-8.3-3.5c-0.9-0.8-1.8-1.8-2.6-2.8
			c-0.1-0.1-0.1-0.2-0.2-0.3v-0.1c0.5-0.2,0.9-0.6,1.2-1v-0.1c-0.1-0.1-0.2-0.2-0.3-0.3c-0.3-0.4-0.2-1,0.4-1.1
			c0.6-0.1,0.6,0.6,0.6,1c0,0.1,0,0.2,0.1,0.1c0.5-0.1,0.9-0.3,1.3-0.6c0.1-0.1,0.1,0,0.2,0c0.5,0.8,1.1,1.5,1.7,2.1
			c1.7,1.6,3.8,2.4,6.1,2.5c0.7,0,1.4,0,2.1-0.2c1.7-0.3,3.2-1.1,4.5-2.2c0.8-0.7,1.5-1.5,2-2.4c0,0,0.1-0.1,0.1,0
			c0.4,0.3,0.9,0.6,1.4,0.7c0.2,0,0.2,0,0.2-0.2c-0.1-0.4,0.1-0.8,0.5-0.9c0.2-0.1,0.4,0,0.5,0.1c0.4,0.5,0,1.1-0.5,1.3
			c-0.1,0-0.1,0.1,0,0.1l1.2,1.2v0.1c-0.5,0.7-1.1,1.4-1.6,2c-2.1,2.4-4.8,3.8-7.9,4.2c-0.2,0-0.6,0.1-1,0.1
			C-415,512.5-415.3,512.5-415.6,512.6 M-404.9,503.9c0-0.1,0-0.2-0.1-0.3c0,0-0.1,0-0.2,0s-0.1,0-0.1,0.1c-0.1,0.2-0.2,0.4-0.1,0.6
			c0,0.1,0.1,0.1,0.2,0.1C-405,504.3-404.9,504.1-404.9,503.9 M-425.9,504.4c0.1,0,0.2-0.2,0.2-0.4c-0.1-0.2-0.2-0.3-0.4-0.3
			c-0.1,0-0.2,0.2-0.2,0.4C-426.2,504.3-426.1,504.4-425.9,504.4 M-421.6,510.7c1.1,0.6,2.4,1,3.9,1.3c0.6,0.1,1.3,0.2,2,0.2
			c0.8,0,1.5-0.1,2-0.1c2-0.2,3.7-0.9,5.3-2c1.5-1,2.8-2.4,3.9-3.9v-0.1c-0.4-0.4-0.8-0.8-1.1-1.2c-0.1-0.1-0.1-0.1-0.2-0.1
			c-0.5-0.1-0.9-0.3-1.4-0.5c-0.1,0-0.1,0-0.2,0c-2,2.9-5.1,4.6-8.6,4.6c-2.3,0-4.5-0.9-6.3-2.4c-0.7-0.6-1.2-1.3-1.8-2
			c0,0-0.1-0.1-0.1,0c-0.4,0.3-0.9,0.4-1.4,0.4c-0.1,0-0.3,0-0.4,0.1c-0.3,0.4-0.6,0.7-1,0.9c0,0-0.1,0.1,0,0.1
			C-425.4,508.1-423.7,509.6-421.6,510.7L-421.6,510.7z"/>
		<path id="XMLID_22_" class="st0" d="M-420.2,503.8C-420.2,503.8-420.1,503.8-420.2,503.8h1.1c0.3,0,0.6,0,0.6,0.1l0,0
			c0,0-0.3,0.1-0.6,0.1h-1l0,0v-0.2H-420.2z"/>
		<path id="XMLID_21_" class="st0" d="M-407.5,506.8c0.1,0,0.1,0,0.2-0.1h0.1c0.2,0.1,0.3,0.3,0.3,0.5c0,0.1,0,0.1-0.1,0.1h-0.1
			c-0.1,0-0.1,0-0.1-0.1v-0.3l0,0l0,0l0,0c0,0.1-0.1,0.2-0.2,0.2h-0.1c-0.4-0.3-0.1-0.8,0.3-0.9c0.1,0,0.1-0.1,0-0.1
			s-0.1-0.1-0.2-0.1c-0.1-0.1-0.1-0.1,0-0.1h0.4c0,0,0.1,0,0,0.1v0.1v0.1l1,0.8c0,0,0,0,0,0.1h-0.1c-0.1,0-0.1,0-0.2-0.1
			c-0.3-0.2-0.5-0.4-0.8-0.5C-407.3,506.5-407.5,506.5-407.5,506.8C-407.6,506.8-407.6,506.8-407.5,506.8L-407.5,506.8z"/>
		<path id="XMLID_158_" class="st0" d="M-423.8,506.6c-0.1-0.1-0.2-0.3-0.3-0.4c0-0.1-0.1-0.1-0.1-0.2c0,0,0,0,0.1-0.1h0.1l1,1h0.1
			l0,0c0.1,0,0.1,0,0.1,0.1v0.4c0,0,0,0.1,0,0c-0.1-0.1-0.2,0-0.3,0c-0.3,0.3-0.5,0.6-0.8,0.9c0,0-0.1,0.1-0.1,0l0,0c0,0,0,0,0-0.1
			c0.2-0.3,0.5-0.7,0.8-0.9c0.1-0.1,0.1-0.2,0-0.3c0-0.1-0.1-0.1-0.1-0.1c-0.1-0.1-0.1-0.1-0.2,0c-0.3,0.3-0.6,0.6-0.9,1
			c-0.1,0.1-0.1,0.1-0.1,0c0.1-0.3,0.1-0.7,0-1.1c-0.1-0.2,0-0.3,0.3-0.3L-423.8,506.6C-423.8,506.7-423.8,506.7-423.8,506.6
			 M-424.3,506.9C-424.3,506.9-424.4,506.9-424.3,506.9c-0.1,0.2-0.1,0.3-0.1,0.4s0.1,0.1,0.1,0c0.1-0.1,0.2-0.2,0.2-0.3v-0.1
			H-424.3L-424.3,506.9z"/>
		<path id="XMLID_154_" class="st0" d="M-410.2,508.8C-410.2,508.7-410.2,508.7-410.2,508.8c-0.3,0-0.5,0.2-0.8,0.3c0,0,0,0,0,0.1
			l0.5,1.2c0.1,0.1,0,0.1-0.1,0.1s-0.1-0.1-0.2-0.2c-0.2-0.3-0.3-0.7-0.5-1c0,0,0-0.1-0.1-0.1l-0.2-0.1c0,0-0.1-0.1,0-0.1l0.1-0.1
			v-0.1c-0.1-0.4,0-0.7,0.4-0.8c0.2,0,0.4,0,0.8,0l0,0l0,0l0,0c-0.3,0-0.9,0-0.9,0.5c0,0.1,0.1,0.1,0.2,0.1c0.9-0.4,1.7-1,2.6-1.7
			c0,0,0,0,0-0.1v-0.1v-0.1h0.3h0.1v0.1c0,0.1,0,0.1,0,0.2l0.9,0.9c0.1,0.1,0.1,0.1-0.1,0.1c-0.1,0-0.1,0-0.2-0.1
			c-0.2-0.2-0.5-0.5-0.7-0.7c-0.1-0.1-0.3-0.1-0.4,0l-1.3,0.9c-0.1,0.1-0.1,0.1,0,0.2c0.2,0.3,0.4,0.7,0.6,1
			c0.2,0.2,0.1,0.3-0.1,0.1c-0.2-0.1-0.4-0.2-0.7-0.1c-0.2,0-0.3,0-0.4-0.1V509L-410.2,508.8 M-409.7,509.3l-0.2-0.3
			c0-0.1-0.1-0.1-0.2,0l-0.1,0.2c0,0.1,0,0.1,0.1,0.2C-409.9,509.3-409.8,509.4-409.7,509.3C-409.6,509.3-409.6,509.3-409.7,509.3
			L-409.7,509.3z"/>
		<path id="XMLID_151_" class="st0" d="M-423,508.2c-0.1,0-0.1,0-0.1,0.1c0.1,0.3,0.1,0.7,0.1,0.9c0,0.3,0,0.3-0.1,0
			s-0.2-0.5-0.2-0.8c0-0.1,0-0.1,0-0.2c0.1-0.1,0.2-0.3,0.3-0.4c0-0.1,0.1-0.2,0.2-0.2c0.3-0.2,0.6,0.2,0.4,0.5
			c-0.1,0.1-0.2,0.2-0.4,0.1C-422.9,508.3-422.9,508.3-423,508.2C-422.9,508.2-423,508.2-423,508.2 M-422.6,507.9c0,0-0.1-0.1-0.1,0
			c-0.1,0-0.1,0.1-0.1,0.1s0.1,0.1,0.1,0C-422.6,508-422.6,508-422.6,507.9L-422.6,507.9z"/>
		<path id="XMLID_13_" class="st0" d="M-408.4,508.1c0,0.2-0.2,0.4-0.4,0.4c-0.1,0-0.2,0-0.2-0.1c-0.1-0.1-0.1-0.2,0-0.3
			c0-0.1,0.2-0.2,0.3-0.1c0,0,0,0,0.1,0c0,0,0.1,0,0.1-0.1s0-0.1,0.1-0.1c0,0,0.1-0.1,0.1,0c0.5,0,0.8,0.5,0.5,0.9
			c-0.4,0.6-1.2,0.1-1.5-0.2c-0.1-0.1-0.1-0.1,0-0.1s0.2,0.1,0.3,0.1c0.4,0.2,0.8,0.2,1-0.2c0-0.1,0-0.2,0-0.2l-0.1-0.1
			C-408.4,508-408.4,508-408.4,508.1L-408.4,508.1z"/>
		<path id="XMLID_147_" class="st0" d="M-417.4,510.2l0.1,0.1v0.1c0,0.1-0.1,0.2-0.2,0.2h-0.1c-0.1-0.1-0.2-0.1-0.4-0.1h-0.1
			c-0.1-0.1-0.1-0.1-0.1-0.2s0.1-0.2,0.2-0.2c0.1-0.1,0-0.2,0-0.2l-1-0.3c-0.1,0-0.1,0-0.2,0.1l-0.1,0.2c0,0.1,0,0.1,0.1,0.1
			c0.2-0.1,0.6-0.2,0.7,0.1v0.1c-0.2,0.3-0.3,0.6-0.4,1l0,0l0,0c0,0-0.1,0-0.1-0.1c0-0.3,0.1-0.6,0.1-0.9c0-0.1,0-0.1-0.1-0.1
			l-0.5,0.3h-0.1c-0.1-0.1-0.1-0.2-0.1-0.3c0.1-0.2,0.1-0.4,0.2-0.6c0-0.1,0-0.1-0.1-0.1c-0.6,0.1-0.8,0.4-0.9,0.9
			c0,0.1,0,0.1,0.1,0.1s0.1-0.1,0.1-0.1c0-0.1,0.1-0.1,0.2,0c0.3,0.4-0.5,0.6-0.5,0c-0.1-0.4,0.1-0.8,0.4-1.1v-0.1l-0.3-0.2h-0.1
			l-0.6,1.3c0,0.1-0.1,0.1-0.1,0c0,0,0,0,0-0.1s0-0.1,0-0.2c0.1-0.3,0.3-0.6,0.4-0.9c0.1-0.1,0-0.3-0.1-0.3c-0.1-0.1-0.2,0-0.2,0.1
			l-0.6,1.1c0,0,0,0-0.1,0l0,0c0-0.1,0-0.1,0-0.2c0.1-0.2,0.2-0.4,0.3-0.6V509c0-0.1,0-0.2-0.1-0.1c-0.1,0-0.2,0.1-0.3,0.2h-0.1
			c-0.5,0-0.6-0.5-0.2-0.8c0.1-0.1,0.4-0.1,0.5,0s0.3,0.2,0.5,0.2c0,0,0,0,0.1,0l0,0l0,0c-0.3-0.2-0.6-0.4-0.9-0.6c0,0,0,0,0-0.1
			v-0.1l0,0c0.4,0.3,0.9,0.5,1.3,0.8c0,0,0.1,0.1,0.2,0.1h0.1c0,0,0-0.1,0.1-0.1c0,0,0-0.1,0.1-0.1l0,0c0,0,0,0,0,0.1
			s0.1,0.2,0.2,0.3c0.7,0.3,1.5,0.5,2.2,0.7c0.1,0,0.2,0.1,0.2,0.1c0,0.1,0.1,0.1,0.2,0s0.2-0.1,0.3,0.1c0.1,0.1,0.1,0.1,0.2,0
			c0-0.1,0-0.1,0-0.2c0,0,0-0.1,0.1,0s0.2,0.2,0.3,0.4v0.1c-0.1,0-0.2,0.1-0.2,0.2c0,0.4-0.1,0.8-0.2,1.2c0,0,0,0.1-0.1,0.1l0,0l0,0
			c0-0.4,0-0.7,0-1.1C-417.1,510.2-417.2,510.1-417.4,510.2C-417.4,510.1-417.4,510.1-417.4,510.2 M-422.2,508.8
			c0.1,0,0.2,0,0.3,0.1h0.1c0,0,0,0,0-0.1c-0.1-0.2-0.2-0.2-0.3-0.2C-422.2,508.6-422.3,508.7-422.2,508.8
			C-422.3,508.7-422.3,508.8-422.2,508.8L-422.2,508.8z"/>
		<path id="XMLID_139_" class="st0" d="M-413.1,509.8l-0.7,0.1c-0.1,0-0.1,0.1-0.1,0.2l0.2,1.3l0,0l0,0c0,0-0.1,0-0.1-0.1
			c-0.2-0.4-0.2-0.8-0.3-1.2c0-0.1-0.1-0.2-0.2-0.2c-0.2,0-0.4,0-0.7,0.1c0,0-0.1,0-0.1,0.1v0.3c0,0.1,0,0.1,0.1,0
			c0.1,0,0.1-0.1,0.2-0.2c0-0.1,0.1-0.1,0.2,0c0.3,0.3,0.4,0.9-0.1,1c-0.4,0.1-0.7,0-0.8-0.4c-0.1-0.3-0.2-0.5-0.2-0.8
			c0,0,0-0.1-0.1-0.1s-0.1-0.1-0.1-0.1s0-0.1,0.1-0.1l1.6-0.1c0.1,0,0.1-0.1,0.1-0.1v-0.1c0,0,0-0.1,0.1-0.1l0,0l0.1,0.1h0.1
			c0.5-0.1,1-0.2,1.5-0.3c0.1,0,0.1,0,0.2,0l0,0c0.1,0,0,0.1,0,0.1c-0.1,0-0.1,0-0.2,0c-0.2,0-0.2,0.1,0,0.2s0.3,0.2,0.4,0.4
			c0.1,0.2-0.1,0.4-0.3,0.3c-0.2,0-0.2,0-0.1,0.2c0,0.1,0.1,0.2,0.1,0.2c0,0.2,0,0.2-0.1,0.1s-0.3-0.3-0.5-0.3
			c-0.1,0-0.3-0.1-0.4-0.2S-413.3,509.9-413.1,509.8C-413.3,510.1-413.2,510-413.1,509.8C-413,509.8-413,509.8-413.1,509.8
			 M-412.6,510.3C-412.6,510.3-412.5,510.3-412.6,510.3c0.1,0,0.2-0.1,0.3-0.1c0,0,0,0,0-0.1c-0.1-0.1-0.2-0.1-0.3-0.1
			c0,0-0.1,0,0,0.1V510.3 M-412.8,510.6C-412.8,510.6-412.7,510.5-412.8,510.6v-0.4c0-0.1-0.1-0.1-0.1,0l-0.2,0.2v0.1L-412.8,510.6
			 M-415.2,511.1c0.2,0.2,0.5,0,0.6-0.2c0-0.1,0-0.1-0.1-0.1s-0.2,0-0.2,0.1c-0.1,0.1-0.3,0.1-0.3-0.1c-0.1-0.2-0.1-0.4-0.1-0.6
			c0,0,0-0.1-0.1-0.1h-0.1c-0.1,0-0.1,0-0.1,0.1C-415.6,510.6-415.5,510.9-415.2,511.1L-415.2,511.1z"/>
	</g>
</g>
</svg>
