<?xml version="1.0" encoding="utf-8"?>
<!-- Generator: Adobe Illustrator 19.0.0, SVG Export Plug-In . SVG Version: 6.00 Build 0)  -->
<svg version="1.1" id="Layer_1" xmlns="http://www.w3.org/2000/svg" xmlns:xlink="http://www.w3.org/1999/xlink" x="0px" y="0px"
	 viewBox="0 0 1000 1000" style="enable-background:new 0 0 1000 1000;" xml:space="preserve">
<style type="text/css">
	.st0{fill:#EBEDEC;}
	.st1{fill:#E3E3E3;}
	.st2{fill:#079F51;}
	.st3{fill:#EA1D24;}
	.st4{fill:#212723;}
	.st5{fill:#F2F2F2;}
</style>
<path id="XMLID_370_" class="st0" d="M394.1,215.2c22.6-17.1,48.7-17.5,74.2-11.7c17.9,4,30.9,0.3,39.6-14.2
	c5-8.3,10.6-7.7,17.3-6.5c14.9,2.8,29.8,6.2,44.7,9.3c5,1.9,9.9,3.8,14.9,5.7c1.6,3.3,7.5,2.5,7.4,7.3c-0.5,22,14.2,27.3,32,29.2
	c1.2,0.1,2.5,0.1,3.7,0.2c0.8,0.1,1.6,0.1,2.5,0.2c19.8,5.6,40.4,6.5,60.5,10.2c11.9,2.2,27.3-0.2,35.1,6.4
	c8.2,7.1,2.3,22.8,2.2,34.7c-1.2,91.9-2.8,183.8-4.1,275.7c-0.1,8.6-3.1,14.6-11.4,18.7c-46.7,22.9-93.2,46.1-139.6,69.4
	c-14.1,7.1-28.3,3.4-41.8,0.2c-84.4-19.7-168.6-40-252.9-60.2c-5.4-1.3-8-3.5-8.1-10.1c-1.9-86.4-4.2-172.8-6.4-259.2
	c-0.4-14.3-1-28.5-1.3-42.8c-0.1-3.6-1-8.1,5.1-7.8c22.2,1.2,40.2-10.1,58.7-19.7c17.5-9,34.8-18.1,52.3-27.2
	C384.1,221.6,389.4,219,394.1,215.2z M537.7,482c0-37.3,0-74.7,0-112c0-22.2,0.1-22.1-21.3-28.6c-2.4-0.7-4.7-2-7.1-2.6
	c-64.8-15.3-129.7-30.5-194.5-45.7c-20.6-4.8-20.6-4.8-20.4,16.7c0,3.4,0,6.7,0,10.1c0.5,77.6,0.3,155.2,2.6,232.8
	c0.2,7.8,1.8,11.6,10.5,13.6c72.3,16.4,144.5,33.3,216.6,50.6c11.3,2.7,13.9-0.6,13.8-11.3C537.5,564.3,537.7,523.2,537.7,482z
	 M574.8,478.1c0.2,0,0.5,0,0.7,0c0,41.9,0.1,83.9-0.1,125.8c0,9,1.7,12.5,11.5,7.7c34.5-17,69.4-33.4,104.1-50.1
	c6.1-2.9,9.6-6.8,9.6-14.4c0.7-83.9,1.6-167.7,2.7-251.6c0.1-8.8-0.9-12.7-10.9-8c-35.6,16.9-71.4,33.3-107.2,49.6
	c-8,3.6-10.8,8.9-10.7,17.7C575,396,574.8,437,574.8,478.1z M495.3,282.3c-0.6,0,1.2,0.2,2.8-0.3c4.5-1.5,11.9-0.6,12.5-6.3
	c0.6-6.1-6.7-6.3-11.2-7.7c-12.8-3.9-25.6-7.7-38.6-10.8c-11.2-2.7-14.9-6.6-5.5-16.2c2.8-2.8,5.5-7.3,2.5-11.4
	c-2.6-3.5-7-1.6-10.6-1c-24,3.7-42.2,19.7-62.9,30.4c-1.2,0.6-2.4,2.8-2.2,4c0.5,3.6,4,3.8,6.8,4.4
	C423.1,275.2,458.2,277.7,495.3,282.3z M534.4,262.5c6,0.4,9.6,0.9,12.2-3.1c6.2-9.4,12.9-18.5,19.1-27.9c2.9-4.4,3-8.5-2.4-11.5
	c-10.9-6-23-8.6-35-8.1c-7.7,0.3-10.2,10.2-15.3,15.5c-3.8,3.9-6.5,8.7-10,12.8c-5.6,6.7-3.5,11.3,3.6,14.8
	C516.1,259.8,526.4,261.1,534.4,262.5z M619.3,283.2c17.1-0.4,22.7-3.6,22.5-12.6c-0.2-12.5-11.2-21.7-26.7-19.6
	c-14.3,1.9-7.7,15.2-9.3,23.2C603.4,286.4,613.8,282.5,619.3,283.2z"/>
<path id="XMLID_336_" class="st1" d="M140.5,323c-0.5,1-1.1,2-1.6,3C139.4,325,140,324,140.5,323z"/>
<path id="XMLID_329_" class="st2" d="M686.5,923.4c-24.2-4.2-50.5-9.6-77-13.4c-65.2-9.4-130.6-15.1-196.6-10.3
	c-39.7,2.9-79.3,6.4-118.2,15.3c-9.4,2.2-13.6-1.5-15.1-11.2c-4.3-26.4-9.3-52.7-14.2-79c-1.5-7.9,0.3-12.1,9.1-14.1
	c36.4-8.2,73.3-13.1,110.4-16.7c25.9-2.5,52-3.4,77.8-3.5c45.6-0.2,91.3,0.6,136.8,5.3c34.2,3.5,68.2,8.1,101.6,16.3
	c0.8,0.2,1.7,0.3,2.5,0.5c24.5,6.5,26.3,9.2,22.2,33.8c-4.1,24.6-15.3,46.9-22.5,70.5C700.8,924.6,694.6,923.4,686.5,923.4z
	 M393.3,855c5,0.2,10,0.5,14.6-2c5.5-3,9.8-7.2,7.5-13.9c-2.3-6.8-8.3-9.2-14.9-9c-7.6,0.3-15.1,1.8-18.5,10
	c-3.3,7.9,2.4,11.3,8,14.5c-4.5,4.5-3.2,11.5,0,13.2c11.9,6.3,24.7,10.8,37.2,16c0.5-1.1,1-2.1,1.5-3.2
	C418.5,869.9,405,863.7,393.3,855z M456.2,850.3c2.5-0.1,5.6,0.6,6.8-2c1.7-3.5,2.6-7.4,7.7-5.4c3.9,1.5,3.9,5.1,4.2,8.4
	c0.5,5.8,0.8,11.7,1.1,17.6c0.2,5.2,3.6,8.3,7.9,7.9c4.7-0.4,2.5-5.3,2.6-8.2c0.2-9.2-0.3-18.5-0.2-27.7c0.1-4.4-3.2-11,5.3-11.3
	c7.6-0.3,11.8,3.4,11.8,11.3c0,8.4,0.3,16.8,0.1,25.2c-0.2,6.9,2.3,11.1,10.9,12.6c0-10.8,0-21.1,0-31.4
	c-0.1-18.7-0.1-18.8,18.2-17.8c1.4,0.1,3.6-0.4,4,2.5c-1.8,2.4-4.1,4.9-5.7,7.7c-4.8,8.4-4.3,17.1,0.3,25.2
	c4.7,8.3,12.3,12.5,21.9,12.2c5-0.2,10.3-0.9,12.7-6.4c1.6-3.7-0.4-6.6-3.5-8.5c-5.3-3.3-10.7-2.8-14.7,1.8c-2.2,2.5-3.4,5.3-6,1.1
	c-4.6-7.2-3.4-14.8,1.1-21.3c5.8-8.6,15.3-13.4,25-11.5c8.5,1.7,2.2,10.5,3.1,16.1c0.2,1.2-0.2,2.5-0.4,3.7c-1,6.1,3.1,9.2,7.3,12.1
	c4.6,3.2,6.6-1.6,9.4-3.5c2.8-1.8,5.4-4,8.3-5.6c6.3-3.5,11.2-4.7,9.8,5.8c-0.8,6.2-0.6,12.6,1.6,18.6c0.9,2.5,2.7,4.6,5.4,4.4
	c3.9-0.3,2.6-3.6,2.4-5.8c-1.1-12.2,3.4-22,12.9-29.6c-13.9-11.9-13.9-11.9-44-2.4c-2.9-11.7,1.7-15.2,13.1-12.9
	c9.8,2,19.9,2.8,29.9,4.1c7.3,0.9,14.8,1,21.4,5.9c-1.1,1.4-1.7,2.5-2.6,3.2c-3.2,2.4-9.6,2.8-8,8.6c1.7,6.4,7.1,8.9,13.8,8.4
	c3.6-0.3,7.2-2.1,10.9,0.5c5.7,3.9,12,5,17.1-0.4c5-5.3-2.4-9.1-4.2-15.1c9,3.3,11.9,8.7,10.9,16c-0.8,6.2-2.2,12.4-3.9,18.4
	c-2.1,7.3-0.5,12.1,7.8,14.4c2.7-10.9,6.2-21.3,7.7-31.9c1.3-9.4,4.2-15.4,16-13.9c-8.4-5.1-11.5-13.9-19.2-18.9
	c-1.4,5.6-2.6,10.4-4.2,16.6c-7.4-10.5-15.9-15-27.5-9.7c-2.6,1.2-4.9-0.4-6.8-2.1c-4.7-4-10.3-5.1-16.2-6.1
	c-35.2-6-70.7-9-106.4-9.8c-9.9-0.2-21.1,3-26.2-9.1c-5.2,2.7,0.2,10.4-8.6,9.7c-24.7-2-49.4,0.4-74.1,2.5c-4.1,0.4-9.1-1-12.9,3.9
	c20.6,10.6,41.6-2.3,63,2.5c-14.2,3.3-27.5,0.8-40.2,3.2c-8.5,1.6-12.8,8.8-10.2,17.3c3.2,10.5,12.7,11.2,21.7,10.7
	c7.1-0.4,13.9-2.3,10.8-12.3L456.2,850.3z M320.9,848.4c-8.4,4.8-15,8.2-21.2,12.2c-2.9,1.8-8.2,3.1-6.9,7.4
	c1.1,3.7,5.1,7.3,9.5,7.2c17-0.3,32,4.4,44.3,17.8c-0.6-13.8-2.5-26-3.9-38.3c-0.5-4.2-5.1-10.4,3.3-12c7.4-1.4,12.1,1.5,13.2,9.5
	c1.3,9.5,2.6,19,4.2,28.5c0.8,4.9,4.7,7.7,9,6.8c4.8-0.9,1.7-5.4,1.8-8.4c0.3-14.4-9.2-28.6-0.8-43.1c0.4-0.7-0.6-2.2-1-3.4
	c-5.5,5.4-11.9-19.2-17.3,0.5c-0.7,2.5-4.5,0.9-6.8,1.3c-22.5,3.3-45.1,6.7-70.3,10.5C292.8,856.4,306,845.5,320.9,848.4z"/>
<path id="XMLID_328_" class="st2" d="M238.8,774c7.3,0,13.1-0.4,9.2,8.7c-10.1,24-7.5,48.5-0.8,72.7c2.4,8.7,1.5,13-7.3,15.9
	c-18.3,6-36.4,12.7-54.5,19.2c-7.6,2.7-11.3,1.6-9.1-7.6c1.5-6.5,1.7-13.4,3.5-19.8c6.4-22.4-2.9-38.1-20.6-50.7
	c-4.5-3.2-12.5-8-2.7-12.5C183.2,787.7,211,778.3,238.8,774z"/>
<path id="XMLID_327_" class="st2" d="M763.6,784.3c23,2.6,48.6,6.7,72.2,18.5c13,6.5,13.9,10.4,2.1,17.4
	c-19.3,11.4-25.5,24.8-19.5,47.9c7,27.2,4.5,28-22.7,20c-15.2-4.5-30.2-10-45.4-14.5c-5.5-1.6-6.3-4.2-4.8-9.1
	c3-9.5,5.6-19.2,8.6-28.8c4-12.7,1.8-24.7-3.3-36.7C744.6,784.5,745.2,783.6,763.6,784.3z"/>
<path id="XMLID_326_" class="st2" d="M355.8,723.6c0.1,9.8-3.5,14.7-6.5,19.7c-5.5,9-10.7,18.1-13.9,28.1c-2.6,8.1-6.3,9.7-13.7,5.1
	c-25-15.3-50.2-30.4-75.5-45.1c-6.1-3.6-9.5-8-9.3-15c0.2-9,4.3-12.1,13-8.7c15.7,6,20.9,3.8,28.8-11.4c1.9-3.7,3.7-7.6,6.2-10.9
	c4.9-6.7,10.2-8.5,18-2.9c12.2,8.8,25.6,15.9,38.1,24.3C348.2,711.6,355.5,717,355.8,723.6z"/>
<path id="XMLID_325_" class="st2" d="M642.5,727.5c0.5-9.2,6.4-15.3,13.4-20c13.6-9.1,27.7-17.4,41.5-26.1
	c7.5-4.7,12.9-1.6,16.8,4.9c2.8,4.6,4.5,10,7.5,14.4c5.6,8.1,12.5,13.8,23.2,8.6c5.2-2.5,11.4-6.8,15,1c3.3,7,1.7,14.4-5.4,18.8
	c-14.9,9.4-29.9,18.6-45,27.7c-11.5,6.9-23.1,13.6-34.8,20.3c-3.3,1.9-7.7,4.3-9.6-0.8c-6-15.8-14.5-30.2-22.3-45
	C642.5,730.4,642.7,729,642.5,727.5z"/>
<path id="XMLID_324_" class="st2" d="M792.7,608.3c-4.5,0-8.4-1.6-10.9-5.2c-5.3-7.6-10.7-14.9-17.5-21.3c-4.8-4.6-3.8-9.8,0.8-14.3
	c12.2-12.1,24.5-24.1,36.6-36.3c4.9-4.9,11.5-5.7,16.1-2.3c10.2,7.4,21.3,6.1,32.6,6c14-0.1,16.5,4.4,9.6,16.8
	c-5.2,9.4-14,15.6-21.5,22.7c-10.6,10-22.2,19-33.4,28.5C801.5,605.9,797.6,608.2,792.7,608.3z"/>
<path id="XMLID_323_" class="st2" d="M153.1,534.8c9.9,1.2,18.3-0.1,26.1-5.1c6.6-4.2,13-2.7,18.3,2.4c12,11.6,23.8,23.5,35.6,35.3
	c5.1,5.1,5.2,10.5-0.1,15.2c-5.9,5.4-10.7,11.7-15.1,18.3c-6.3,9.2-14.8,9.7-22.7,3.3c-18.2-14.7-36.4-29.5-52.5-46.4
	c-2.3-2.4-4-5.3-5.5-8.3c-5.1-10.6-2.5-14.7,9.2-14.7C149,534.8,151.5,534.8,153.1,534.8z"/>
<path id="XMLID_322_" class="st2" d="M819.4,635.3c0.7,7-4.1,11.2-9.6,14.6C791.3,661.3,773,673.1,753,682
	c-13.5,6-19.9,3.3-24.2-11.2c-2-6.9-4.2-13.7-8.5-19.5c-6.8-9.1-4.3-16.5,4-22.6c4.7-3.5,10-6.1,15.1-9c21-12,21-12,38.7,4.4
	c7.9,7.3,15.9,11.2,27,4.5C814.5,622.7,819.3,625.6,819.4,635.3z"/>
<path id="XMLID_321_" class="st2" d="M282.2,643.2c-6.1,12.4-12.3,25.5-19.2,38.3c-2.6,4.8-7.6,4.1-12.3,2.1
	c-22.8-9.7-44.3-21.6-64.2-36.5c-3.3-2.4-6.8-5.2-7.3-9.8c-0.4-3.3-0.7-6.8,2-9.5c2.9-2.9,6-1.6,9.3-0.3c18.5,7.5,21.2,6.9,35-8.5
	c3.2-3.6,7.2-5.9,11.6-7c9.5-2.4,41.8,17.3,44.3,26.6C281.7,639.8,281.8,641.1,282.2,643.2z"/>
<path id="XMLID_320_" class="st2" d="M163.3,514.9c-3.7,0.3-6.3-1.1-8.5-4.1c-11.1-15.1-22.6-30-33.6-45.2c-2.9-4-5.2-8.6-6.9-13.3
	c-1.8-4.9,0.1-9.2,4.7-11.7c4.3-2.3,8-1.1,10.8,3c10,14.4,23,16.6,38.5,9.9c5.7-2.5,9.8-0.9,14,4.2c22.3,27.5,22.3,28.4-5.8,50.8
	C172.6,511.5,168.6,514.5,163.3,514.9z"/>
<path id="XMLID_319_" class="st2" d="M823.9,451.8c3,0.8,5.5,1.3,7.7,2.3c13.7,6,25.2,3.4,34.9-8.1c3.5-4.1,7.3-9.2,13.6-4.7
	c6.7,4.8,4.7,10.9,1.4,16.8c-8.3,14.7-19,27.7-30,40.2c-5.1,5.8-5.3,17.1-16.8,16.7c-9-0.4-13.7-7.7-19.9-12.4
	c-18.5-13.7-19.1-17.7-5.4-36.2C813.6,460.9,816.3,453.6,823.9,451.8z"/>
<path id="XMLID_318_" class="st2" d="M850.8,356.2c20.4,0.4,23.6,4.7,17.8,22.2c-5.1,15.5-10.7,30.8-15.8,46.2
	c-2.5,7.7-6.6,10.2-15,8.6c-32.6-6.2-33.9-8.2-21-39.5c2.7-6.6,5.2-13.2,7.9-19.8C829.9,361.6,837.9,353.5,850.8,356.2z"/>
<path id="XMLID_317_" class="st2" d="M148.4,356.3c11.3-1.5,18.6,4.1,23.6,15c5.9,12.9,11.6,25.9,15.8,39.5
	c3.6,11.7-0.9,18.4-12.8,20.6c-0.4,0.1-0.8,0.1-1.2,0.1c-24.4,3.4-24.3,3.4-32.2-20.4c-3.3-9.9-7.4-19.5-11-29.3
	C123.3,362.3,127.3,356.4,148.4,356.3z"/>
<path id="XMLID_316_" class="st2" d="M836.5,302.3c0,6.7,0.1,9.6,0,12.6c-0.9,18.2-9.7,25.6-27.7,23c-7.5-1.1-12.4-4.7-12.3-13.1
	c0.1-9.6-0.3-19.3,0.2-28.9c0.4-9.5,22.6-23,31.5-19.5c4,1.5,5.9,4.3,6.3,8.5C835.2,291.9,836.1,298.9,836.5,302.3z"/>
<path id="XMLID_315_" class="st2" d="M201.9,309.3c0,2.9-0.2,5.9,0,8.8c0.8,11.2-2.9,20-15.3,19.6c-16.6-0.5-23-4.1-23.9-17.3
	c-0.8-12.2,1.5-24,1.6-36.1c0-5.5,4.6-8.6,10.4-8.8c9.6-0.3,26.7,15.5,26.9,25c0.1,2.9,0,5.8,0,8.8
	C201.8,309.3,201.8,309.3,201.9,309.3z"/>
<path id="XMLID_314_" class="st2" d="M733.6,217.2c-5.1,0.5-8.9-1.1-10.3-7.5c-2.5-11.3-5.8-22.5-8.6-33.8c-0.4-1.8-0.5-4.6,0.6-5.9
	c7.3-8.4,17.8-8.8,27.6-9.3c7.9-0.5,8.7,7.5,10.7,13.3c1.1,3.1,2.2,6.3,3.4,9.4C763.9,200.9,753.1,216.9,733.6,217.2z"/>
<path id="XMLID_313_" class="st2" d="M258.3,161.1c2.8,0.3,6.6,0.4,10.2,1.1c13.9,2.8,16.5,7,13.1,20.6c-2,8.1-4.1,16.2-5.7,24.4
	c-1.8,9.1-7.4,11.2-15.6,9.7c-16.5-2.9-24.6-15.2-19.9-31.1c2-6.8,4.8-13.4,7.3-20C249.4,161.3,252.2,158.8,258.3,161.1z"/>
<path id="XMLID_312_" class="st2" d="M192.3,251.4c3.4-10,7.7-23.5,12.5-36.8c1.8-4.9,5.6-3.5,7.5-0.3c4.4,7,10.8,9.8,18.6,11.2
	c1.9,0.3,4,1.7,5.1,3.3c8.3,11.5-1.6,21.4-3.3,32c-1.2,7.2-7.7,7.8-13.9,7.5c-7.1-0.4-14.2,0.2-20.8-3.3
	C193.8,262.6,191.3,259.8,192.3,251.4z"/>
<path id="XMLID_311_" class="st2" d="M778.3,268.4c-6.3,1-11.8-2.3-13.7-11.6c-1-4.9-3.1-9.6-4.6-14.3c-3-9,0.7-14.8,9.3-17.4
	c6.5-2,12.4-3.8,16.6-10.1c3.3-5,6.9-2.9,8.7,2.6c3,9.2,6.3,18.2,9.3,27.4c5.2,16,2.6,20.2-14.1,22.7
	C786.8,268.1,783.8,268,778.3,268.4z"/>
<path id="XMLID_310_" class="st2" d="M339.6,140.2c-4.1,7.8-7,18.4-13.8,24.9c-10.8,10.3-18.5-2.5-26.7-7.5
	c-7.5-4.6-2.5-9.7,0.7-14.7c3.8-5.9,7.4-12.1,10.4-18.5c2.5-5.3,5.4-9.5,11.5-10.3c6.3-0.8,8.2,4.8,11.2,8.6
	C336.5,127.5,338.5,132.9,339.6,140.2z"/>
<path id="XMLID_309_" class="st2" d="M660,138.7c0.5-10.2,5-16.7,11.1-22.2c5-4.5,9.8-2.3,12.8,2.3c6.4,9.8,13.1,19.6,17.8,30.3
	c4.4,10-7.3,11.5-11.9,16.3c-5.4,5.6-13.2,4.7-17.9-1.1C665.5,156.5,661,147.4,660,138.7z"/>
<path id="XMLID_308_" class="st2" d="M624.2,131.8c-5.4-0.1-10-2-12.3-7.1c-3.8-8.5-9.8-15.5-15.2-22.9c-3.4-4.7-7.1-9.6-1.1-13.9
	c5.8-4.1,13.3-10.8,20.1-3.8c9.3,9.4,17.5,20.1,24.8,31.1C644.9,121.7,634.3,131.9,624.2,131.8z"/>
<path id="XMLID_307_" class="st2" d="M377.5,132.1c-10.4-1-16.9-4.1-20.2-10.8c-2.9-5.9,2.5-9.7,6-13.9c5.6-6.7,10.9-13.7,16.3-20.6
	c7.2-9.3,14.4-5.3,21.8-0.3c8,5.5,3.1,10.6-0.3,15.8c-5,7.6-10.1,15.3-15.1,22.9C383.2,129.3,380.4,132.9,377.5,132.1z"/>
<path id="XMLID_303_" class="st3" d="M537.7,482c0,41.1-0.2,82.2,0.2,123.3c0.1,10.7-2.5,14-13.8,11.3
	c-72.1-17.3-144.3-34.1-216.6-50.6c-8.6-2-10.2-5.8-10.5-13.6c-2.3-77.6-2.2-155.2-2.6-232.8c0-3.4,0-6.7,0-10.1
	c-0.2-21.4-0.2-21.5,20.4-16.7c64.8,15.2,129.7,30.5,194.5,45.7c2.4,0.6,4.7,1.8,7.1,2.6c21.4,6.5,21.3,6.5,21.3,28.6
	C537.6,407.4,537.7,444.7,537.7,482z M425.1,396.8c4.3,4.6,9,8.6,15.6,11.2c0.6-6.5-0.9-10.3-6.1-12c-12.3-13.1-27.2-20.3-45.3-19.8
	c-13.6,0.4-31.1,12.9-30.2,23.9c0.9,10.7-3.3,13.6-12.3,14.4c2.7,5,4.9,9.9,10.1,9.6c9-0.5,8.8,4.7,8.7,11.1
	c-0.2,18.1,0.1,36.1-0.1,54.2c-0.1,8.3,3.6,12.9,12.4,15.2c0-24,0.3-47.1-0.1-70.1c-0.1-7.5,1.8-10.7,9.8-10.1
	c8.8,0.6,17.6,0.1,26.4,0.1c25.2,0,25.2,0,23.8,25.7c0,0.5-1,1-2.3,2.2c-5-7.7-11.8-13.1-20.9-14.7c-8.6-1.5-15.9,1.4-21.2,8.1
	c-5.3,6.6-5,14.4-1.7,21.5c2.7,5.7,8.7,7.4,15,7.2c13.4-0.4,12.7-10.3,12.1-20c8.9,2.3,12.7,8,15.6,14.7c4.3,9.6,7.4,19.6,8.6,30.1
	c0.3,2.4,0.3,5.7,3.5,5.8c4.7,0.2,3.3-4.1,3.3-6.4c0.2-19.7,0.6-39.5,0.1-59.2c-0.2-9.7,0.5-17.4,13.5-15.9
	c-4.1-9-10.5-11.2-18.8-11.1c-20.6,0.4-41.1,0.2-61.7,0.2c-3.6,0-8,1.1-9.8-3.6c-1.6-4.2,1.2-7.1,3.6-10c3-3.6,6.8-6.2,11.1-8
	C401.6,385.2,413.3,391.1,425.1,396.8z"/>
<path id="XMLID_300_" class="st3" d="M574.8,478.1c0-41.1,0.2-82.2-0.2-123.3c-0.1-8.8,2.7-14,10.7-17.7
	c35.8-16.3,71.6-32.8,107.2-49.6c10-4.8,11-0.8,10.9,8c-1.1,83.9-2.1,167.7-2.7,251.6c-0.1,7.7-3.5,11.5-9.6,14.4
	c-34.7,16.6-69.6,33-104.1,50.1c-9.8,4.8-11.5,1.3-11.5-7.7c0.2-41.9,0.1-83.9,0.1-125.8C575.2,478.1,575,478.1,574.8,478.1z
	 M665.6,454c-8.4,1.1-15.5,4.5-13.4,15c1.5,7.1,7.2,9.2,13.5,8.1c10.2-1.8,13-9.3,12.8-18.6c-0.2-11.4-6-19.5-14.6-26.4
	c-2.6-2.1-7.5-1.5-8.2-6.7c9.9-0.5,19.4-1,29.8-1.5c-4.2-8.4-9.4-11.4-17.6-11.3c-25.1,0.4-50.3,0-75.4,0.1c-3.6,0-10-2.2-10,3.7
	c0,4.2,4.6,7.8,9.9,8c7.5,0.2,15.1,0.1,22.6,0.1c6.3,0,12.5,0,18.8,0c-10.4,7.7-21.1,12.3-30.8,18.8c-13.3,9-13.4,9.7-2.3,20.9
	c2.8,2.8,6,4.2,9.8,5.2c14.1,3.4,23.2,12.6,29.2,25.4c1.6,3.5,1.8,8.4,8.7,8.9c0-17.7-0.1-35.2,0.1-52.6c0-3-1.9-7.2,2.3-8.8
	c3.4-1.3,6.6,1.1,9.2,2.9C662.6,447.1,665.4,449.3,665.6,454z"/>
<path id="XMLID_299_" class="st3" d="M495.3,282.3c-37-4.7-72.1-7.2-106.5-14.8c-2.8-0.6-6.2-0.8-6.8-4.4c-0.2-1.2,1-3.4,2.2-4
	c20.7-10.7,38.8-26.7,62.9-30.4c3.6-0.6,8-2.5,10.6,1c3,4,0.3,8.5-2.5,11.4c-9.4,9.5-5.6,13.5,5.5,16.2c13,3.1,25.8,7,38.6,10.8
	c4.5,1.4,11.8,1.6,11.2,7.7c-0.6,5.6-7.9,4.7-12.5,6.3C496.5,282.6,494.7,282.4,495.3,282.3z"/>
<path id="XMLID_298_" class="st4" d="M534.4,262.5c-8-1.4-18.4-2.6-27.9-7.4c-7.1-3.5-9.1-8.2-3.6-14.8c3.5-4.2,6.3-9,10-12.8
	c5.1-5.3,7.6-15.2,15.3-15.5c12-0.5,24.1,2.1,35,8.1c5.5,3,5.3,7.1,2.4,11.5c-6.2,9.4-12.9,18.5-19.1,27.9
	C544,263.4,540.5,262.9,534.4,262.5z"/>
<path id="XMLID_297_" class="st3" d="M619.3,283.2c-5.5-0.7-15.8,3.2-13.4-9c1.6-8.1-5-21.3,9.3-23.2c15.4-2.1,26.5,7.1,26.7,19.6
	C641.9,279.6,636.4,282.8,619.3,283.2z"/>
<path id="XMLID_296_" class="st1" d="M456.3,850.1c3.1,9.9-3.7,11.9-10.8,12.2c-9,0.5-18.5-0.2-21.7-10.7
	c-2.6-8.5,1.7-15.6,10.2-17.3c12.7-2.4,26,0,40.2-3.2c-21.4-4.8-42.3,8.1-63-2.5c3.9-5,8.8-3.6,12.9-3.9c24.7-2.1,49.4-4.5,74.1-2.5
	c8.9,0.7,3.5-7,8.6-9.7c5.1,12.1,16.3,8.9,26.2,9.1c35.7,0.8,71.2,3.8,106.4,9.8c5.9,1,11.5,2.1,16.2,6.1c1.9,1.7,4.2,3.3,6.8,2.1
	c11.6-5.3,20.1-0.9,27.5,9.7c1.6-6.2,2.8-11,4.2-16.6c7.6,5,10.7,13.8,19.2,18.9c-11.8-1.5-14.7,4.5-16,13.9
	c-1.5,10.6-5,21-7.7,31.9c-8.2-2.4-9.8-7.2-7.8-14.4c1.7-6,3.1-12.2,3.9-18.4c1-7.4-1.9-12.8-10.9-16c1.8,5.9,9.3,9.7,4.2,15.1
	c-5.1,5.4-11.5,4.3-17.1,0.4c-3.7-2.6-7.3-0.8-10.9-0.5c-6.7,0.5-12-2-13.8-8.4c-1.5-5.8,4.8-6.2,8-8.6c0.9-0.7,1.5-1.8,2.6-3.2
	c-6.6-5-14.1-5-21.4-5.9c-10-1.3-20.1-2.1-29.9-4.1c-11.5-2.3-16,1.2-13.1,12.9c30.2-9.5,30.2-9.5,44,2.4
	c-9.5,7.6-14.1,17.3-12.9,29.6c0.2,2.2,1.5,5.5-2.4,5.8c-2.8,0.2-4.5-1.9-5.4-4.4c-2.3-6.1-2.4-12.4-1.6-18.6
	c1.4-10.5-3.5-9.3-9.8-5.8c-2.9,1.6-5.5,3.8-8.3,5.6c-2.9,1.9-4.8,6.7-9.4,3.5c-4.2-2.9-8.3-6-7.3-12.1c0.2-1.2,0.6-2.5,0.4-3.7
	c-0.9-5.5,5.5-14.4-3.1-16.1c-9.6-1.9-19.1,2.9-25,11.5c-4.4,6.5-5.7,14-1.1,21.3c2.7,4.2,3.8,1.4,6-1.1c4-4.6,9.4-5.1,14.7-1.8
	c3.1,1.9,5.1,4.8,3.5,8.5c-2.4,5.4-7.7,6.2-12.7,6.4c-9.6,0.3-17.3-3.8-21.9-12.2c-4.6-8.1-5-16.8-0.3-25.2c1.6-2.8,3.9-5.3,5.7-7.7
	c-0.4-3-2.5-2.4-4-2.5c-18.3-1-18.3-0.9-18.2,17.8c0,10.3,0,20.6,0,31.4c-8.6-1.4-11.1-5.7-10.9-12.6c0.3-8.4-0.1-16.8-0.1-25.2
	c0-7.9-4.2-11.6-11.8-11.3c-8.5,0.3-5.3,6.9-5.3,11.3c-0.1,9.2,0.4,18.5,0.2,27.7c-0.1,2.9,2.1,7.8-2.6,8.2
	c-4.3,0.4-7.7-2.8-7.9-7.9c-0.3-5.9-0.6-11.7-1.1-17.6c-0.3-3.3-0.3-7-4.2-8.4c-5.2-2-6.1,1.9-7.7,5.4c-1.2,2.6-4.4,1.9-6.8,2
	c-1-0.9-2-1.8-2.9-2.7c-9.4-7.2-14.7-6.1-17.9,4.5c5.6-5.2,11.2-8.3,18.1-4.5C455.1,847.6,456,848.6,456.3,850.1z"/>
<path id="XMLID_293_" class="st1" d="M320.9,848.4c-14.9-2.8-28.1,8-43-3.6c25.2-3.8,47.7-7.1,70.3-10.5c2.3-0.3,6.1,1.3,6.8-1.3
	c5.4-19.7,11.8,4.9,17.3-0.5c0.4,1.1,1.4,2.7,1,3.4c-8.5,14.6,1.1,28.8,0.8,43.1c-0.1,3,3.1,7.4-1.8,8.4c-4.3,0.9-8.2-1.9-9-6.8
	c-1.6-9.5-3-19-4.2-28.5c-1.1-8-5.8-10.9-13.2-9.5c-8.5,1.6-3.8,7.8-3.3,12c1.4,12.3,3.4,24.5,3.9,38.3
	c-12.3-13.4-27.3-18.1-44.3-17.8c-4.3,0.1-8.3-3.5-9.5-7.2c-1.3-4.4,4-5.6,6.9-7.4C305.9,856.6,312.5,853.1,320.9,848.4z
	 M332.3,872.4c0.4-5.7,2-11.8-2.6-13.3c-5.6-1.8-10.3,3.2-15.5,7.1C320.5,868.3,325.8,870.1,332.3,872.4z"/>
<path id="XMLID_292_" class="st1" d="M390,854.6c-5.6-3.3-11.3-6.6-8-14.5c3.4-8.2,10.9-9.7,18.5-10c6.6-0.2,12.6,2.2,14.9,9
	c2.3,6.7-2,10.9-7.5,13.9c-4.6,2.5-9.6,2.2-14.6,2C392.2,854.8,391.1,854.7,390,854.6z"/>
<path id="XMLID_291_" class="st5" d="M390,854.6c1.1,0.1,2.2,0.3,3.3,0.4c11.6,8.7,25.2,15,35.3,25.6c-0.5,1.1-1,2.1-1.5,3.2
	c-12.5-5.2-25.3-9.7-37.2-16C386.8,866.1,385.5,859,390,854.6z"/>
<path id="XMLID_290_" class="st5" d="M425.1,396.8c-11.8-5.7-23.5-11.5-37.1-5.7c-4.3,1.9-8.1,4.4-11.1,8c-2.5,2.9-5.2,5.8-3.6,10
	c1.8,4.7,6.2,3.6,9.8,3.6c20.6,0,41.1,0.2,61.7-0.2c8.3-0.1,14.7,2.1,18.8,11.1c-13-1.5-13.8,6.1-13.5,15.9
	c0.5,19.7,0.1,39.5-0.1,59.2c0,2.4,1.4,6.6-3.3,6.4c-3.2-0.1-3.2-3.4-3.5-5.8c-1.3-10.5-4.4-20.5-8.6-30.1
	c-2.9-6.6-6.7-12.4-15.6-14.7c0.5,9.7,1.2,19.6-12.1,20c-6.3,0.2-12.4-1.5-15-7.2c-3.3-7-3.6-14.9,1.7-21.5
	c5.4-6.7,12.6-9.6,21.2-8.1c9.1,1.6,15.9,7.1,20.9,14.7c1.3-1.2,2.3-1.7,2.3-2.2c1.4-25.7,1.4-25.7-23.8-25.7
	c-8.8,0-17.7,0.5-26.4-0.1c-8-0.5-9.9,2.7-9.8,10.1c0.4,23,0.1,46.1,0.1,70.1c-8.7-2.4-12.4-7-12.4-15.2c0.2-18.1-0.1-36.1,0.1-54.2
	c0.1-6.3,0.2-11.6-8.7-11.1c-5.2,0.3-7.4-4.6-10.1-9.6c9-0.8,13.2-3.7,12.3-14.4c-0.9-11,16.6-23.5,30.2-23.9
	c18.1-0.6,33,6.7,45.3,19.8C431.4,396.2,428.2,396.5,425.1,396.8z"/>
<path id="XMLID_289_" class="st1" d="M425.1,396.8c3.2-0.3,6.3-0.5,9.5-0.8c5.2,1.7,6.7,5.5,6.1,12
	C434.1,405.4,429.4,401.4,425.1,396.8z"/>
<path id="XMLID_286_" class="st5" d="M665.6,454c-0.2-4.7-2.9-6.9-5.6-8.8c-2.7-1.8-5.8-4.3-9.2-2.9c-4.2,1.6-2.2,5.8-2.3,8.8
	c-0.2,17.4-0.1,34.9-0.1,52.6c-6.9-0.5-7-5.4-8.7-8.9c-6-12.8-15.1-22-29.2-25.4c-3.8-0.9-6.9-2.3-9.8-5.2
	c-11.1-11.2-11-12,2.3-20.9c9.7-6.5,20.4-11.1,30.8-18.8c-6.3,0-12.5,0-18.8,0c-7.5,0-15.1,0-22.6-0.1c-5.3-0.1-9.9-3.7-9.9-8
	c0-6,6.4-3.7,10-3.7c25.1-0.2,50.3,0.2,75.4-0.1c8.2-0.1,13.4,2.9,17.6,11.3c-10.4,0.5-19.9,1-29.8,1.5c0.7,5.2,5.6,4.6,8.2,6.7
	c8.6,6.9,14.4,15,14.6,26.4c0.2,9.3-2.5,16.9-12.8,18.6c-6.3,1.1-12.1-1-13.5-8.1C650,458.5,657.1,455.1,665.6,454z M636.1,470.3
	c0-9.6,4.3-20-2-24.6c-4.8-3.5-12.9,4.1-18.1,9.6C622.4,460.1,628.4,464.5,636.1,470.3z"/>
<path id="XMLID_285_" class="st2" d="M453.4,847.6c-6.9-3.8-12.5-0.7-18.1,4.5c3.2-10.6,8.5-11.6,17.9-4.5L453.4,847.6z"/>
<path id="XMLID_284_" class="st2" d="M453.3,847.6c1,0.9,2,1.8,2.9,2.7c0,0,0.1-0.2,0.1-0.2c-0.3-1.6-1.1-2.5-2.8-2.6
	C453.4,847.6,453.3,847.6,453.3,847.6z"/>
<path id="XMLID_283_" class="st2" d="M332.3,872.4c-6.5-2.2-11.8-4-18.1-6.2c5.2-3.9,10-8.9,15.5-7.1
	C334.3,860.6,332.7,866.7,332.3,872.4z"/>
<path id="XMLID_282_" class="st3" d="M636.1,470.3c-7.7-5.7-13.7-10.2-20.2-15c5.2-5.5,13.3-13.1,18.1-9.6
	C640.4,450.3,636.1,460.7,636.1,470.3z"/>
<g id="XMLID_3_">
	<path id="XMLID_4_" class="st0" d="M906.9,442c-0.5,0.7-0.9,1.3-1.4,2c1,0.2,2.2,0.1,3.7-0.3c0,0,0.4,0.2,0.4,0.2
		C909.6,441.9,908.7,441.2,906.9,442z"/>
	<path id="XMLID_7_" class="st0" d="M898.7,431.9c-21.7-14.8-17.3-35.2-10.6-55.7c1.4-4.3,3.2-8.6,4-13c2.6-15.7-1.2-21.6-15.9-26.1
		c-20.4-6.2-24.4-11.8-21.2-32.9c1.6-10.6,0.1-20.9-0.8-31.2c-0.9-10.3-8.1-17-18.9-17.4c-6-0.2-8.6-2.2-10.2-7.8
		c-4.1-14.7-9.7-28.9-13-43.8c-2.3-10.7-9.2-15.1-17.6-13.3c-10.6,2.3-14.5-3.1-18.2-10.3c-3-5.8-5.3-12-7.4-18.1
		c-8.2-24.3-9.5-25.5-30.1-25.8c-12.3,8.1-15.5-2.8-20.5-9.8c-3.6-5-7.1-10.1-10.8-14.9c-7.7-9.9-17-19.3-30.1-17.6
		c-17.4,2.2-29.6-3-39.3-17.3c-4.4-6.6-11.2-11.3-18.3-15c-12.1-6.5-24.1-5.4-35.3,2.3c-4.9,3.4-9.3,7.6-13.9,11.4
		c-1.9,2.1-3.9,4.2-5.8,6.3c-1.7,5.9-0.9,11.4,1.7,17c9.9,21.1,25.3,38.1,40.3,55.6c4.2,4.9,8,4.7,14.1,2.7c15.1-5,23-0.9,30.5,13.7
		c1.3,2.6,2.5,5.3,3.5,8c6.5,16.4,6.5,16.4,23.8,11.2c1.6-0.5,3.4-0.6,4.8-1.3c6.4-3.5,10-1.1,12.5,5.1
		c4.8,12.1,11.3,23.5,14.3,36.2c1.3,5.3,3.2,10.1,9.7,9.3c15.5-2,20.7,8.1,24,20.1c2.1,7.6,3.8,15.5,4.8,23.4
		c1.2,8.7,4.2,14.1,14.2,13.2c7.8-0.7,11.5,3,11.4,11.1c-0.2,13.5,4.2,26.9,3.5,40c-0.7,14.8,5.6,17.7,17.5,16.3
		c10.5-1.3,9.8,3.9,7.5,11c-4,12.3-7.7,24.8-11.6,37.2c-2.6,8.2-1.9,15.5,4,22.3c6.3,7.4,6.1,15.3,0.5,23.1
		c-5.6,7.8-10.9,16-17.1,23.4c-5.8,7-6.7,13,0.6,19.4c7.3,6.4,6.1,12.5-0.3,19.3c-12,12.9-24.4,25.5-38.1,36.6
		c-7,5.7-9.9,12.2-7.1,21c5.8,18.6,5.8,18.7-10.5,29.5c-5.9,3.9-11.8,8.2-18.3,11.1c-11.6,5.1-13.5,13.3-10.6,24.6
		c4.2,16.6,2.2,21-12.9,29.6c-16.7,9.6-33.2,19.8-50.5,28.3c-12.4,6.1-15.1,14.1-11,26.4c5.5,16.5,10.4,33.1,16,51
		c-45.5-3.7-89.6-3.3-133.6-4c-43.2-0.7-86.5-1.6-129.6,3.6c-9.2,1.1-10.6-1-7.3-9.7c5.3-14.1,9.2-28.7,13.7-43.1
		c3.2-10.1,1.2-17.5-9.1-22.8c-17.1-8.8-33.8-18.6-50.5-28.3c-18.3-10.6-19.3-12.9-14.8-33.2c2.2-9.8-0.2-16.9-9.8-21.8
		c-8.9-4.5-17.1-10.5-25.7-15.8c-8.8-5.4-12.1-12-6.2-21.8c6-10,2.9-18-6-25.1c-13.2-10.4-24.7-22.7-36.3-34.8c-7-7.3-9-14-0.6-21.3
		c6.3-5.5,5.9-11.1,0.8-17.5c-6.3-7.9-11.9-16.2-17.7-24.4c-5.9-8.2-6.1-16.3,0.8-24.1c5.3-5.9,6.2-12.6,3.9-20
		c-3.8-12.4-7.2-24.9-11.6-37.1c-3.5-9.7-2-13.6,9.3-12.7c5.8,0.4,14.4,2.6,15.1-8.2c1.1-15.4,2.8-30.8,3.5-46.3
		c0.4-8.6,3-13.7,12.4-12.9c9.4,0.9,12-4.7,13.2-12.7c1.7-10.7,3.1-21.6,7.8-31.6c2.4-4.9,5.1-11.9,10.7-11.1
		c17.6,2.3,20.4-9.5,24-22c1.8-6.4,5.1-12.4,7.8-18.5c6.7-15,7.2-15.6,21.9-8.8c9,4.2,14.5,0.9,18.7-6.4c2.7-4.6,4.3-9.8,6.9-14.5
		c8.1-14.6,13.2-16.8,29-12.4c5.3,1.5,9.2,1.1,13.1-3.4c6.8-7.8,14.2-15,21.3-22.5c0.8-0.8,1.5-1.7,2.2-2.5
		c0.8-5.4,5.3-8.6,7.8-12.9c6.3-10.8,17.2-20.3,12.4-35.1c-2.8-2.6-5.6-5.2-8.4-7.9c-0.8,0.1-1.3-0.2-1.5-1
		c-2.9-1.2-6.1-2.1-7.5-5.5c-17.5-14.1-29.7-12.1-47.3,1.1c-3.8,3.8-7.7,7.5-11.5,11.3c-6.5,4.8-8.9,15-19.3,14.5
		c-1.5,1.6-3.2,2.4-5.4,1.5c-16.8-4.3-30.5,0.5-41.2,14.1c-3.1,3.9-3.5,9.4-7.8,12.4c-1,3.1-2.6,5.9-5.6,7.5
		c-3.5,8.4-8.4,12.3-18.2,8.2c-6.1-2.6-13.2-0.4-19.8,0.4c-1.1,1.9-2.7,2.1-4.6,1.7c-2.5,15.4-7.4,30.1-15.1,43.7
		c-3.4,6.1-7.3,10.1-16,7.3c-9.2-2.9-17.1,1-19.9,11.3c-4.2,15-8.5,29.9-11.8,45.1c-1.4,6.3-4.4,8.1-10,8.7
		c-12.7,1.5-18.2,8.6-19,21.7c-1,15.2,1.6,30.7-2.9,45.6c-0.5,1-1.1,2-1.6,3c-2.6,12.4-14.2,9.5-22,12.1c-9.4,3.1-13.4,8-13.6,17.8
		c-0.2,9.5,4.5,17.2,7.1,25.7c5.3,17.5,10.9,34.6-9.3,47.1c-2.3,1.4-4.5,4.5-4.9,7c-1.3,9.4-6.4,18.5,2.9,28.1
		c9.1,9.4,18.5,19.3,23.8,31.9c3.5,8.2,4.2,14.5-3.3,22.4c-15.1,15.9-16.4,32.8,2.8,47.7c10.2,7.9,19.6,17,29.1,25.7
		c3.9,3.6,7.6,7.5,7.8,13.5c0.4,12.6,1.3,25.5-2.1,37.4c-3.1,11.1,1.7,17,9.3,21.8c15.7,9.8,32,18.9,48,28.3c1.9,0.5,3,1.6,2.8,3.7
		c0,0.8,0.1,1.6,0.1,2.4c1,2.6,1.4,5.2,0,7.8c0.4,5.7,0.4,11.1-2.5,16.6c-3.8,7-0.9,13,5.5,17.3c3.7,2.5,7.6,4.7,11.4,7
		c1.9,0.7,4.4,1.5,3.4,3.8c-0.3,0.8-3.7,0.4-5.7,0.6c-13.2,2.9-27.7,2.8-39.5,7.5c-16.2,6.5-33.8,9.5-48.9,19.8
		c-10,6.8-18.7,14.7-27.1,23c-2.5,2.5-4.6,5.5,1.7,9c10.8,5.9,20.3,14.4,30.5,21.5c15.4,10.7,15.8,11.6,10,30.2
		c0.3,2.4,0.4,4.9-1.7,6.7c-5.3,15.4-7.8,31.7-15.3,46.4c0,1.6-0.1,3.2-0.1,4.8c1.9,3.5-5.4,6-0.5,10.4
		c26.7-16.9,56.5-27.5,85.8-39.3c9-3.6,19.3-8.6,26.7-0.6c8.6,9.4,10.6,22.4,9,35.5c0,0,0.3,0.1,0.3,0.1
		c4.7,13.9,14.1,17.8,27.6,12.9c4.8-1,9.7-2,14.5-3c15.9-2.5,31.9-5,47.8-7.6c1.7-0.1,3.4-0.3,5.1-0.4c31-6,62.5-5.4,93.9-6.4
		c27-0.9,54,0.9,81,2.9c18.9,1.4,37.9,3.7,56.9,3.9c1.9-0.4,3.8-0.7,5.3,0.9c27.1,2.5,54,6.4,80.4,13.3c0.8,0.1,1.7,0.3,2.5,0.4
		c8.4,1.9,16.8,3.9,25.1,5.8c1.7-0.1,3.4-0.1,5.2-0.2c8-2.4,12.6-8.3,15.5-15.8c3.9-10.1,8.3-20,11.2-30.3c1.8-6.3,4.3-7.3,10.4-7
		c22.4,1.3,41.8,11.8,62.3,18.9c15.1,5.2,29,12.8,44,20.8c-3.8-27.9-6.8-54.4-11.5-80.7c-1.1-6.4,0.4-9.3,4.6-12.3
		c8.8-6.4,17.9-12.4,26.3-19.3c11.2-9.3,11.4-11.7-0.7-20.5c-31.9-23.1-67.1-38.4-106.8-42.2c-3.6,0.2-7.3,0.4-12,0.7
		c2.5-6.2,7.3-8.1,11.8-10.3c5.7-4,11.4-8,17-12c1-0.9,2.1-1.9,3.1-2.8c2-8.4-0.3-16.7-0.7-25c-0.8-15.6,6.9-28,22.1-32.6
		c12.2-3.7,20.8-13.5,32.5-18.1c2.9-1.1,4.3-5.1,4.1-8.7c-0.7-12.1,1.7-24.3-1.7-36.3c-1.8-6.4-0.7-12.2,2.6-18
		c7.4-13,20.8-18.8,31.7-27.7c1.6-3,4-5.1,7.3-6.2c11.8-12.9,13-26.5,3.5-38.9c-14.2-18.5-12.9-25.2,1.8-43.7
		c8.4-10.7,18.4-21.4,20.2-36.2c0.3-0.3,0.5-0.7,0.7-1C900,443.1,902.7,434.7,898.7,431.9z M624.2,131.8c-5.4-0.1-10-2-12.3-7.1
		c-3.8-8.5-9.8-15.5-15.2-22.9c-3.4-4.7-7.1-9.6-1.1-13.9c5.8-4.1,13.3-10.8,20.1-3.8c9.3,9.4,17.5,20.1,24.8,31.1
		C644.9,121.7,634.3,131.9,624.2,131.8z M689.7,165.4c-5.4,5.6-13.2,4.7-17.9-1.1c-6.3-7.8-10.8-16.9-11.8-25.6
		c0.5-10.2,5-16.7,11.1-22.2c5-4.5,9.8-2.3,12.8,2.3c6.4,9.8,13.1,19.6,17.8,30.3C706,159.1,694.3,160.6,689.7,165.4z M363.3,107.4
		c5.6-6.7,10.9-13.7,16.3-20.6c7.2-9.3,14.4-5.3,21.8-0.3c8,5.5,3.1,10.6-0.3,15.8c-5,7.6-10.1,15.3-15.1,22.9
		c-2.6,4-5.5,7.6-8.3,6.8c-10.4-1-16.9-4.1-20.2-10.8C354.4,115.4,359.9,111.5,363.3,107.4z M299.8,142.9
		c3.8-5.9,7.4-12.1,10.4-18.5c2.5-5.3,5.4-9.5,11.5-10.3c6.3-0.8,8.2,4.8,11.2,8.6c3.7,4.7,5.6,10.2,6.7,17.4
		c-4.1,7.8-7,18.4-13.8,24.9c-10.8,10.3-18.5-2.5-26.7-7.5C291.6,153,296.6,147.9,299.8,142.9z M850.8,356.2
		c20.4,0.4,23.6,4.7,17.8,22.2c-5.1,15.5-10.7,30.8-15.8,46.2c-2.5,7.7-6.6,10.2-15,8.6c-32.6-6.2-33.9-8.2-21-39.5
		c2.7-6.6,5.2-13.2,7.9-19.8C829.9,361.6,837.9,353.5,850.8,356.2z M733.6,217.2c-5.1,0.5-8.9-1.1-10.3-7.5
		c-2.5-11.3-5.8-22.5-8.6-33.8c-0.4-1.8-0.5-4.6,0.6-5.9c7.3-8.4,17.8-8.8,27.6-9.3c7.9-0.5,8.7,7.5,10.7,13.3
		c1.1,3.1,2.2,6.3,3.4,9.4C763.9,200.9,753.1,216.9,733.6,217.2z M789.7,267.6c-2.9,0.4-5.9,0.4-11.4,0.8c-6.3,1-11.8-2.3-13.7-11.6
		c-1-4.9-3.1-9.6-4.6-14.3c-3-9,0.7-14.8,9.3-17.4c6.5-2,12.4-3.8,16.6-10.1c3.3-5,6.9-2.9,8.7,2.6c3,9.2,6.3,18.2,9.3,27.4
		C809,260.9,806.4,265.1,789.7,267.6z M796.5,324.8c0.1-9.6-0.3-19.3,0.2-28.9c0.4-9.5,22.6-23,31.5-19.5c4,1.5,5.9,4.3,6.3,8.5
		c0.7,7.1,1.6,14.1,2,17.5c0,6.7,0.1,9.6,0,12.6c-0.9,18.2-9.7,25.6-27.7,23C801.3,336.8,796.4,333.2,796.5,324.8z M240.4,185.9
		c2-6.8,4.8-13.4,7.3-20c1.7-4.5,4.5-7,10.5-4.8c2.8,0.3,6.6,0.4,10.2,1.1c13.9,2.8,16.5,7,13.1,20.6c-2,8.1-4.1,16.2-5.7,24.4
		c-1.8,9.1-7.4,11.2-15.6,9.7C243.9,214,235.8,201.8,240.4,185.9z M192.3,251.4c3.4-10,7.7-23.5,12.5-36.8c1.8-4.9,5.6-3.5,7.5-0.3
		c4.4,7,10.8,9.8,18.6,11.2c1.9,0.3,4,1.7,5.1,3.3c8.3,11.5-1.6,21.4-3.3,32c-1.2,7.2-7.7,7.8-13.9,7.5c-7.1-0.4-14.2,0.2-20.8-3.3
		C193.8,262.6,191.3,259.8,192.3,251.4z M164.3,284.3c0-5.5,4.6-8.6,10.4-8.8c9.6-0.3,26.7,15.5,26.9,25c0.1,2.9,0,5.8,0,8.8
		c0.1,0,0.1,0,0.2,0c0,2.9-0.2,5.9,0,8.8c0.8,11.2-2.9,20-15.3,19.6c-16.6-0.5-23-4.1-23.9-17.3
		C161.9,308.2,164.3,296.4,164.3,284.3z M148.4,356.3c11.3-1.5,18.6,4.1,23.6,15c5.9,12.9,11.6,25.9,15.8,39.5
		c3.6,11.7-0.9,18.4-12.8,20.6c-0.4,0.1-0.8,0.1-1.2,0.1c-24.4,3.4-24.3,3.4-32.2-20.4c-3.3-9.9-7.4-19.5-11-29.3
		C123.3,362.3,127.3,356.4,148.4,356.3z M121.2,465.5c-2.9-4-5.2-8.6-6.9-13.3c-1.8-4.9,0.1-9.2,4.7-11.7c4.3-2.3,8-1.1,10.8,3
		c10,14.4,23,16.6,38.5,9.9c5.7-2.5,9.8-0.9,14,4.2c22.3,27.5,22.3,28.4-5.8,50.8c-4,3.2-7.9,6.2-13.3,6.5c-3.7,0.3-6.3-1.2-8.5-4.2
		C143.6,495.6,132.2,480.7,121.2,465.5z M142.8,557.9c-2.3-2.4-4-5.3-5.5-8.3c-5.1-10.6-2.5-14.7,9.2-14.7c2.5,0,5,0,6.6,0
		c9.9,1.2,18.3-0.1,26.1-5.1c6.6-4.2,13-2.7,18.3,2.4c12,11.6,23.8,23.5,35.6,35.3c5.1,5.1,5.2,10.5-0.1,15.2
		c-5.9,5.4-10.7,11.7-15.1,18.3c-6.3,9.2-14.8,9.7-22.7,3.3C177.2,589.6,159,574.8,142.8,557.9z M186.6,647.1
		c-3.3-2.4-6.8-5.2-7.3-9.8c-0.4-3.3-0.7-6.8,2-9.5c2.9-2.9,6-1.6,9.3-0.3c18.5,7.5,21.2,6.9,35-8.5c3.2-3.6,7.2-5.9,11.6-7
		c9.5-2.4,41.8,17.3,44.3,26.6c0.3,1.2,0.4,2.4,0.8,4.6c-6.1,12.4-12.3,25.5-19.2,38.3c-2.6,4.8-7.6,4.1-12.3,2.1
		C227.9,673.9,206.4,661.9,186.6,647.1z M247.2,855.4c2.4,8.7,1.5,13-7.3,15.9c-18.3,6-36.4,12.7-54.5,19.2
		c-7.6,2.7-11.3,1.6-9.1-7.6c1.5-6.5,1.7-13.4,3.5-19.8c6.4-22.4-2.9-38.1-20.6-50.7c-4.5-3.2-12.5-8-2.7-12.5
		c26.7-12.2,54.5-21.6,82.3-25.9c7.3,0,13.1-0.4,9.2,8.7C237.9,806.7,240.5,831.3,247.2,855.4z M246.2,731.4c-6.1-3.6-9.5-8-9.3-15
		c0.2-9,4.3-12.1,13-8.7c15.7,6,20.9,3.8,28.8-11.4c1.9-3.7,3.7-7.6,6.2-10.9c4.9-6.7,10.2-8.5,18-2.9c12.2,8.8,25.6,15.9,38.1,24.3
		c7.2,4.9,14.5,10.3,14.8,16.9c0.1,9.8-3.5,14.7-6.5,19.7c-5.5,9-10.7,18.1-13.9,28.1c-2.6,8.1-6.3,9.7-13.7,5.1
		C296.7,761.2,271.5,746.1,246.2,731.4z M306.5,786.1c-9.3,2.1-16.1,3.8-23,5.1c-3.4,0.7-8.2,3.6-10.1-0.6
		c-1.8-3.7,1.9-7.8,3.8-11.5c1.9-3.6,4.4-4.4,8.2-2.6C291.7,779.5,298.1,782.3,306.5,786.1z M725.7,846.3
		c-4.1,24.6-15.3,46.9-22.5,70.5c-2.4,7.8-8.6,6.6-16.7,6.6c-24.2-4.2-50.5-9.6-77-13.4c-65.2-9.4-130.6-15.1-196.6-10.3
		c-39.7,2.9-79.3,6.4-118.2,15.3c-9.4,2.2-13.6-1.5-15.1-11.2c-4.3-26.4-9.3-52.7-14.2-79c-1.5-7.9,0.3-12.1,9.1-14.1
		c36.4-8.2,73.3-13.1,110.4-16.7c25.9-2.5,52-3.4,77.8-3.5c45.6-0.2,91.3,0.6,136.8,5.3c34.2,3.5,68.2,8.1,101.6,16.3
		c0.8,0.2,1.7,0.3,2.5,0.5C728.1,819,729.8,821.7,725.7,846.3z M727,790.6c-1.9,4.2-6.7,1.2-10.1,0.6c-6.9-1.3-13.8-3-23-5.1
		c8.4-3.8,14.9-6.5,21.1-9.5c3.8-1.8,6.4-1,8.2,2.6C725.1,782.8,728.7,786.9,727,790.6z M763.6,784.3c23,2.6,48.6,6.7,72.2,18.5
		c13,6.5,13.9,10.4,2.1,17.4c-19.3,11.4-25.5,24.8-19.5,47.9c7,27.2,4.5,28-22.7,20c-15.2-4.5-30.2-10-45.4-14.5
		c-5.5-1.6-6.3-4.2-4.8-9.1c3-9.5,5.6-19.2,8.6-28.8c4-12.7,1.8-24.7-3.3-36.7C744.6,784.5,745.2,783.6,763.6,784.3z M754.7,729.2
		c-14.9,9.4-29.9,18.6-45,27.7c-11.5,6.9-23.1,13.6-34.8,20.3c-3.3,1.9-7.7,4.3-9.6-0.8c-6-15.8-14.5-30.2-22.3-45
		c-0.6-1-0.4-2.5-0.6-3.9c0.5-9.2,6.4-15.3,13.4-20c13.6-9.1,27.7-17.4,41.5-26.1c7.5-4.7,12.9-1.6,16.8,4.9
		c2.8,4.6,4.5,10,7.5,14.4c5.6,8.1,12.5,13.8,23.2,8.6c5.2-2.5,11.4-6.8,15,1C763.4,717.4,761.8,724.7,754.7,729.2z M809.9,649.9
		C791.3,661.3,773,673.1,753,682c-13.5,6-19.9,3.3-24.2-11.2c-2-6.9-4.2-13.7-8.5-19.5c-6.8-9.1-4.3-16.5,4-22.6
		c4.7-3.5,10-6.1,15.1-9c21-12,21-12,38.7,4.4c7.9,7.3,15.9,11.2,27,4.5c9.6-5.8,14.4-2.9,14.5,6.8
		C820.1,642.3,815.3,646.6,809.9,649.9z M860,551.7c-5.2,9.4-14,15.6-21.5,22.7c-10.6,10-22.2,19-33.4,28.5c-3.6,3-7.5,5.3-12.4,5.4
		c-4.5,0-8.4-1.6-10.9-5.2c-5.3-7.6-10.7-14.9-17.5-21.3c-4.8-4.6-3.8-9.8,0.8-14.3c12.2-12.1,24.5-24.1,36.6-36.3
		c4.9-4.9,11.5-5.7,16.1-2.3c10.2,7.4,21.3,6.1,32.6,6C864.4,534.8,866.9,539.3,860,551.7z M881.6,458c-8.3,14.7-19,27.7-30,40.2
		c-5.1,5.8-5.3,17.1-16.8,16.7c-9-0.4-13.7-7.7-19.9-12.4c-18.5-13.7-19.1-17.7-5.4-36.2c4-5.4,6.7-12.7,14.4-14.5
		c3,0.8,5.5,1.3,7.7,2.3c13.7,6,25.2,3.4,34.9-8.1c3.5-4.1,7.3-9.2,13.6-4.7C886.9,446,885,452.1,881.6,458z"/>
</g>
</svg>
