<?xml version="1.0" encoding="utf-8"?>
<!-- Generator: Adobe Illustrator 19.0.0, SVG Export Plug-In . SVG Version: 6.00 Build 0)  -->
<svg version="1.1" id="Layer_1" xmlns="http://www.w3.org/2000/svg" xmlns:xlink="http://www.w3.org/1999/xlink" x="0px" y="0px"
	 viewBox="-430 237 138 27" style="enable-background:new -430 237 138 27;" xml:space="preserve">
<style type="text/css">
	.st0{fill:#D00C09;}
</style>
<g>
	<path d="M-390.4,246.7v10.9l-0.6-0.7c0-0.1-0.1-0.2-0.1-0.3c-0.1-0.1-0.2-0.3-0.3-0.6c-0.2-0.3-0.4-0.6-0.7-1
		c-0.3-0.4-0.5-0.6-0.8-0.9c-0.9-0.8-2.1-1.3-3.5-1.4l-1.4-1.9c2.1-1.4,4.2-2.5,6.4-3.3v-0.8h-7.1l-1-1h10.3l1,1H-390.4z
		 M-391.4,249.1c-0.7,0.2-1.3,0.5-2,0.9s-1.4,0.8-2.2,1.3c1.9,0.8,3.3,2,4.2,3.6V249.1z"/>
	<path d="M-386.5,246.7v10.8l-1-1v-7.7c0-0.3-0.1-0.6-0.2-0.9c-0.1-0.3-0.3-0.5-0.5-0.7c-0.2-0.2-0.5-0.3-0.7-0.4
		c-0.3-0.1-0.6-0.2-0.9-0.2l-1-1h1.2c0.6,0,1.1,0.1,1.5,0.4c0.3,0.3,0.6,0.7,0.8,1.4c0-0.2,0-0.5,0-0.8c0-0.3,0-0.7-0.1-1.1
		c0-0.4,0-0.8-0.1-1.1c0-0.3,0-0.6,0-0.8l0.4,0.3c0.1,0.7,0.3,1.3,0.6,1.6h0.7l1,1H-386.5z"/>
	<path d="M-379.6,248.4c0,0.6-0.2,1.2-0.6,1.7c-0.4,0.5-0.9,0.7-1.6,0.7c-0.7,0-1.2-0.2-1.7-0.7c-0.5-0.5-0.7-1.1-0.7-1.7
		c0-0.3,0.1-0.6,0.2-0.9c0.1-0.3,0.3-0.5,0.5-0.8c0.5-0.5,1-0.8,1.6-0.8c0.7,0,1.2,0.3,1.7,0.8
		C-379.8,247.1-379.6,247.7-379.6,248.4z M-378.8,257.6c-0.4-0.4-0.8-0.8-1.2-1.2c-0.4-0.4-0.9-0.7-1.4-1.1c-0.5-0.3-0.9-0.7-1.4-1
		c-0.4-0.3-0.9-0.6-1.2-0.8v-2.3c0.8,0.6,1.7,1.5,2.7,2.6c1,1.1,1.8,2.1,2.4,2.9V257.6z M-380.6,247.8c0-0.6-0.2-0.9-0.7-0.9
		c-0.5,0-0.9,0.2-1.3,0.6c-0.2,0.2-0.3,0.4-0.4,0.7c-0.1,0.2-0.1,0.5-0.1,0.7c0,0.5,0.2,0.8,0.6,0.8c0.5,0,1-0.2,1.4-0.6
		C-380.8,248.8-380.6,248.3-380.6,247.8z"/>
	<path d="M-369.2,246.7v11l-1.1-1v-5.9c0-0.4-0.1-0.7-0.4-1c-0.3-0.3-0.6-0.4-1-0.4c-0.6,0-0.9,0.4-0.9,1.1c0,0.2,0,0.4,0.1,0.6
		l-0.4,0.2c-0.1-0.6-0.4-1-0.8-1.4c-0.4-0.4-1-0.5-1.6-0.5c-0.3,0-0.5,0.1-0.7,0.2c-0.2,0.1-0.4,0.2-0.6,0.4
		c-0.2,0.2-0.3,0.4-0.4,0.6c-0.1,0.2-0.2,0.5-0.2,0.8c0,0.8,0.5,1.3,1.5,1.5c-0.2-0.3-0.3-0.6-0.3-0.9c0-0.3,0.1-0.6,0.4-0.8
		c0.2-0.2,0.5-0.3,0.8-0.3c1,0.1,1.4,0.6,1.4,1.5c0,0.4-0.2,0.7-0.4,1c-0.3,0.3-0.7,0.4-1.2,0.4c-0.4,0-0.9-0.1-1.2-0.2
		s-0.7-0.3-1-0.6c-0.3-0.3-0.5-0.6-0.6-0.9c-0.1-0.4-0.2-0.8-0.2-1.2c0-0.7,0.2-1.4,0.6-2c0.4-0.7,1-1,1.7-1c0.9,0,1.7,0.5,2.4,1.4
		c0-0.3,0.1-0.6,0.4-0.9c0.3-0.3,0.6-0.4,0.9-0.4c0.9,0,1.5,0.6,1.9,1.7v-2.9h-8.5l-1.1-1h11.5l1.1,1H-369.2z"/>
	<path d="M-365.4,246.7v10.8l-1-1v-7.7c0-0.3-0.1-0.6-0.2-0.9c-0.1-0.3-0.3-0.5-0.5-0.7c-0.2-0.2-0.5-0.3-0.7-0.4
		c-0.3-0.1-0.6-0.2-0.9-0.2l-1-1h1.2c0.6,0,1.1,0.1,1.5,0.4c0.3,0.3,0.6,0.7,0.8,1.4c0-0.2,0-0.5,0-0.8c0-0.3,0-0.7-0.1-1.1
		c0-0.4,0-0.8-0.1-1.1c0-0.3,0-0.6,0-0.8l0.4,0.3c0.1,0.7,0.3,1.3,0.6,1.6h0.7l1,1H-365.4z"/>
	<path d="M-357.4,246.7c-0.8,0.2-1.5,0.5-2,0.9c-0.6,0.4-1.1,0.9-1.4,1.5c-0.4,0.6-0.6,1.2-0.8,1.9c-0.2,0.7-0.3,1.4-0.3,2.3
		c0,0.7,0.2,1.4,0.6,2c0.7,0.9,1.3,1.3,1.9,1.1c-0.2-0.1-0.4-0.3-0.5-0.5c-0.1-0.2-0.2-0.4-0.2-0.6c0-0.3,0.1-0.6,0.4-0.8
		c0.3-0.2,0.6-0.3,0.9-0.3c0.3,0,0.6,0.1,0.9,0.4c0.2,0.3,0.4,0.6,0.4,1.1c0,0.2,0,0.5-0.1,0.7c-0.1,0.2-0.2,0.4-0.4,0.5
		c-0.2,0.2-0.4,0.3-0.6,0.4c-0.2,0.1-0.5,0.1-0.7,0.1c-1.2,0-2.1-0.6-2.8-1.8c-0.5-1-0.8-2.1-0.8-3.4c0-1.8,0.7-3.6,2.2-5.3h-3.4
		l-1-1h6.9L-357.4,246.7z"/>
	<path d="M-355.6,246.7v4.8c0.4-0.4,0.8-0.8,1.2-1.1c0.4-0.4,0.9-0.7,1.3-1c0.4-0.3,0.9-0.5,1.3-0.8c0.4-0.2,0.8-0.4,1.1-0.5
		l1.7,1.3c-0.5,0.9-0.8,1.8-1.1,2.6s-0.4,1.6-0.4,2.4c0,0.8,0.1,1.8,0.4,3.2l-0.7-0.4c-0.2-1-0.4-1.8-0.5-2.6
		c-0.1-0.8-0.2-1.4-0.2-1.9c0-0.9,0.1-1.8,0.4-2.7c-0.9,0.4-1.8,0.9-2.5,1.6c-0.8,0.7-1.4,1.6-1.8,2.5l-1.4-1.5v-6.1h-1.1l-1.1-1
		h10.2l1,1H-355.6z"/>
	<path d="M-338.4,246.7v10.9l-1.1-1.1l0.1-6.7c0-0.4-0.2-1-0.7-1.6c-0.5-0.6-0.9-0.9-1.3-0.9c-0.3,0-0.5,0.1-0.8,0.3
		c-0.3,0.2-0.4,0.4-0.4,0.6c1.1,0.8,1.6,1.4,1.6,1.9c0,0.4-0.1,0.8-0.4,1.1c-0.2,0.3-0.6,0.5-1,0.6c-0.3,0-0.7-0.1-1-0.3
		c-0.3-0.2-0.5-0.5-0.6-0.9c-0.3,0.9-0.9,1.3-1.7,1.3c-0.4,0-0.7-0.2-0.9-0.5c-0.2-0.3-0.4-0.6-0.4-1c0-0.2,0-0.5,0.1-0.7
		c0.1-0.2,0.2-0.5,0.4-0.7c0.2-0.2,0.4-0.4,0.6-0.6c0.2-0.2,0.5-0.3,0.7-0.4c-0.5-0.9-1.1-1.3-1.7-1.3c-0.7,0-1.1,0-1.2,0l-1-1h2.2
		c0.5,0,1.1,0.2,1.5,0.6c0.5,0.4,0.8,0.9,0.9,1.5c0.6-1.4,1.5-2.1,2.6-2.1c0.4,0,0.9,0.4,1.5,1.1c0.6,0.7,0.9,1.2,1.1,1.7h0.1
		l-0.2-4.6l0.6,0.6c0.1,0.8,0.5,1.2,1.1,1.3l1,1H-338.4z"/>
	<path d="M-325.7,246.7c-0.8,0.2-1.5,0.5-2,0.9c-0.6,0.4-1.1,0.9-1.4,1.5c-0.4,0.6-0.6,1.2-0.8,1.9c-0.2,0.7-0.3,1.4-0.3,2.3
		c0,0.7,0.2,1.4,0.6,2c0.5,0.8,1,1.2,1.7,1.2h0.1c0.1,0,0.2,0,0.2-0.1c-0.2-0.1-0.4-0.3-0.5-0.5c-0.1-0.2-0.2-0.4-0.2-0.6
		c0-0.2,0-0.3,0.1-0.4c0.1-0.1,0.2-0.3,0.3-0.4c0.1-0.1,0.3-0.2,0.4-0.3c0.2-0.1,0.3-0.1,0.5-0.1c0.3,0,0.6,0.1,0.9,0.4
		c0.2,0.3,0.4,0.6,0.4,1.1c0,0.2,0,0.5-0.1,0.7c-0.1,0.2-0.2,0.4-0.4,0.5c-0.2,0.2-0.4,0.3-0.6,0.4c-0.2,0.1-0.5,0.1-0.7,0.1
		c-1.2,0-2.1-0.6-2.8-1.8c-0.5-1-0.8-2.1-0.8-3.4c0-1.1,0.2-2,0.6-2.9c0.4-0.9,0.9-1.7,1.6-2.4c0.3-0.3,0.7-0.5,1.1-0.7
		c0.4-0.2,0.8-0.3,1.3-0.4L-325.7,246.7z"/>
	<path d="M-316.3,246.7v10.8l-1.1-1.1l0.1-5.5c0-0.2,0-0.3-0.1-0.5c-0.1-0.2-0.2-0.4-0.3-0.6c-0.1-0.2-0.3-0.4-0.4-0.5
		c-0.1-0.1-0.3-0.3-0.4-0.4l-3.7,3.7l-1.5-0.5c0.7-0.7,1.1-1.2,1.1-1.6c0-0.7-0.2-1.1-0.6-1.1c-0.1,0-0.2,0-0.3,0.1
		c-0.1,0-0.3,0.1-0.4,0.1c-0.3,0.1-0.6,0.2-0.7,0.2c-0.2,0-0.4-0.1-0.6-0.3c-0.2-0.2-0.3-0.4-0.3-0.6c0-0.4,0.1-0.7,0.4-1.1
		c0.3-0.4,0.6-0.7,1.1-1c0.4-0.3,0.9-0.5,1.3-0.6c0.4-0.1,0.9-0.2,1.3-0.2c1.5,0,2.9,1.1,4.2,3.4l0,0c0-0.9-0.1-1.8-0.1-2.7
		c0-0.9-0.1-1.8-0.1-2.7l0.5,0.4c0.1,0.6,0.1,0.9,0.2,1.1c0.1,0.3,0.4,0.5,0.8,0.5c0.1,0,0.2,0,0.3,0l1,1H-316.3z M-319.3,247.8
		c-0.5-0.5-1-0.8-1.6-0.8c-1.1,0-2,0.5-2.4,1.4c0.6,0,1,0.2,1.2,0.6s0.3,0.8,0.3,1.4L-319.3,247.8z"/>
	<path d="M-312.5,246.7v10.8l-1-1v-7.7c0-0.3-0.1-0.6-0.2-0.9c-0.1-0.3-0.3-0.5-0.5-0.7c-0.2-0.2-0.5-0.3-0.7-0.4
		c-0.3-0.1-0.6-0.2-0.9-0.2l-1-1h1.2c0.6,0,1.1,0.1,1.5,0.4c0.3,0.3,0.6,0.7,0.8,1.4c0-0.2,0-0.5,0-0.8c0-0.3,0-0.7-0.1-1.1
		c0-0.4,0-0.8-0.1-1.1c0-0.3,0-0.6,0-0.8l0.4,0.3c0.1,0.7,0.3,1.3,0.6,1.6h0.7l1,1H-312.5z"/>
	<path d="M-297.8,248.9c0.3,0,0.6,0.1,0.8,0.2c0.2,0.1,0.4,0.3,0.6,0.5c0.2,0.2,0.3,0.4,0.4,0.7c0.1,0.3,0.1,0.5,0.1,0.8
		c0,0.6-0.1,1.1-0.3,1.6c-0.2,0.5-0.5,1-0.9,1.4c-0.2,0.2-0.5,0.5-0.7,0.7c-0.2,0.2-0.5,0.4-0.8,0.6c-0.3,0.2-0.5,0.3-0.8,0.5
		c-0.3,0.1-0.6,0.2-0.9,0.2c-0.2,0-0.5,0-0.7-0.1c-0.2-0.1-0.5-0.2-0.7-0.3c-0.2-0.1-0.4-0.3-0.6-0.5c-0.2-0.2-0.3-0.4-0.3-0.6V252
		c0-0.2-0.1-0.4-0.2-0.6c-0.1-0.2-0.2-0.4-0.3-0.6c-0.1-0.2-0.3-0.3-0.4-0.4c-0.2-0.1-0.4-0.2-0.6-0.2c-0.4,0-0.8,0.3-1.1,0.8
		c-0.6,0.9-1,1.5-1.4,1.9c-0.3,0.4-0.6,0.7-0.8,0.8c0,0-0.1,0-0.2,0.1c-0.1,0-0.2,0-0.3,0c-0.3,0-0.5-0.1-0.8-0.2
		c-0.2-0.2-0.5-0.4-0.7-0.6c-0.2-0.2-0.4-0.5-0.5-0.8c-0.2-0.3-0.3-0.5-0.4-0.8l0.7-0.6l0,0.1c0,0.1,0.1,0.3,0.1,0.4
		c0.1,0.1,0.1,0.3,0.2,0.4c0.1,0.1,0.2,0.2,0.3,0.3c0.1,0.1,0.2,0.1,0.3,0.1c0.1,0,0.3-0.1,0.5-0.3c0.2-0.2,0.4-0.4,0.6-0.7l0.8-1.1
		c0-0.5-0.1-0.9-0.2-1.1c-0.3-0.9-0.9-1.3-1.8-1.4c-0.1,0-0.2,0-0.3,0c-0.1,0-0.2,0-0.3,0c-0.2,0-0.3,0-0.4,0c-0.1,0-0.2,0-0.3,0
		c-0.4-0.1-0.8-0.2-1.1-0.4l-1.4-1.4h15.1c0.1-0.2,0.1-0.3,0.1-0.4c0-0.2-0.1-0.4-0.2-0.6c-0.1-0.1-0.3-0.3-0.5-0.4
		c-0.1,0-0.3-0.1-0.4-0.1c-0.1,0-0.3,0-0.5,0c-0.1,0-0.3,0-0.5,0c-0.2,0-0.3,0-0.5,0c-0.3,0-0.6,0-1,0c-0.4,0-0.8,0-1.2,0
		c-0.5,0-0.9-0.1-1.3-0.2c-0.3-0.1-0.7-0.4-1-0.6c-0.2-0.2-0.4-0.5-0.5-0.7c-0.1-0.3-0.2-0.5-0.2-0.8c0-0.4,0.1-0.8,0.3-1
		c0,0,0.1-0.1,0.2-0.1c0.1,0,0.1-0.1,0.2-0.1l0.1,0.4c-0.1,0.1-0.1,0.2-0.2,0.3c-0.1,0.1-0.1,0.2-0.1,0.3c0,0.2,0.1,0.5,0.3,0.7
		c0.2,0.2,0.4,0.3,0.8,0.5c0.3,0.1,0.6,0.1,0.9,0.1c0.4,0,0.9,0,1.4-0.1c0.5-0.1,1-0.1,1.4-0.1c0.4,0,0.8,0,1.1,0.1
		c0.3,0.1,0.6,0.2,0.9,0.3c0.5,0.3,0.8,0.7,1,1.1c0.2,0.4,0.3,0.9,0.3,1.5h0.8l1.2,1h-7.3v7.2c0,0.5,0.3,0.8,0.9,0.8
		c0.2,0,0.5-0.1,0.8-0.3c0.3-0.2,0.7-0.4,1-0.7c0.3-0.3,0.6-0.6,0.9-1c0.3-0.4,0.4-0.8,0.4-1.1h-0.3c-0.3,0-0.7-0.1-0.9-0.3
		c-0.3-0.2-0.4-0.5-0.4-0.9c0-0.4,0.1-0.7,0.4-1C-298.5,249-298.2,248.9-297.8,248.9z M-302.6,246.7h-4.9l0.7,0.5
		c0.2,0.2,0.4,0.5,0.6,0.8c0.1,0.3,0.2,0.7,0.2,1.1v0.5c0,0,0,0,0.1-0.1c0,0,0.1-0.1,0.1-0.1c0.1-0.1,0.3-0.3,0.5-0.4
		c0.2-0.1,0.4-0.2,0.6-0.3c0.3,0,0.5,0.1,0.7,0.2c0.2,0.1,0.4,0.3,0.6,0.5s0.3,0.4,0.5,0.6c0.1,0.2,0.3,0.4,0.4,0.6V246.7z"/>
</g>
<g>
	<path id="XMLID_64_" class="st0" d="M-416.1,238.4h1.2c1.7,0.1,3.2,0.6,4.6,1.5c2.7,1.6,4.5,4.3,5,7.4c0.3,2.4,0,4.5-1.1,6.5
		c0,0,0,0-0.1,0l0,0c0,0,0-0.1,0-0.1c0.5-0.9,0.8-1.8,0.9-2.7c0.1-0.7,0.2-1.4,0.2-2.4c0-0.7-0.1-1.4-0.2-2c-1-3.9-4-6.9-7.9-7.7
		c-1.4-0.3-2.8-0.3-4.2,0c-4.2,0.9-7.4,4.3-8.1,8.5c-0.3,2.3,0,4.4,1.1,6.5c0,0,0,0.1,0,0.1l0,0c0,0,0,0-0.1,0
		c-0.2-0.2-0.3-0.4-0.4-0.7c-0.5-1.3-0.8-2.4-0.9-3.3c-0.1-1.2,0-2.6,0.3-3.8c0.4-1.4,1-2.7,2-3.9c0.9-1,1.8-1.9,3-2.5
		c0.9-0.5,1.8-0.8,2.8-1.1C-417.3,238.5-416.7,238.5-416.1,238.4L-416.1,238.4z"/>
	<path id="XMLID_63_" class="st0" d="M-424.7,245.8c-0.7,2.1-0.7,4.2,0.1,6.4c0.2,0.5,0.4,0.9,0.6,1.4c0,0,0,0.1,0,0.1
		c0,0.1-0.1,0.1-0.1,0.1c0,0-0.1,0-0.1,0c-0.1-0.2-0.2-0.4-0.3-0.6c-0.3-0.7-0.6-1.5-0.7-2.3c-0.2-0.9-0.2-1.8-0.1-2.7
		c0-0.6,0.1-1.1,0.2-1.6c1.1-4,4.1-6.8,8.2-7.4c1-0.2,2-0.2,2.9,0c2.8,0.5,5.1,1.9,6.6,4.1c0.9,1.3,1.5,2.7,1.7,4.3
		c0.3,2.1,0,4.1-1,6c0,0.1-0.1,0.1-0.2,0.1l0,0c-0.1,0-0.1-0.1-0.1-0.2c0.9-1.6,1.2-3.4,1-5.3c-0.2-1.9-0.8-3.6-2-5.1
		c-2.9-3.7-7.9-4.8-12.1-2.5C-422.3,241.6-423.9,243.5-424.7,245.8L-424.7,245.8z"/>
	<path id="XMLID_203_" class="st0" d="M-417,240.3c-0.2,0-0.4,0-0.6,0.1c-0.2,0-0.4-0.1-0.4-0.2c0-0.1,0-0.1,0.1-0.1l0.1,0
		c0,0,0.1,0,0.1,0c0.5,0,0.8-0.2,1.2,0.3c0,0,0,0.1,0,0.1l-0.3,0c-0.1,0-0.1,0,0,0.1c0.3,0.2,0.2,0.4,0,0.6c0,0,0,0.1,0,0.1l0.4,0.3
		c0,0,0,0,0,0.1l0,0c0,0,0,0,0,0c-0.3-0.2-0.6-0.3-0.9-0.3c-0.1,0-0.1,0-0.2-0.1l-0.1-0.1c-0.1-0.1,0-0.1,0-0.1
		c0.2,0,0.5-0.1,0.7-0.2c0,0,0,0,0-0.1l0,0c0-0.1-0.1-0.1-0.1,0c-0.2,0.1-0.3,0.2-0.5,0.1c0,0-0.1-0.1,0-0.1l0.1-0.2
		c0.1-0.1,0-0.1,0-0.1l-0.5,0.1c-0.1,0-0.1,0.1-0.1,0.2c0.1,0.3,0.1,0.5,0.2,0.8c0,0.2,0,0.2-0.1,0c-0.1-0.2-0.2-0.4-0.3-0.6
		c0-0.1-0.1-0.2-0.3-0.2c0,0,0,0,0,0c-0.1,0-0.2,0.1-0.2,0.2l0.2,0.6c0,0.2,0,0.2-0.1,0.1c-0.2-0.2-0.5-0.1-0.8-0.1
		c-0.2,0-0.2-0.1-0.1-0.2c0.1-0.1,0.2-0.2,0.2-0.3c0-0.1,0-0.1,0-0.1c-0.2,0.1-0.4,0.2-0.6,0.3c0,0,0,0.1,0,0.1l0.4,0.8c0,0,0,0,0,0
		l0,0c0,0-0.1,0-0.1,0l-0.2-0.3c-0.1-0.1-0.3-0.1-0.3,0.1c-0.1,0.2-0.1,0.5-0.4,0.4c-0.2,0-0.2-0.1,0-0.2c0.1,0,0.1-0.1,0.1-0.2
		c0-0.1,0-0.2-0.1-0.1c-0.2,0.1-0.4,0.2-0.6,0.3c-0.2,0.3-0.2,0.5,0.2,0.7c0.1,0,0.1,0,0.1-0.1l0-0.1c0,0,0-0.1,0.1-0.1
		c0.1,0,0.1,0,0.2,0c0,0,0.1,0,0.1,0.1c-0.1,0.4-0.5,0.4-0.8,0.2c-0.1-0.1-0.2-0.2-0.2-0.4c0-0.3,0.1-0.5,0.4-0.6
		c0.7-0.5,1.5-0.9,2.2-1.2c0.2-0.1,0.4-0.1,0.6-0.2c0,0,0.1,0,0.1-0.1l0,0c0-0.1,0-0.1,0.1-0.1l0.1,0c0,0,0.1,0,0.1,0L-417,240.3
		C-416.9,240.3-416.9,240.3-417,240.3 M-418.8,241.3c-0.1,0-0.1,0.1-0.2,0.1c0,0,0,0.1,0,0.1c0.1,0,0.2,0,0.3,0c0,0,0.1,0,0-0.1
		c0,0-0.1-0.1-0.1-0.1C-418.7,241.3-418.8,241.3-418.8,241.3 M-420,241.7L-420,241.7C-420,241.6-420,241.6-420,241.7
		c-0.2-0.1-0.3,0-0.4,0.1c0,0,0,0,0,0.1c0,0,0,0,0,0c0,0,0,0,0.1,0C-420.2,241.8-420.1,241.8-420,241.7
		C-420,241.7-420,241.7-420,241.7L-420,241.7z"/>
	<path id="XMLID_198_" class="st0" d="M-410.9,241.9c0,0,0-0.1-0.1-0.1c0,0-0.1,0-0.1,0c0,0.2-0.1,0.3-0.3,0.2
		c-0.1-0.1-0.2-0.1-0.4-0.2c0,0-0.1-0.1,0-0.1c0-0.1,0.1-0.1,0.2-0.2c0.1,0,0.1-0.1,0-0.1l-1-0.4c0,0-0.1,0-0.1,0
		c-0.1,0-0.2,0.1-0.1,0.2c0,0,0.1,0.1,0.1,0.1c0.2,0,0.4,0,0.5,0c0.1,0,0.1,0.2,0,0.2c-0.2,0.1-0.3,0.3-0.3,0.5c0,0,0,0.1-0.1,0
		c0,0,0,0,0-0.1c0-0.2,0-0.3,0.1-0.5c0,0,0-0.1-0.1-0.1l-0.4,0.1c-0.1,0-0.2-0.1-0.2-0.2l0.1-0.4c0,0,0-0.1,0-0.1
		c0,0-0.1-0.1-0.1-0.1c0,0-0.1,0-0.1,0c-0.2,0.2-0.2,0.6-0.3,0.9c0,0,0,0.1-0.1,0c0,0,0,0-0.1-0.1c0-0.1,0-0.1,0-0.2
		c0-0.2,0.1-0.3,0.1-0.5c0-0.2,0-0.3-0.2-0.3c-0.1,0-0.2,0-0.2,0.1l-0.1,0.7c0,0.1,0,0.1-0.1,0c0,0,0,0,0,0c0,0,0,0,0-0.1
		c0-0.2-0.1-0.2-0.3-0.2c-0.5,0.1-0.8-0.4-1-0.8c0,0,0-0.1,0-0.1c0.1,0,0.3,0,0.4,0c0.5,0,1.1,0.1,1.6,0.2c0,0,0.1,0,0.1,0
		c0,0,0.1,0,0.1-0.1c0,0,0.1,0,0.1,0c0.1,0.1,0.2,0.2,0.3,0.2c0.7,0.2,1.3,0.4,1.8,0.8c0.1,0.1,0.3,0.1,0.5,0c0,0,0.1,0,0.1,0
		l0.7,0.1c0,0,0.1,0,0.1,0.1l0,0c0,0,0,0,0,0c-0.1,0-0.2,0-0.4,0c-0.2,0-0.2,0.1-0.2,0.2c0,0,0,0.1,0,0.1c-0.1,0-0.2,0.1-0.3,0.2
		c-0.1,0.2-0.2,0.4-0.3,0.5c0,0-0.1,0-0.1,0c-0.1,0-0.1-0.1,0-0.1C-411.1,242.3-411,242.1-410.9,241.9
		C-410.8,241.9-410.8,241.9-410.9,241.9 M-415,240.6c0-0.2-0.1-0.2-0.2-0.2c-0.1,0-0.1,0-0.1,0.1c0.2,0.4,0.4,0.5,0.7,0.4
		c0,0,0,0,0-0.1l0,0c0-0.1-0.1-0.1-0.1-0.1l-0.2,0C-415,240.7-415,240.7-415,240.6 M-414.5,240.5l0.2,0.4c0,0,0,0,0,0l0,0
		c0.1-0.1,0.1-0.2,0.1-0.3l0,0C-414.3,240.5-414.4,240.4-414.5,240.5L-414.5,240.5C-414.5,240.5-414.5,240.5-414.5,240.5
		 M-410.7,241.7c0,0,0.1-0.1,0-0.2c0-0.1-0.1-0.1-0.1-0.1c0,0-0.1,0.1,0,0.2C-410.8,241.7-410.7,241.7-410.7,241.7L-410.7,241.7z"/>
	<path id="XMLID_50_" class="st0" d="M-417.3,244.9c-0.3,0-0.8,0.1-0.9-0.3c0,0,0-0.1,0-0.1c0.1-0.1,0.1-0.2,0.2-0.3
		c0.1-0.3,0.3-0.4,0.5-0.7c0.1-0.1,0.2-0.3,0.3-0.4c0.5-0.3,1,0.1,1.3,0.4c0.1,0.1,0.3,0.1,0.4,0.1c0,0,0.1,0,0.1,0.1
		c0,0.1-0.1,0.2-0.2,0.3c-0.1,0-0.1,0.1,0,0.1c0,0,0.1,0.1,0,0.1c0,0.1-0.1,0.1-0.2,0.1c-0.2,0-0.3,0-0.4,0c-0.1,0-0.1,0,0,0.1
		c0,0,0,0,0,0c0,0,0,0.1,0,0.1c-0.2,0.1-0.2,0.3-0.4,0.4c-0.2,0.1-0.4,0.3-0.6,0.4c0,0-0.1,0-0.1,0c-0.1-0.1-0.1-0.2,0-0.3
		C-417.1,244.9-417.2,244.9-417.3,244.9L-417.3,244.9z"/>
	<path id="XMLID_49_" class="st0" d="M-414.8,245.6C-414.8,245.6-414.8,245.6-414.8,245.6L-414.8,245.6
		C-414.8,245.5-414.8,245.5-414.8,245.6c-0.5-0.1-0.7-0.4-0.7-0.8c0,0,0-0.1,0.1-0.1c0.8,0,1.5,0,2.1,0c0.1,0,0.2,0,0.2,0.1
		c0.4,0.6,0.6,1.4,0.5,2.3c0,0.4-0.2,0.6-0.5,0.8c-0.4,0.2-0.7,0.3-1.2,0.3c-0.1,0-0.1,0-0.1-0.1c-0.1-0.3-0.1-0.5-0.1-0.8
		c-0.1-0.5-0.4-0.8-0.7-1.1c-0.1,0-0.1,0-0.1,0.1l0,0.7c0,0.1-0.1,0.1-0.1,0.1l-0.6,0c-0.1,0-0.1,0-0.1-0.1c0-0.3,0-0.9,0.2-1.1
		c0.2-0.1,0.3-0.3,0.4-0.5c0,0,0.1,0,0.1,0C-415.4,245.5-415.1,245.6-414.8,245.6L-414.8,245.6z"/>
	<path id="XMLID_48_" class="st0" d="M-416.1,245.5c0-0.2,0.1-0.4,0.1-0.6c0-0.1,0.1-0.1,0.2-0.1c0.1,0,0.1,0.1,0.1,0.3
		c0,0.1,0,0.1-0.1,0.2C-415.8,245.4-415.9,245.5-416.1,245.5C-416,245.6-416.1,245.5-416.1,245.5L-416.1,245.5z"/>
	<path id="XMLID_47_" class="st0" d="M-416.3,245.5l-0.9,0.6c-0.1,0-0.1,0-0.2,0l-0.2-0.2c0,0,0-0.1,0-0.1c0.4-0.3,0.8-0.5,1.2-0.6
		c0,0,0.1,0,0.1,0C-416.1,245.2-416.2,245.3-416.3,245.5C-416.3,245.5-416.3,245.5-416.3,245.5L-416.3,245.5z"/>
	<path id="XMLID_46_" class="st0" d="M-416.7,247c-0.2-0.1-0.4-0.1-0.5-0.4c-0.1-0.2,0-0.3,0.1-0.4c0.2-0.2,0.5-0.4,0.7-0.6
		c0,0,0.1,0,0.1,0c0,0,0,0,0,0.1c-0.1,0.4-0.1,0.8-0.1,1.1c0,0,0,0.1,0,0.1C-416.5,247-416.6,247-416.7,247L-416.7,247z"/>
	<path id="XMLID_45_" class="st0" d="M-417.1,246.9c0.3,0.1,0.6,0.2,0.9,0.3c0.2,0,0.4,0,0.5,0.1c0.1,0,0.2,0.1,0.2,0.2
		c0,0.2,0,0.4,0,0.7c0,0.1-0.1,0.2-0.2,0.1c-0.7-0.3-1.4-0.6-1.9-1.1c-0.1-0.1-0.1-0.1-0.2-0.2c0-0.3-0.2-0.4-0.5-0.5
		c-0.1,0-0.1-0.2-0.1-0.2c0.3-0.3,0.5-0.3,0.7,0C-417.3,246.4-417.4,246.8-417.1,246.9L-417.1,246.9z"/>
	<path id="XMLID_44_" class="st0" d="M-418.6,247.3l-0.2,0.1c0,0-0.1,0-0.1,0c-0.1-0.1-0.2-0.3-0.1-0.4c0.2-0.2,0.4-0.4,0.7-0.4
		c0.4-0.1,0.5,0.5,0.5,0.8c0,0.1,0,0.1-0.1,0.2c-0.2,0-0.5,0-0.7-0.1c0,0-0.1,0-0.1-0.1L-418.6,247.3
		C-418.5,247.2-418.6,247.2-418.6,247.3L-418.6,247.3z"/>
	<path id="XMLID_43_" class="st0" d="M-414.7,248.4l-0.3,0.1c-0.1,0.1-0.2,0-0.2-0.1c0-0.6,0-1.2,0-1.8c0,0,0.1-0.1,0.1,0
		c0.4,0.2,0.5,1,0.6,1.5C-414.6,248.2-414.6,248.3-414.7,248.4L-414.7,248.4z"/>
	<path id="XMLID_42_" class="st0" d="M-416.8,247.9l1.1,0.6c0.1,0,0.1,0.1,0,0.2c-0.1,0.2-0.3,0.3-0.4,0.4c0,0-0.1,0-0.1,0
		C-416.5,248.7-416.7,248.3-416.8,247.9C-416.9,247.9-416.8,247.9-416.8,247.9L-416.8,247.9z"/>
	<path id="XMLID_41_" class="st0" d="M-421.9,249.1c0.1,0.1,0.1,0.2,0,0.4c0,0,0,0.1,0,0.2c0,0.2,0.1,0.3,0.2,0.5
		c0,0.1,0,0.1-0.1,0.2l-0.3,0.1c0,0-0.1,0-0.1,0c-0.1-0.1-0.1-0.3,0-0.4c0.2-0.3,0.1-0.6-0.1-0.9c0-0.1-0.1-0.1-0.2,0
		c-0.3,0.2-0.6,0.3-1,0.2c-0.4-0.1-0.8-0.2-1.2-0.2c-0.2,0-0.2-0.1,0-0.1c0.5-0.2,1-0.3,1.5-0.4c0.3-0.1,0.5,0.1,0.8,0.3
		c0,0,0.1,0,0.1,0c0.1-0.2,0.1-0.5,0.3-0.5c0.1,0,0.2,0,0.2,0.1c0,0.2,0.1,0.4,0.3,0.5c0.1,0.1,0,0.2-0.1,0.3c-0.1,0-0.1,0-0.2,0
		C-421.9,249-422,249-421.9,249.1L-421.9,249.1z"/>
	<path id="XMLID_40_" class="st0" d="M-416.8,248.6c-0.7,0-1.3,0-2,0c-0.1,0-0.2,0.1-0.3,0.1c-0.1,0-0.1,0-0.2-0.1
		c-0.1-0.3,0.1-0.4,0.3-0.4c0.7-0.1,1.3-0.1,1.8-0.1c0,0,0.1,0,0.1,0L-416.8,248.6C-416.7,248.6-416.8,248.6-416.8,248.6
		L-416.8,248.6z"/>
	<path id="XMLID_39_" class="st0" d="M-415.5,249.4L-415.5,249.4C-415.5,249.5-415.5,249.5-415.5,249.4c0.7-0.1,1.3-0.3,1.8-0.6
		c0.1,0,0.2,0,0.2,0l0.7,0.3c0,0,0,0.1,0,0.1c-0.4,0.3-0.9,0.7-1.3,0.9c-0.1,0.1-0.2,0.1-0.3,0c-0.3-0.2-0.3,0.3-0.6,0.3
		c-0.5-0.1-1.1-0.2-1.6-0.3c-0.1,0-0.1-0.1,0-0.1c0.2-0.3,0.5-0.5,0.8-0.7c0.1-0.1,0.2-0.2,0.2-0.3c0,0,0-0.1,0.1-0.1l1-0.4
		c0,0,0,0,0,0c0.2-0.1,0.4,0,0.5,0.1c0.1,0.1,0.1,0.2-0.1,0.3C-414.6,249.1-415,249.2-415.5,249.4
		C-415.5,249.4-415.5,249.4-415.5,249.4L-415.5,249.4z"/>
	<path id="XMLID_38_" class="st0" d="M-412.7,249c-0.2,0-0.6-0.2-0.7-0.4c-0.1,0-0.1-0.1,0-0.1c1.8,0,3.6-0.1,5.3-0.1
		c0.6,0,1.2,0,1.7,0c0,0,0.1,0,0.1,0.1l0,0.4c0,0,0,0.1-0.1,0.1C-408.5,249-410.6,249-412.7,249L-412.7,249z"/>
	<path id="XMLID_175_" class="st0" d="M-420,249C-419.9,249-419.9,249-420,249l-1.4,0c0,0-0.1,0-0.1-0.1l0-0.3c0,0,0-0.1,0.1-0.1
		l1.8,0c0.1,0,0.1,0,0.1,0.1c-0.1,0.3,0.3,0.6,0.5,0.3c0.1-0.1,0.1-0.1,0.2-0.2c0,0,0.1,0,0.1,0l1.9,0.1c0.1,0,0.2,0,0.2,0.1
		l0.1,0.1c0.1,0.1,0,0.1,0,0.1c-0.6,0-1.3-0.1-2-0.1c-0.2,0-0.2,0.1-0.1,0.2c0.4,0.3,0.4,1.4,0.2,1.8c0,0.2-0.1,0.3-0.1,0.5
		c0,0.5,0.1,0.9,0.1,1.4c0,0.4-0.3,0.8-0.7,0.8c-0.3,0-0.6,0-0.9,0c-0.1,0-0.1,0-0.1-0.1c-0.1-0.2-0.3-0.4-0.3-0.7
		c0-0.6,0.1-1.1,0.2-1.6c0-0.1,0-0.3,0-0.4c-0.1-0.4-0.1-0.7-0.1-1.1C-420.3,249.5-420.1,249.3-420,249 M-418.9,250.2l0.1,0.7
		c0,0.1,0.1,0.2,0.2,0.1c0.1,0,0.1-0.1,0.2-0.2c0.1-0.5,0.1-1.3-0.3-1.6c0,0-0.1,0-0.1,0c-0.2,0-0.5,0-0.7,0c-0.1,0-0.2,0-0.3,0.1
		c-0.3,0.4-0.3,0.9-0.3,1.4c0,0.2,0.1,0.3,0.2,0.4c0.1,0.1,0.2,0,0.2-0.1l0-0.3c0-0.1,0.1-0.2,0.2-0.2l0.6,0c0,0,0,0,0,0l0,0
		c0,0,0,0,0,0l-0.6,0c0,0,0,0,0,0l0,0c0,0,0-0.1,0.1-0.1L-418.9,250.2C-418.9,250.1-418.9,250.1-418.9,250.2 M-419.3,252.4
		c0.1-0.1,0.2-0.1,0.2,0l0.4,0.5c0.2,0.2,0.2,0.2,0.2-0.1c0-0.5,0-1-0.2-1.5c0-0.1-0.1-0.2-0.2-0.2c-0.3,0-0.6-0.1-0.9,0
		c-0.2,0-0.3,0.1-0.3,0.3c-0.1,0.5-0.1,1.1-0.1,1.6c0,0.1,0.1,0.2,0.2,0.1C-419.7,252.9-419.5,252.7-419.3,252.4 M-419.4,253.1
		c0.1,0,0.2,0.1,0.3,0c0.1,0,0.1-0.1,0.1-0.2C-419.2,252.7-419.4,252.8-419.4,253.1C-419.5,253-419.5,253.1-419.4,253.1
		L-419.4,253.1z"/>
	<path id="XMLID_33_" class="st0" d="M-417.5,252.3L-417.5,252.3C-417.4,252.3-417.4,252.3-417.5,252.3c0.2-0.1,0.3-0.1,0.5-0.1
		c0.1,0,0.1,0,0.1,0.1c0.3,0.5,0.1,1.4-0.1,2c-0.1,0.4-0.2,0.9-0.2,1.3c0,0.3,0,0.7,0,1c0,0.1-0.1,0.2-0.2,0.2c-0.2,0-0.4-0.1-0.6,0
		c-0.4,0.1-0.6,0.2-1,0c-0.1,0,0-0.1,0-0.1l0.9-0.5c0,0,0.1-0.1,0.1-0.1l-0.1-3.8c0,0,0-0.1,0-0.1c0.4-0.6,0.8-1.1,1.2-1.5
		c0.1-0.1,0.2-0.1,0.4-0.1c0.3,0.1,0.7,0.2,1,0.2c0.2,0,0.3,0,0.4,0c0.2-0.1,0.3-0.2,0.5-0.2c0.3,0,0.8-0.4,1.1-0.6
		c0.1-0.1,0.1,0,0.1,0.1c-0.1,0.4-0.4,0.6-0.7,0.8c-0.9,0.4-1.7,0.7-2.6,1C-416.7,251.8-417.1,252-417.5,252.3
		C-417.5,252.2-417.5,252.3-417.5,252.3L-417.5,252.3z"/>
	<path id="XMLID_32_" class="st0" d="M-413.7,252.4c0.1-0.1,0.2-0.2,0.3-0.3c0,0,0.1-0.1,0.1-0.1c0.2,0,0.5,0,0.7,0
		c0.9,0.1,1.8,0.2,2.6,0.3c0.2,0,0.4,0,0.5,0c0,0,0.1,0,0.1,0.1c0.1,0.2,0.1,0.3,0.1,0.5c-0.1,0.3-0.1,0.6-0.1,0.9
		c0,0.2-0.1,0.3-0.2,0.4c0,0-0.1,0-0.1,0.1c-0.1,0.1-0.2,0-0.2-0.1c0-0.3-0.1-0.6-0.2-0.9c-0.2-0.4-0.5-0.4-0.9-0.4
		c-0.9,0.1-1.9,0.2-2.9,0.4c-0.1,0-0.2,0-0.2-0.1c-0.3-0.6-0.6-1.1-0.8-1.6c0-0.1,0-0.2,0.1-0.2c0.4-0.3,0.9-0.5,1.3-0.7
		c0,0,0.1,0,0.1,0c0,0,0,0.1,0,0.1C-413.5,251.3-413.6,251.9-413.7,252.4C-413.8,252.4-413.8,252.4-413.7,252.4L-413.7,252.4z"/>
	<path id="XMLID_31_" class="st0" d="M-419.7,251.4c0.2-0.1,0.5-0.1,0.8-0.1c0,0,0.1,0,0.1,0c0.3,0.3-0.2,0.6-0.4,0.8
		c0,0-0.1,0-0.1,0c-0.1-0.1-0.3-0.2-0.4-0.3C-419.9,251.7-419.9,251.4-419.7,251.4L-419.7,251.4z"/>
	<path id="XMLID_30_" class="st0" d="M-418.7,252l0.2,0.8c0,0.1-0.1,0.1-0.1,0.1l-0.5-0.6c0,0,0-0.1,0-0.1l0.3-0.3
		C-418.8,251.9-418.7,251.9-418.7,252L-418.7,252z"/>
	<path id="XMLID_29_" class="st0" d="M-419.9,252.1l0.1-0.1c0,0,0.1-0.1,0.1,0l0.3,0.3c0,0,0,0.1,0,0.1l-0.4,0.5
		c0,0.1-0.1,0-0.1-0.1L-419.9,252.1C-420,252.1-420,252.1-419.9,252.1L-419.9,252.1z"/>
	<path id="XMLID_165_" class="st0" d="M-415.5,262.6h-0.6c-3.2-0.3-5.9-1.5-8.3-3.5c-0.9-0.8-1.8-1.8-2.6-2.8
		c-0.1-0.1-0.1-0.2-0.2-0.3c0,0,0-0.1,0-0.1c0.5-0.2,0.9-0.6,1.2-1c0,0,0-0.1,0-0.1c-0.1-0.1-0.2-0.2-0.3-0.3
		c-0.3-0.4-0.2-1,0.4-1.1c0.6-0.1,0.6,0.6,0.6,1c0,0.1,0,0.2,0.1,0.1c0.5-0.1,0.9-0.3,1.3-0.6c0.1-0.1,0.1,0,0.2,0
		c0.5,0.8,1.1,1.5,1.7,2.1c1.7,1.6,3.8,2.4,6.1,2.5c0.7,0,1.4,0,2.1-0.2c1.7-0.3,3.2-1.1,4.5-2.2c0.8-0.7,1.5-1.5,2-2.4
		c0,0,0.1-0.1,0.1,0c0.4,0.3,0.9,0.6,1.4,0.7c0.2,0,0.2,0,0.2-0.2c-0.1-0.4,0.1-0.8,0.5-0.9c0.2-0.1,0.4,0,0.5,0.1
		c0.4,0.5,0,1.1-0.5,1.3c-0.1,0-0.1,0.1,0,0.1l1.2,1.2c0,0,0,0.1,0,0.1c-0.5,0.7-1.1,1.4-1.6,2c-2.1,2.4-4.8,3.8-7.9,4.2
		c-0.2,0-0.6,0.1-1,0.1C-414.9,262.5-415.2,262.5-415.5,262.6 M-404.8,253.9c0-0.1,0-0.2-0.1-0.3c0,0-0.1,0-0.2,0
		c-0.1,0-0.1,0-0.1,0.1c-0.1,0.2-0.2,0.4-0.1,0.6c0,0.1,0.1,0.1,0.2,0.1C-404.9,254.3-404.8,254.1-404.8,253.9 M-425.8,254.4
		c0.1,0,0.2-0.2,0.2-0.4c-0.1-0.2-0.2-0.3-0.4-0.3c-0.1,0-0.2,0.2-0.2,0.4C-426.1,254.3-426,254.4-425.8,254.4 M-421.5,260.7
		c1.1,0.6,2.4,1,3.9,1.3c0.6,0.1,1.3,0.2,2,0.2c0.8,0,1.5-0.1,2-0.1c2-0.2,3.7-0.9,5.3-2c1.5-1,2.8-2.4,3.9-3.9c0,0,0-0.1,0-0.1
		c-0.4-0.4-0.8-0.8-1.1-1.2c-0.1-0.1-0.1-0.1-0.2-0.1c-0.5-0.1-0.9-0.3-1.4-0.5c-0.1,0-0.1,0-0.2,0c-2,2.9-5.1,4.6-8.6,4.6
		c-2.3,0-4.5-0.9-6.3-2.4c-0.7-0.6-1.2-1.3-1.8-2c0,0-0.1-0.1-0.1,0c-0.4,0.3-0.9,0.4-1.4,0.4c-0.1,0-0.3,0-0.4,0.1
		c-0.3,0.4-0.6,0.7-1,0.9c0,0-0.1,0.1,0,0.1C-425.3,258.1-423.6,259.6-421.5,260.7L-421.5,260.7z"/>
	<path id="XMLID_22_" class="st0" d="M-420.1,253.8C-420.1,253.8-420,253.8-420.1,253.8l1.1,0c0.3,0,0.6,0,0.6,0.1v0
		c0,0-0.3,0.1-0.6,0.1l-1,0c0,0,0,0,0,0V253.8L-420.1,253.8z"/>
	<path id="XMLID_21_" class="st0" d="M-407.4,256.8c0.1,0,0.1,0,0.2-0.1c0,0,0.1,0,0.1,0c0.2,0.1,0.3,0.3,0.3,0.5
		c0,0.1,0,0.1-0.1,0.1l-0.1,0c-0.1,0-0.1,0-0.1-0.1l0-0.3c0,0,0,0,0,0l0,0c0,0,0,0,0,0c0,0.1-0.1,0.2-0.2,0.2c0,0-0.1,0-0.1,0
		c-0.4-0.3-0.1-0.8,0.3-0.9c0.1,0,0.1-0.1,0-0.1c-0.1,0-0.1-0.1-0.2-0.1c-0.1-0.1-0.1-0.1,0-0.1l0.4,0c0,0,0.1,0,0,0.1l0,0.1
		c0,0,0,0.1,0,0.1l1,0.8c0,0,0,0,0,0.1c0,0-0.1,0-0.1,0c-0.1,0-0.1,0-0.2-0.1c-0.3-0.2-0.5-0.4-0.8-0.5
		C-407.2,256.5-407.4,256.5-407.4,256.8C-407.5,256.8-407.5,256.8-407.4,256.8L-407.4,256.8z"/>
	<path id="XMLID_158_" class="st0" d="M-423.7,256.6c-0.1-0.1-0.2-0.3-0.3-0.4c0-0.1-0.1-0.1-0.1-0.2c0,0,0,0,0.1-0.1
		c0,0,0.1,0,0.1,0l1,1c0,0,0.1,0,0.1,0c0,0,0,0,0,0c0.1,0,0.1,0,0.1,0.1l0,0.4c0,0,0,0.1,0,0c-0.1-0.1-0.2,0-0.3,0
		c-0.3,0.3-0.5,0.6-0.8,0.9c0,0-0.1,0.1-0.1,0l0,0c0,0,0,0,0-0.1c0.2-0.3,0.5-0.7,0.8-0.9c0.1-0.1,0.1-0.2,0-0.3
		c0-0.1-0.1-0.1-0.1-0.1c-0.1-0.1-0.1-0.1-0.2,0c-0.3,0.3-0.6,0.6-0.9,1c-0.1,0.1-0.1,0.1-0.1,0c0.1-0.3,0.1-0.7,0-1.1
		c-0.1-0.2,0-0.3,0.3-0.3L-423.7,256.6C-423.7,256.7-423.7,256.7-423.7,256.6 M-424.2,256.9C-424.2,256.9-424.3,256.9-424.2,256.9
		c-0.1,0.2-0.1,0.3-0.1,0.4c0,0.1,0.1,0.1,0.1,0c0.1-0.1,0.2-0.2,0.2-0.3c0,0,0-0.1,0-0.1L-424.2,256.9L-424.2,256.9z"/>
	<path id="XMLID_154_" class="st0" d="M-410.1,258.8C-410.1,258.7-410.1,258.7-410.1,258.8c-0.3,0-0.5,0.2-0.8,0.3c0,0,0,0,0,0.1
		l0.5,1.2c0.1,0.1,0,0.1-0.1,0.1c-0.1,0-0.1-0.1-0.2-0.2c-0.2-0.3-0.3-0.7-0.5-1c0,0,0-0.1-0.1-0.1l-0.2-0.1c0,0-0.1-0.1,0-0.1
		l0.1-0.1c0,0,0-0.1,0-0.1c-0.1-0.4,0-0.7,0.4-0.8c0.2,0,0.4,0,0.8,0c0,0,0,0,0,0l0,0c0,0,0,0,0,0c-0.3,0-0.9,0-0.9,0.5
		c0,0.1,0.1,0.1,0.2,0.1c0.9-0.4,1.7-1,2.6-1.7c0,0,0,0,0-0.1c0,0,0-0.1,0-0.1c0,0,0-0.1,0-0.1l0.3,0c0,0,0.1,0,0.1,0
		c0,0,0,0.1,0,0.1c0,0.1,0,0.1,0,0.2l0.9,0.9c0.1,0.1,0.1,0.1-0.1,0.1c-0.1,0-0.1,0-0.2-0.1c-0.2-0.2-0.5-0.5-0.7-0.7
		c-0.1-0.1-0.3-0.1-0.4,0l-1.3,0.9c-0.1,0.1-0.1,0.1,0,0.2c0.2,0.3,0.4,0.7,0.6,1c0.2,0.2,0.1,0.3-0.1,0.1c-0.2-0.1-0.4-0.2-0.7-0.1
		c-0.2,0-0.3,0-0.4-0.1c0,0,0-0.1,0-0.1L-410.1,258.8 M-409.6,259.3l-0.2-0.3c0-0.1-0.1-0.1-0.2,0l-0.1,0.2c0,0.1,0,0.1,0.1,0.2
		C-409.8,259.3-409.7,259.4-409.6,259.3C-409.5,259.3-409.5,259.3-409.6,259.3L-409.6,259.3z"/>
	<path id="XMLID_151_" class="st0" d="M-422.9,258.2c-0.1,0-0.1,0-0.1,0.1c0.1,0.3,0.1,0.7,0.1,0.9c0,0.3,0,0.3-0.1,0
		c-0.1-0.3-0.2-0.5-0.2-0.8c0-0.1,0-0.1,0-0.2c0.1-0.1,0.2-0.3,0.3-0.4c0-0.1,0.1-0.2,0.2-0.2c0.3-0.2,0.6,0.2,0.4,0.5
		c-0.1,0.1-0.2,0.2-0.4,0.1C-422.8,258.3-422.8,258.3-422.9,258.2C-422.8,258.2-422.9,258.2-422.9,258.2 M-422.5,257.9
		c0,0-0.1-0.1-0.1,0c-0.1,0-0.1,0.1-0.1,0.1c0,0,0.1,0.1,0.1,0C-422.5,258-422.5,258-422.5,257.9L-422.5,257.9z"/>
	<path id="XMLID_13_" class="st0" d="M-408.3,258.1c0,0.2-0.2,0.4-0.4,0.4c-0.1,0-0.2,0-0.2-0.1c-0.1-0.1-0.1-0.2,0-0.3
		c0-0.1,0.2-0.2,0.3-0.1c0,0,0,0,0.1,0c0,0,0.1,0,0.1-0.1c0-0.1,0-0.1,0.1-0.1c0,0,0.1-0.1,0.1,0c0.5,0,0.8,0.5,0.5,0.9
		c-0.4,0.6-1.2,0.1-1.5-0.2c-0.1-0.1-0.1-0.1,0-0.1c0.1,0,0.2,0.1,0.3,0.1c0.4,0.2,0.8,0.2,1-0.2c0-0.1,0-0.2,0-0.2l-0.1-0.1
		C-408.3,258-408.3,258-408.3,258.1L-408.3,258.1z"/>
	<path id="XMLID_147_" class="st0" d="M-417.3,260.2l0.1,0.1c0,0,0,0.1,0,0.1c0,0.1-0.1,0.2-0.2,0.2c0,0-0.1,0-0.1,0
		c-0.1-0.1-0.2-0.1-0.4-0.1c0,0-0.1,0-0.1,0c-0.1-0.1-0.1-0.1-0.1-0.2c0-0.1,0.1-0.2,0.2-0.2c0.1-0.1,0-0.2,0-0.2l-1-0.3
		c-0.1,0-0.1,0-0.2,0.1l-0.1,0.2c0,0.1,0,0.1,0.1,0.1c0.2-0.1,0.6-0.2,0.7,0.1c0,0,0,0.1,0,0.1c-0.2,0.3-0.3,0.6-0.4,1c0,0,0,0,0,0
		h0c0,0-0.1,0-0.1-0.1c0-0.3,0.1-0.6,0.1-0.9c0-0.1,0-0.1-0.1-0.1l-0.5,0.3c0,0-0.1,0-0.1,0c-0.1-0.1-0.1-0.2-0.1-0.3
		c0.1-0.2,0.1-0.4,0.2-0.6c0-0.1,0-0.1-0.1-0.1c-0.6,0.1-0.8,0.4-0.9,0.9c0,0.1,0,0.1,0.1,0.1c0.1,0,0.1-0.1,0.1-0.1
		c0-0.1,0.1-0.1,0.2,0c0.3,0.4-0.5,0.6-0.5,0c-0.1-0.4,0.1-0.8,0.4-1.1c0,0,0-0.1,0-0.1l-0.3-0.2c0,0-0.1,0-0.1,0l-0.6,1.3
		c0,0.1-0.1,0.1-0.1,0c0,0,0,0,0-0.1c0-0.1,0-0.1,0-0.2c0.1-0.3,0.3-0.6,0.4-0.9c0.1-0.1,0-0.3-0.1-0.3c-0.1-0.1-0.2,0-0.2,0.1
		l-0.6,1.1c0,0,0,0-0.1,0c0,0,0,0,0,0c0-0.1,0-0.1,0-0.2c0.1-0.2,0.2-0.4,0.3-0.6c0,0,0-0.1,0-0.1c0-0.1,0-0.2-0.1-0.1
		c-0.1,0-0.2,0.1-0.3,0.2c0,0-0.1,0-0.1,0c-0.5,0-0.6-0.5-0.2-0.8c0.1-0.1,0.4-0.1,0.5,0c0.1,0.1,0.3,0.2,0.5,0.2c0,0,0,0,0.1,0
		c0,0,0,0,0,0c0,0,0,0,0,0c-0.3-0.2-0.6-0.4-0.9-0.6c0,0,0,0,0-0.1l0-0.1c0,0,0,0,0,0c0.4,0.3,0.9,0.5,1.3,0.8c0,0,0.1,0.1,0.2,0.1
		c0,0,0.1,0,0.1,0c0,0,0-0.1,0.1-0.1c0,0,0-0.1,0.1-0.1c0,0,0,0,0,0c0,0,0,0,0,0.1c0,0.1,0.1,0.2,0.2,0.3c0.7,0.3,1.5,0.5,2.2,0.7
		c0.1,0,0.2,0.1,0.2,0.1c0,0.1,0.1,0.1,0.2,0c0.1-0.1,0.2-0.1,0.3,0.1c0.1,0.1,0.1,0.1,0.2,0c0-0.1,0-0.1,0-0.2c0,0,0-0.1,0.1,0
		c0.1,0.1,0.2,0.2,0.3,0.4c0,0,0,0.1,0,0.1c-0.1,0-0.2,0.1-0.2,0.2c0,0.4-0.1,0.8-0.2,1.2c0,0,0,0.1-0.1,0.1l0,0c0,0,0,0,0,0
		c0-0.4,0-0.7,0-1.1C-417,260.2-417.1,260.1-417.3,260.2C-417.3,260.1-417.3,260.1-417.3,260.2 M-422.1,258.8c0.1,0,0.2,0,0.3,0.1
		c0,0,0.1,0,0.1,0c0,0,0,0,0-0.1c-0.1-0.2-0.2-0.2-0.3-0.2C-422.1,258.6-422.2,258.7-422.1,258.8
		C-422.2,258.7-422.2,258.8-422.1,258.8L-422.1,258.8z"/>
	<path id="XMLID_139_" class="st0" d="M-413,259.8l-0.7,0.1c-0.1,0-0.1,0.1-0.1,0.2l0.2,1.3c0,0,0,0,0,0l0,0c0,0-0.1,0-0.1-0.1
		c-0.2-0.4-0.2-0.8-0.3-1.2c0-0.1-0.1-0.2-0.2-0.2c-0.2,0-0.4,0-0.7,0.1c0,0-0.1,0-0.1,0.1l0,0.3c0,0.1,0,0.1,0.1,0
		c0.1,0,0.1-0.1,0.2-0.2c0-0.1,0.1-0.1,0.2,0c0.3,0.3,0.4,0.9-0.1,1c-0.4,0.1-0.7,0-0.8-0.4c-0.1-0.3-0.2-0.5-0.2-0.8
		c0,0,0-0.1-0.1-0.1c-0.1,0-0.1-0.1-0.1-0.1c0,0,0-0.1,0.1-0.1l1.6-0.1c0.1,0,0.1-0.1,0.1-0.1l0-0.1c0,0,0-0.1,0.1-0.1c0,0,0,0,0,0
		c0,0,0.1,0.1,0.1,0.1c0,0,0.1,0,0.1,0c0.5-0.1,1-0.2,1.5-0.3c0.1,0,0.1,0,0.2,0l0,0c0.1,0,0,0.1,0,0.1c-0.1,0-0.1,0-0.2,0
		c-0.2,0-0.2,0.1,0,0.2c0.2,0.1,0.3,0.2,0.4,0.4c0.1,0.2-0.1,0.4-0.3,0.3c-0.2,0-0.2,0-0.1,0.2c0,0.1,0.1,0.2,0.1,0.2
		c0,0.2,0,0.2-0.1,0.1c-0.1-0.1-0.3-0.3-0.5-0.3c-0.1,0-0.3-0.1-0.4-0.2c-0.1-0.1-0.1-0.2,0-0.3C-413.2,260.1-413.1,260-413,259.8
		C-412.9,259.8-412.9,259.8-413,259.8 M-412.5,260.3C-412.5,260.3-412.4,260.3-412.5,260.3c0.1,0,0.2-0.1,0.3-0.1c0,0,0,0,0-0.1
		c-0.1-0.1-0.2-0.1-0.3-0.1c0,0-0.1,0,0,0.1L-412.5,260.3 M-412.7,260.6C-412.7,260.6-412.6,260.5-412.7,260.6l0-0.4
		c0-0.1-0.1-0.1-0.1,0l-0.2,0.2c0,0,0,0.1,0,0.1L-412.7,260.6 M-415.1,261.1c0.2,0.2,0.5,0,0.6-0.2c0-0.1,0-0.1-0.1-0.1
		c-0.1,0-0.2,0-0.2,0.1c-0.1,0.1-0.3,0.1-0.3-0.1c-0.1-0.2-0.1-0.4-0.1-0.6c0,0,0-0.1-0.1-0.1l-0.1,0c-0.1,0-0.1,0-0.1,0.1
		C-415.5,260.6-415.4,260.9-415.1,261.1L-415.1,261.1z"/>
</g>
</svg>
